%TF.GenerationSoftware,KiCad,Pcbnew,9.0.6*%
%TF.CreationDate,2026-02-27T09:42:09+00:00*%
%TF.ProjectId,Foinse,466f696e-7365-42e6-9b69-6361645f7063,rev?*%
%TF.SameCoordinates,Original*%
%TF.FileFunction,Copper,L5,Inr*%
%TF.FilePolarity,Positive*%
%FSLAX46Y46*%
G04 Gerber Fmt 4.6, Leading zero omitted, Abs format (unit mm)*
G04 Created by KiCad (PCBNEW 9.0.6) date 2026-02-27 09:42:09*
%MOMM*%
%LPD*%
G01*
G04 APERTURE LIST*
%TA.AperFunction,ComponentPad*%
%ADD10R,2.300000X2.300000*%
%TD*%
%TA.AperFunction,ComponentPad*%
%ADD11C,2.300000*%
%TD*%
%TA.AperFunction,ComponentPad*%
%ADD12R,1.524000X1.524000*%
%TD*%
%TA.AperFunction,ComponentPad*%
%ADD13C,1.524000*%
%TD*%
%TA.AperFunction,ComponentPad*%
%ADD14O,2.250000X4.500000*%
%TD*%
%TA.AperFunction,ComponentPad*%
%ADD15O,2.000000X4.000000*%
%TD*%
%TA.AperFunction,ComponentPad*%
%ADD16O,4.000000X2.000000*%
%TD*%
%TA.AperFunction,ViaPad*%
%ADD17C,0.600000*%
%TD*%
%TA.AperFunction,ViaPad*%
%ADD18C,0.400000*%
%TD*%
G04 APERTURE END LIST*
D10*
%TO.N,BAT*%
%TO.C,J15*%
X150890465Y-57023677D03*
D11*
X155090465Y-57023677D03*
%TO.N,GND*%
X150890465Y-62523677D03*
X155090465Y-62523677D03*
%TD*%
D12*
%TO.N,GND*%
%TO.C,J1*%
X176790000Y-68640000D03*
D13*
X174250000Y-68640000D03*
%TO.N,5VSERVO*%
X176790000Y-71180000D03*
X174250000Y-71180000D03*
X176790000Y-73720000D03*
X174250000Y-73720000D03*
X176790000Y-76260000D03*
X174250000Y-76260000D03*
%TO.N,GND*%
X176790000Y-78800000D03*
X174250000Y-78800000D03*
%TO.N,5VLOGIC*%
X176790000Y-81340000D03*
X174250000Y-81340000D03*
%TO.N,GND*%
X176790000Y-83880000D03*
X174250000Y-83880000D03*
X176790000Y-86420000D03*
%TO.N,CAN_o+*%
X174250000Y-86420000D03*
%TO.N,GND*%
X176790000Y-88960000D03*
%TO.N,CAN_o-*%
X174250000Y-88960000D03*
%TO.N,GND*%
X176790000Y-91500000D03*
X174250000Y-91500000D03*
%TD*%
D14*
%TO.N,Net-(Q2-D)*%
%TO.C,J3*%
X138250000Y-72750000D03*
D15*
%TO.N,GND*%
X132250000Y-72750000D03*
D16*
X131250000Y-77250000D03*
X131250000Y-68250000D03*
%TD*%
D17*
%TO.N,BAT*%
X139209768Y-65297244D03*
X145935100Y-61000000D03*
%TO.N,5VLOGIC*%
X138750000Y-91750000D03*
X132739007Y-101647071D03*
X144250000Y-81250000D03*
X135500000Y-65750000D03*
X133750000Y-102974614D03*
X132942280Y-102974614D03*
X137389008Y-101147071D03*
X137615435Y-90461643D03*
X138276861Y-89898295D03*
X165750000Y-107000000D03*
X138110709Y-90956917D03*
X162500000Y-87500000D03*
%TO.N,SWCLK*%
X147674089Y-91000000D03*
X150500000Y-102526904D03*
%TO.N,3.3V*%
X147500000Y-63300000D03*
X153866643Y-80175116D03*
X151174089Y-93099000D03*
X164750001Y-67500000D03*
X143586589Y-94662500D03*
X164771559Y-90603945D03*
X145750000Y-98000000D03*
X162000000Y-105250000D03*
X154250000Y-102526904D03*
X145424089Y-86250000D03*
X156400000Y-91650000D03*
X145000000Y-100250000D03*
%TO.N,Net-(U1-PB1)*%
X161000000Y-61500000D03*
X153000000Y-91000000D03*
X155657519Y-82750000D03*
%TO.N,SWDIO*%
X149424089Y-90000000D03*
X151750000Y-102026904D03*
%TO.N,NRST*%
X150049089Y-94375000D03*
X153000000Y-102526904D03*
%TO.N,Net-(U5-SW)*%
X138026861Y-85148295D03*
X142045696Y-87152694D03*
%TO.N,GND*%
X133047340Y-97153935D03*
X150209620Y-68540380D03*
X162414981Y-108097426D03*
X163250000Y-89000000D03*
X130797340Y-65569752D03*
X175356828Y-65500000D03*
X170250000Y-101250000D03*
X139250000Y-76983387D03*
X177000000Y-65500000D03*
X164616643Y-80000000D03*
X128985929Y-94545799D03*
X166404073Y-86600158D03*
X145206874Y-75789622D03*
X153000000Y-93750000D03*
X153375000Y-81707386D03*
X138739007Y-107647071D03*
X158250000Y-101250000D03*
X165623001Y-66745046D03*
X173200000Y-67100000D03*
X137250000Y-64000000D03*
X157750000Y-90000000D03*
D18*
X149886159Y-74605995D03*
D17*
X135739007Y-107647071D03*
X142014366Y-106567937D03*
X139250000Y-67250000D03*
D18*
X149230525Y-74593013D03*
D17*
X150816628Y-100843871D03*
X150000000Y-60800000D03*
X170625000Y-87707386D03*
X173718464Y-95285223D03*
X164005940Y-76007558D03*
X155000000Y-76515116D03*
X143162818Y-90937463D03*
X161755940Y-76007558D03*
X144450934Y-75047180D03*
X150323331Y-65590576D03*
X153060637Y-65393198D03*
X155000000Y-75765116D03*
X140250000Y-72500000D03*
X159505940Y-76007558D03*
X148924089Y-91250000D03*
X160000000Y-98250000D03*
X148674089Y-101000000D03*
X176912093Y-60623129D03*
X145014366Y-106567937D03*
X162505940Y-75257558D03*
X134007414Y-105836118D03*
X156250000Y-75772674D03*
X149212985Y-64682645D03*
X150000000Y-107526904D03*
D18*
X147493098Y-74863280D03*
D17*
X144450934Y-75797180D03*
X157750000Y-75022674D03*
D18*
X150846980Y-77915223D03*
D17*
X173640571Y-64732006D03*
X141027307Y-86014023D03*
X140460165Y-83111612D03*
X154244060Y-76522674D03*
X171250000Y-69250000D03*
X160150000Y-65500000D03*
X160750000Y-84000000D03*
X148750000Y-83500000D03*
X156255940Y-76515116D03*
X168498291Y-67390179D03*
X164000000Y-75265116D03*
X129298106Y-89300328D03*
X132406769Y-61421929D03*
X160261880Y-76000000D03*
X156895178Y-65409109D03*
X156000000Y-107500000D03*
X161000000Y-75265116D03*
X169500000Y-78250000D03*
D18*
X146750000Y-75015116D03*
X148680958Y-74571124D03*
D17*
X132328876Y-64868712D03*
D18*
X152400426Y-78629523D03*
D17*
X127867665Y-90496624D03*
D18*
X152848522Y-78629523D03*
D17*
X140277307Y-86014023D03*
X159000000Y-60500000D03*
X155000000Y-77265116D03*
X143750000Y-100500000D03*
X162511880Y-76000000D03*
X163255940Y-76007558D03*
X130690512Y-60653935D03*
X173000000Y-63000000D03*
X175356828Y-99500000D03*
X144750000Y-88750000D03*
X139931008Y-74272539D03*
X145206874Y-76539622D03*
X163250000Y-75265116D03*
X132328876Y-98868712D03*
X175250000Y-60584183D03*
X155000000Y-98500000D03*
X154244060Y-77272674D03*
X146014366Y-106567937D03*
X175250000Y-94584183D03*
X140250000Y-91750000D03*
X176912093Y-94623129D03*
X154250000Y-78015116D03*
X161750000Y-75265116D03*
X144621796Y-89782634D03*
X130898274Y-105900690D03*
X132823590Y-105728498D03*
X129047340Y-60653935D03*
X157125000Y-81707386D03*
X134750000Y-66750000D03*
X159500000Y-75265116D03*
X127867665Y-89746624D03*
X147750000Y-86164214D03*
X154500000Y-83750000D03*
X157750000Y-75772674D03*
X157750000Y-74272674D03*
X160255940Y-75257558D03*
X130750000Y-94653935D03*
X157755940Y-76515116D03*
X154339172Y-65402307D03*
X130797340Y-99569752D03*
X157979581Y-92375000D03*
X157005940Y-75765116D03*
X132406769Y-95421929D03*
X147622375Y-97206481D03*
D18*
X147224234Y-78790881D03*
D17*
X144339805Y-78250000D03*
X144500000Y-85500000D03*
X133500000Y-89500000D03*
X145950934Y-75797180D03*
X154237122Y-87750000D03*
X150988886Y-94250000D03*
X157924089Y-90750000D03*
X135250000Y-98750000D03*
X133047340Y-63153935D03*
X152924089Y-89500000D03*
X165500000Y-100500000D03*
X145950934Y-76547180D03*
X142500000Y-101250000D03*
X140466834Y-82294915D03*
X144528893Y-86878889D03*
X153500000Y-100250000D03*
X157005940Y-74265116D03*
X144750000Y-97250000D03*
X151661392Y-83876661D03*
D18*
X148469934Y-78781372D03*
D17*
X144450934Y-76547180D03*
X139700000Y-60800000D03*
X150742329Y-69696221D03*
X145950934Y-75047180D03*
X127000000Y-90500000D03*
X173000000Y-97000000D03*
X147000027Y-100870479D03*
X134239007Y-107647071D03*
X139527307Y-86014023D03*
X133500000Y-82500000D03*
X147924089Y-93500000D03*
X155005940Y-78007558D03*
X147251956Y-68050000D03*
X173718464Y-61285223D03*
X157005940Y-75015116D03*
X147250000Y-102750000D03*
X145250000Y-83750000D03*
X133705405Y-101733625D03*
X127000000Y-89750000D03*
X141250000Y-91000000D03*
X161005940Y-76007558D03*
X141277307Y-88152694D03*
X145206874Y-75039622D03*
D18*
X150337752Y-77920419D03*
D17*
X144000000Y-79750000D03*
X138000000Y-78000000D03*
X152174089Y-91750000D03*
X149875000Y-81707386D03*
X142650000Y-80893939D03*
X156250000Y-74272674D03*
X155500000Y-102776904D03*
X156250000Y-75022674D03*
X157000000Y-105000000D03*
D18*
X147851838Y-78781372D03*
D17*
X137239007Y-107647071D03*
X173640571Y-98732006D03*
X154261671Y-79479446D03*
X155616643Y-65400000D03*
X143014366Y-106567937D03*
X139589627Y-90111405D03*
X136750000Y-79250000D03*
X139931008Y-75736083D03*
X163000000Y-66000000D03*
X129135247Y-65530806D03*
X133500000Y-84000000D03*
X177000000Y-99500000D03*
X129135247Y-99530806D03*
X157011880Y-76507558D03*
X154244060Y-75772674D03*
X159875000Y-90707386D03*
%TO.N,Fault1*%
X143000967Y-85361612D03*
X156000000Y-93000000D03*
X148604930Y-68902403D03*
X172250000Y-103250000D03*
%TO.N,Fault2*%
X159500000Y-79183109D03*
X170000001Y-68150000D03*
X169000000Y-103250000D03*
%TO.N,Sense1*%
X172710932Y-106487995D03*
X154500000Y-95500000D03*
X148616643Y-65866643D03*
%TO.N,Sense2*%
X156250000Y-94750000D03*
X166750001Y-68150000D03*
X169000000Y-108250000D03*
%TO.N,5VSERVO_S*%
X167457491Y-100957491D03*
X151466643Y-80799265D03*
X167750000Y-74000000D03*
X165000000Y-72265116D03*
%TO.N,pwr*%
X144750000Y-72515116D03*
X143710165Y-84111612D03*
X136789499Y-80998468D03*
X147500000Y-80765116D03*
%TO.N,pwr_s*%
X129850526Y-91897789D03*
X130850526Y-91897789D03*
X129850526Y-90897789D03*
X145383357Y-64500000D03*
X144633357Y-64000000D03*
X145250000Y-63500000D03*
X146000000Y-64000000D03*
X130850526Y-90897789D03*
%TO.N,Net-(U2-VCC)*%
X133375639Y-100783702D03*
X137739007Y-106647071D03*
%TD*%
%TA.AperFunction,Conductor*%
%TO.N,GND*%
G36*
X176316619Y-89156081D02*
G01*
X176383498Y-89271920D01*
X176478080Y-89366502D01*
X176593919Y-89433381D01*
X176654057Y-89449494D01*
X176091283Y-90012268D01*
X176091283Y-90012269D01*
X176128567Y-90039358D01*
X176285882Y-90119515D01*
X176336678Y-90167490D01*
X176353473Y-90235311D01*
X176330935Y-90301446D01*
X176285882Y-90340485D01*
X176128564Y-90420643D01*
X176091283Y-90447729D01*
X176091282Y-90447730D01*
X176654058Y-91010504D01*
X176593919Y-91026619D01*
X176478080Y-91093498D01*
X176383498Y-91188080D01*
X176316619Y-91303919D01*
X176300504Y-91364057D01*
X175737730Y-90801282D01*
X175737729Y-90801283D01*
X175710643Y-90838564D01*
X175630485Y-90995882D01*
X175582510Y-91046678D01*
X175514689Y-91063473D01*
X175448554Y-91040935D01*
X175409515Y-90995882D01*
X175329358Y-90838567D01*
X175302268Y-90801283D01*
X174739494Y-91364057D01*
X174723381Y-91303919D01*
X174656502Y-91188080D01*
X174561920Y-91093498D01*
X174446081Y-91026619D01*
X174385942Y-91010504D01*
X174948716Y-90447731D01*
X174948715Y-90447730D01*
X174911432Y-90420641D01*
X174754668Y-90340765D01*
X174703872Y-90292790D01*
X174687077Y-90224969D01*
X174709615Y-90158834D01*
X174754667Y-90119796D01*
X174911694Y-90039787D01*
X175072464Y-89922981D01*
X175212981Y-89782464D01*
X175329787Y-89621694D01*
X175409796Y-89464667D01*
X175457769Y-89413872D01*
X175525590Y-89397077D01*
X175591725Y-89419614D01*
X175630765Y-89464668D01*
X175710641Y-89621432D01*
X175737730Y-89658715D01*
X176300504Y-89095941D01*
X176316619Y-89156081D01*
G37*
%TD.AperFunction*%
%TA.AperFunction,Conductor*%
G36*
X176316619Y-86616081D02*
G01*
X176383498Y-86731920D01*
X176478080Y-86826502D01*
X176593919Y-86893381D01*
X176654057Y-86909494D01*
X176091283Y-87472268D01*
X176091283Y-87472269D01*
X176128567Y-87499358D01*
X176285882Y-87579515D01*
X176336678Y-87627490D01*
X176353473Y-87695311D01*
X176330935Y-87761446D01*
X176285882Y-87800485D01*
X176128564Y-87880643D01*
X176091283Y-87907729D01*
X176091282Y-87907730D01*
X176654058Y-88470504D01*
X176593919Y-88486619D01*
X176478080Y-88553498D01*
X176383498Y-88648080D01*
X176316619Y-88763919D01*
X176300504Y-88824057D01*
X175737730Y-88261282D01*
X175737729Y-88261283D01*
X175710641Y-88298566D01*
X175630764Y-88455332D01*
X175582790Y-88506127D01*
X175514969Y-88522922D01*
X175448834Y-88500384D01*
X175409796Y-88455332D01*
X175329787Y-88298306D01*
X175212981Y-88137536D01*
X175072464Y-87997019D01*
X174911694Y-87880213D01*
X174755218Y-87800484D01*
X174704423Y-87752510D01*
X174687628Y-87684689D01*
X174710165Y-87618554D01*
X174755218Y-87579515D01*
X174911694Y-87499787D01*
X175072464Y-87382981D01*
X175212981Y-87242464D01*
X175329787Y-87081694D01*
X175409796Y-86924667D01*
X175457769Y-86873872D01*
X175525590Y-86857077D01*
X175591725Y-86879614D01*
X175630765Y-86924668D01*
X175710641Y-87081432D01*
X175737730Y-87118715D01*
X176300504Y-86555941D01*
X176316619Y-86616081D01*
G37*
%TD.AperFunction*%
%TA.AperFunction,Conductor*%
G36*
X176316619Y-84076081D02*
G01*
X176383498Y-84191920D01*
X176478080Y-84286502D01*
X176593919Y-84353381D01*
X176654057Y-84369494D01*
X176091283Y-84932268D01*
X176091283Y-84932269D01*
X176128567Y-84959358D01*
X176285882Y-85039515D01*
X176336678Y-85087490D01*
X176353473Y-85155311D01*
X176330935Y-85221446D01*
X176285882Y-85260485D01*
X176128564Y-85340643D01*
X176091283Y-85367729D01*
X176091282Y-85367730D01*
X176654058Y-85930504D01*
X176593919Y-85946619D01*
X176478080Y-86013498D01*
X176383498Y-86108080D01*
X176316619Y-86223919D01*
X176300504Y-86284057D01*
X175737730Y-85721282D01*
X175737729Y-85721283D01*
X175710641Y-85758566D01*
X175630764Y-85915332D01*
X175582790Y-85966127D01*
X175514969Y-85982922D01*
X175448834Y-85960384D01*
X175409796Y-85915332D01*
X175329787Y-85758306D01*
X175212981Y-85597536D01*
X175072464Y-85457019D01*
X174911694Y-85340213D01*
X174754667Y-85260203D01*
X174703872Y-85212229D01*
X174687077Y-85144408D01*
X174709614Y-85078273D01*
X174754669Y-85039234D01*
X174911422Y-84959364D01*
X174948716Y-84932268D01*
X174385942Y-84369494D01*
X174446081Y-84353381D01*
X174561920Y-84286502D01*
X174656502Y-84191920D01*
X174723381Y-84076081D01*
X174739495Y-84015942D01*
X175302268Y-84578715D01*
X175329362Y-84541425D01*
X175409515Y-84384117D01*
X175457489Y-84333321D01*
X175525310Y-84316526D01*
X175591445Y-84339063D01*
X175630485Y-84384117D01*
X175710641Y-84541432D01*
X175737730Y-84578715D01*
X176300504Y-84015941D01*
X176316619Y-84076081D01*
G37*
%TD.AperFunction*%
%TA.AperFunction,Conductor*%
G36*
X175591446Y-81800165D02*
G01*
X175630484Y-81845218D01*
X175710213Y-82001694D01*
X175827019Y-82162464D01*
X175967536Y-82302981D01*
X176128306Y-82419787D01*
X176285332Y-82499796D01*
X176336127Y-82547769D01*
X176352922Y-82615590D01*
X176330385Y-82681725D01*
X176285332Y-82720764D01*
X176128566Y-82800641D01*
X176091283Y-82827729D01*
X176091282Y-82827730D01*
X176654058Y-83390504D01*
X176593919Y-83406619D01*
X176478080Y-83473498D01*
X176383498Y-83568080D01*
X176316619Y-83683919D01*
X176300504Y-83744057D01*
X175737730Y-83181282D01*
X175737729Y-83181283D01*
X175710643Y-83218564D01*
X175630485Y-83375882D01*
X175582510Y-83426678D01*
X175514689Y-83443473D01*
X175448554Y-83420935D01*
X175409515Y-83375882D01*
X175329358Y-83218567D01*
X175302268Y-83181283D01*
X174739494Y-83744057D01*
X174723381Y-83683919D01*
X174656502Y-83568080D01*
X174561920Y-83473498D01*
X174446081Y-83406619D01*
X174385942Y-83390504D01*
X174948716Y-82827731D01*
X174948715Y-82827730D01*
X174911432Y-82800641D01*
X174754668Y-82720765D01*
X174703872Y-82672790D01*
X174687077Y-82604969D01*
X174709615Y-82538834D01*
X174754667Y-82499796D01*
X174911694Y-82419787D01*
X175072464Y-82302981D01*
X175212981Y-82162464D01*
X175329787Y-82001694D01*
X175409515Y-81845218D01*
X175457490Y-81794423D01*
X175525311Y-81777628D01*
X175591446Y-81800165D01*
G37*
%TD.AperFunction*%
%TA.AperFunction,Conductor*%
G36*
X176316619Y-78996081D02*
G01*
X176383498Y-79111920D01*
X176478080Y-79206502D01*
X176593919Y-79273381D01*
X176654057Y-79289494D01*
X176091283Y-79852268D01*
X176091283Y-79852269D01*
X176128567Y-79879358D01*
X176285331Y-79959234D01*
X176336127Y-80007209D01*
X176352922Y-80075030D01*
X176330384Y-80141165D01*
X176285331Y-80180204D01*
X176128305Y-80260213D01*
X175967533Y-80377021D01*
X175827021Y-80517533D01*
X175710213Y-80678305D01*
X175630485Y-80834780D01*
X175582510Y-80885576D01*
X175514689Y-80902371D01*
X175448554Y-80879833D01*
X175409515Y-80834780D01*
X175365845Y-80749074D01*
X175329787Y-80678306D01*
X175212981Y-80517536D01*
X175072464Y-80377019D01*
X174911694Y-80260213D01*
X174754667Y-80180203D01*
X174703872Y-80132229D01*
X174687077Y-80064408D01*
X174709614Y-79998273D01*
X174754669Y-79959234D01*
X174911422Y-79879364D01*
X174948716Y-79852268D01*
X174385942Y-79289494D01*
X174446081Y-79273381D01*
X174561920Y-79206502D01*
X174656502Y-79111920D01*
X174723381Y-78996081D01*
X174739495Y-78935942D01*
X175302268Y-79498715D01*
X175329362Y-79461425D01*
X175409515Y-79304117D01*
X175457489Y-79253321D01*
X175525310Y-79236526D01*
X175591445Y-79259063D01*
X175630485Y-79304117D01*
X175710641Y-79461432D01*
X175737730Y-79498715D01*
X176300504Y-78935941D01*
X176316619Y-78996081D01*
G37*
%TD.AperFunction*%
%TA.AperFunction,Conductor*%
G36*
X175591446Y-76720165D02*
G01*
X175630484Y-76765218D01*
X175710213Y-76921694D01*
X175827019Y-77082464D01*
X175967536Y-77222981D01*
X176128306Y-77339787D01*
X176285332Y-77419796D01*
X176336127Y-77467769D01*
X176352922Y-77535590D01*
X176330385Y-77601725D01*
X176285332Y-77640764D01*
X176128566Y-77720641D01*
X176091283Y-77747729D01*
X176091282Y-77747730D01*
X176654058Y-78310504D01*
X176593919Y-78326619D01*
X176478080Y-78393498D01*
X176383498Y-78488080D01*
X176316619Y-78603919D01*
X176300504Y-78664057D01*
X175737730Y-78101282D01*
X175737729Y-78101283D01*
X175710643Y-78138564D01*
X175630485Y-78295882D01*
X175582510Y-78346678D01*
X175514689Y-78363473D01*
X175448554Y-78340935D01*
X175409515Y-78295882D01*
X175329358Y-78138567D01*
X175302268Y-78101283D01*
X174739494Y-78664057D01*
X174723381Y-78603919D01*
X174656502Y-78488080D01*
X174561920Y-78393498D01*
X174446081Y-78326619D01*
X174385942Y-78310504D01*
X174948716Y-77747731D01*
X174948715Y-77747730D01*
X174911432Y-77720641D01*
X174754668Y-77640765D01*
X174703872Y-77592790D01*
X174687077Y-77524969D01*
X174709615Y-77458834D01*
X174754667Y-77419796D01*
X174911694Y-77339787D01*
X175072464Y-77222981D01*
X175212981Y-77082464D01*
X175329787Y-76921694D01*
X175409515Y-76765218D01*
X175457490Y-76714423D01*
X175525311Y-76697628D01*
X175591446Y-76720165D01*
G37*
%TD.AperFunction*%
%TA.AperFunction,Conductor*%
G36*
X175302268Y-69338715D02*
G01*
X175303683Y-69336769D01*
X175359013Y-69294104D01*
X175428627Y-69288126D01*
X175490421Y-69320733D01*
X175524778Y-69381572D01*
X175528000Y-69409656D01*
X175528000Y-69449844D01*
X175534401Y-69509372D01*
X175534403Y-69509379D01*
X175584645Y-69644086D01*
X175584649Y-69644093D01*
X175670809Y-69759187D01*
X175670812Y-69759190D01*
X175785906Y-69845350D01*
X175785913Y-69845354D01*
X175920620Y-69895596D01*
X175920627Y-69895598D01*
X175980155Y-69901999D01*
X175980172Y-69902000D01*
X176019490Y-69902000D01*
X176086529Y-69921685D01*
X176132284Y-69974489D01*
X176142228Y-70043647D01*
X176113203Y-70107203D01*
X176092375Y-70126318D01*
X175967539Y-70217016D01*
X175967533Y-70217021D01*
X175827021Y-70357533D01*
X175710213Y-70518305D01*
X175630485Y-70674780D01*
X175582510Y-70725576D01*
X175514689Y-70742371D01*
X175448554Y-70719833D01*
X175409515Y-70674780D01*
X175329786Y-70518305D01*
X175212981Y-70357536D01*
X175072464Y-70217019D01*
X174911694Y-70100213D01*
X174754667Y-70020203D01*
X174703872Y-69972229D01*
X174687077Y-69904408D01*
X174709614Y-69838273D01*
X174754669Y-69799234D01*
X174911422Y-69719364D01*
X174948716Y-69692268D01*
X174385942Y-69129494D01*
X174446081Y-69113381D01*
X174561920Y-69046502D01*
X174656502Y-68951920D01*
X174723381Y-68836081D01*
X174739495Y-68775942D01*
X175302268Y-69338715D01*
G37*
%TD.AperFunction*%
%TA.AperFunction,Conductor*%
G36*
X182440218Y-50590185D02*
G01*
X182485973Y-50642989D01*
X182497179Y-50694500D01*
X182497179Y-60874937D01*
X182477494Y-60941976D01*
X182424690Y-60987731D01*
X182373179Y-60998937D01*
X175571436Y-60998937D01*
X175571184Y-60998863D01*
X175520000Y-60998863D01*
X175382324Y-60998863D01*
X175382318Y-60998863D01*
X175382314Y-60998864D01*
X175109336Y-61034802D01*
X175109329Y-61034803D01*
X175109326Y-61034804D01*
X174944958Y-61078846D01*
X174843356Y-61106070D01*
X174843346Y-61106073D01*
X174588966Y-61211441D01*
X174588955Y-61211446D01*
X174350507Y-61349115D01*
X174350491Y-61349126D01*
X174132049Y-61516742D01*
X174132042Y-61516748D01*
X173937348Y-61711442D01*
X173937342Y-61711449D01*
X173769726Y-61929891D01*
X173769715Y-61929907D01*
X173632046Y-62168355D01*
X173632041Y-62168366D01*
X173526673Y-62422746D01*
X173526670Y-62422756D01*
X173458222Y-62678211D01*
X173455405Y-62688723D01*
X173455402Y-62688736D01*
X173419464Y-62961714D01*
X173419463Y-62961730D01*
X173419463Y-63237069D01*
X173419464Y-63237085D01*
X173455402Y-63510063D01*
X173455403Y-63510068D01*
X173455404Y-63510074D01*
X173526670Y-63776043D01*
X173526673Y-63776053D01*
X173632041Y-64030433D01*
X173632046Y-64030444D01*
X173769715Y-64268892D01*
X173769726Y-64268908D01*
X173937342Y-64487350D01*
X173937348Y-64487357D01*
X174132042Y-64682051D01*
X174132049Y-64682057D01*
X174246315Y-64769736D01*
X174350500Y-64849680D01*
X174354532Y-64852008D01*
X174588955Y-64987353D01*
X174588960Y-64987355D01*
X174588963Y-64987357D01*
X174843356Y-65092730D01*
X175109326Y-65163996D01*
X175382324Y-65199937D01*
X175454108Y-65199937D01*
X182373179Y-65199937D01*
X182440218Y-65219622D01*
X182485973Y-65272426D01*
X182497179Y-65323937D01*
X182497179Y-94816063D01*
X182477494Y-94883102D01*
X182424690Y-94928857D01*
X182373179Y-94940063D01*
X175446543Y-94940063D01*
X175445414Y-94940137D01*
X175382327Y-94940137D01*
X175109351Y-94976074D01*
X175109344Y-94976075D01*
X175109341Y-94976076D01*
X175053134Y-94991136D01*
X174843381Y-95047339D01*
X174589002Y-95152706D01*
X174588992Y-95152711D01*
X174350540Y-95290380D01*
X174132096Y-95458000D01*
X173937400Y-95652696D01*
X173769780Y-95871140D01*
X173632111Y-96109592D01*
X173632106Y-96109602D01*
X173526739Y-96363981D01*
X173455477Y-96629938D01*
X173455474Y-96629951D01*
X173419537Y-96902927D01*
X173419537Y-97178272D01*
X173455474Y-97451248D01*
X173455475Y-97451253D01*
X173455476Y-97451259D01*
X173476755Y-97530673D01*
X173526739Y-97717218D01*
X173632106Y-97971597D01*
X173632111Y-97971607D01*
X173769780Y-98210059D01*
X173937400Y-98428503D01*
X173937408Y-98428512D01*
X174132088Y-98623192D01*
X174132096Y-98623199D01*
X174350540Y-98790819D01*
X174588992Y-98928488D01*
X174589002Y-98928493D01*
X174729950Y-98986875D01*
X174843380Y-99033860D01*
X175109341Y-99105124D01*
X175302137Y-99130505D01*
X175382327Y-99141063D01*
X175382328Y-99141063D01*
X175454108Y-99141063D01*
X182373179Y-99141063D01*
X182440218Y-99160748D01*
X182485973Y-99213552D01*
X182497179Y-99265063D01*
X182497179Y-109445500D01*
X182477494Y-109512539D01*
X182424690Y-109558294D01*
X182373179Y-109569500D01*
X123622179Y-109569500D01*
X123555140Y-109549815D01*
X123509385Y-109497011D01*
X123498179Y-109445500D01*
X123498179Y-108171153D01*
X168199500Y-108171153D01*
X168199500Y-108328846D01*
X168230261Y-108483489D01*
X168230264Y-108483501D01*
X168290602Y-108629172D01*
X168290609Y-108629185D01*
X168378210Y-108760288D01*
X168378213Y-108760292D01*
X168489707Y-108871786D01*
X168489711Y-108871789D01*
X168620814Y-108959390D01*
X168620827Y-108959397D01*
X168766498Y-109019735D01*
X168766503Y-109019737D01*
X168921153Y-109050499D01*
X168921156Y-109050500D01*
X168921158Y-109050500D01*
X169078844Y-109050500D01*
X169078845Y-109050499D01*
X169233497Y-109019737D01*
X169379179Y-108959394D01*
X169510289Y-108871789D01*
X169621789Y-108760289D01*
X169709394Y-108629179D01*
X169769737Y-108483497D01*
X169800500Y-108328842D01*
X169800500Y-108171158D01*
X169800500Y-108171155D01*
X169800499Y-108171153D01*
X169769738Y-108016510D01*
X169769737Y-108016503D01*
X169769735Y-108016498D01*
X169709397Y-107870827D01*
X169709390Y-107870814D01*
X169621789Y-107739711D01*
X169621786Y-107739707D01*
X169510292Y-107628213D01*
X169510288Y-107628210D01*
X169379185Y-107540609D01*
X169379172Y-107540602D01*
X169233501Y-107480264D01*
X169233489Y-107480261D01*
X169078845Y-107449500D01*
X169078842Y-107449500D01*
X168921158Y-107449500D01*
X168921155Y-107449500D01*
X168766510Y-107480261D01*
X168766498Y-107480264D01*
X168620827Y-107540602D01*
X168620814Y-107540609D01*
X168489711Y-107628210D01*
X168489707Y-107628213D01*
X168378213Y-107739707D01*
X168378210Y-107739711D01*
X168290609Y-107870814D01*
X168290602Y-107870827D01*
X168230264Y-108016498D01*
X168230261Y-108016510D01*
X168199500Y-108171153D01*
X123498179Y-108171153D01*
X123498179Y-106568224D01*
X136938507Y-106568224D01*
X136938507Y-106725917D01*
X136969268Y-106880560D01*
X136969271Y-106880572D01*
X137029609Y-107026243D01*
X137029616Y-107026256D01*
X137117217Y-107157359D01*
X137117220Y-107157363D01*
X137228714Y-107268857D01*
X137228718Y-107268860D01*
X137359821Y-107356461D01*
X137359834Y-107356468D01*
X137414679Y-107379185D01*
X137505510Y-107416808D01*
X137660160Y-107447570D01*
X137660163Y-107447571D01*
X137660165Y-107447571D01*
X137817851Y-107447571D01*
X137817852Y-107447570D01*
X137972504Y-107416808D01*
X138118186Y-107356465D01*
X138249296Y-107268860D01*
X138360796Y-107157360D01*
X138448401Y-107026250D01*
X138491933Y-106921153D01*
X164949500Y-106921153D01*
X164949500Y-107078846D01*
X164980261Y-107233489D01*
X164980264Y-107233501D01*
X165040602Y-107379172D01*
X165040609Y-107379185D01*
X165128210Y-107510288D01*
X165128213Y-107510292D01*
X165239707Y-107621786D01*
X165239711Y-107621789D01*
X165370814Y-107709390D01*
X165370827Y-107709397D01*
X165444013Y-107739711D01*
X165516503Y-107769737D01*
X165671153Y-107800499D01*
X165671156Y-107800500D01*
X165671158Y-107800500D01*
X165828844Y-107800500D01*
X165828845Y-107800499D01*
X165983497Y-107769737D01*
X166129179Y-107709394D01*
X166260289Y-107621789D01*
X166371789Y-107510289D01*
X166459394Y-107379179D01*
X166519737Y-107233497D01*
X166550500Y-107078842D01*
X166550500Y-106921158D01*
X166550500Y-106921155D01*
X166550499Y-106921153D01*
X166542425Y-106880562D01*
X166519737Y-106766503D01*
X166501090Y-106721484D01*
X166459397Y-106620827D01*
X166459390Y-106620814D01*
X166371789Y-106489711D01*
X166371786Y-106489707D01*
X166291227Y-106409148D01*
X171910432Y-106409148D01*
X171910432Y-106566841D01*
X171941193Y-106721484D01*
X171941196Y-106721496D01*
X172001534Y-106867167D01*
X172001541Y-106867180D01*
X172089142Y-106998283D01*
X172089145Y-106998287D01*
X172200639Y-107109781D01*
X172200643Y-107109784D01*
X172331746Y-107197385D01*
X172331759Y-107197392D01*
X172477430Y-107257730D01*
X172477435Y-107257732D01*
X172632085Y-107288494D01*
X172632088Y-107288495D01*
X172632090Y-107288495D01*
X172789776Y-107288495D01*
X172789777Y-107288494D01*
X172944429Y-107257732D01*
X173090111Y-107197389D01*
X173221221Y-107109784D01*
X173332721Y-106998284D01*
X173420326Y-106867174D01*
X173480669Y-106721492D01*
X173511432Y-106566837D01*
X173511432Y-106409153D01*
X173511432Y-106409150D01*
X173511431Y-106409148D01*
X173487851Y-106290606D01*
X173480669Y-106254498D01*
X173431910Y-106136782D01*
X173420329Y-106108822D01*
X173420322Y-106108809D01*
X173332721Y-105977706D01*
X173332718Y-105977702D01*
X173221224Y-105866208D01*
X173221220Y-105866205D01*
X173090117Y-105778604D01*
X173090104Y-105778597D01*
X172944433Y-105718259D01*
X172944421Y-105718256D01*
X172789777Y-105687495D01*
X172789774Y-105687495D01*
X172632090Y-105687495D01*
X172632087Y-105687495D01*
X172477442Y-105718256D01*
X172477430Y-105718259D01*
X172331759Y-105778597D01*
X172331746Y-105778604D01*
X172200643Y-105866205D01*
X172200639Y-105866208D01*
X172089145Y-105977702D01*
X172089142Y-105977706D01*
X172001541Y-106108809D01*
X172001534Y-106108822D01*
X171941196Y-106254493D01*
X171941193Y-106254505D01*
X171910432Y-106409148D01*
X166291227Y-106409148D01*
X166260292Y-106378213D01*
X166260288Y-106378210D01*
X166129185Y-106290609D01*
X166129172Y-106290602D01*
X165983501Y-106230264D01*
X165983489Y-106230261D01*
X165828845Y-106199500D01*
X165828842Y-106199500D01*
X165671158Y-106199500D01*
X165671155Y-106199500D01*
X165516510Y-106230261D01*
X165516498Y-106230264D01*
X165370827Y-106290602D01*
X165370814Y-106290609D01*
X165239711Y-106378210D01*
X165239707Y-106378213D01*
X165128213Y-106489707D01*
X165128210Y-106489711D01*
X165040609Y-106620814D01*
X165040602Y-106620827D01*
X164980264Y-106766498D01*
X164980261Y-106766510D01*
X164949500Y-106921153D01*
X138491933Y-106921153D01*
X138508744Y-106880568D01*
X138539507Y-106725913D01*
X138539507Y-106568229D01*
X138539507Y-106568226D01*
X138539506Y-106568224D01*
X138539230Y-106566837D01*
X138508744Y-106413574D01*
X138457811Y-106290609D01*
X138448404Y-106267898D01*
X138448397Y-106267885D01*
X138360796Y-106136782D01*
X138360793Y-106136778D01*
X138249299Y-106025284D01*
X138249295Y-106025281D01*
X138118192Y-105937680D01*
X138118179Y-105937673D01*
X137972508Y-105877335D01*
X137972496Y-105877332D01*
X137817852Y-105846571D01*
X137817849Y-105846571D01*
X137660165Y-105846571D01*
X137660162Y-105846571D01*
X137505517Y-105877332D01*
X137505505Y-105877335D01*
X137359834Y-105937673D01*
X137359821Y-105937680D01*
X137228718Y-106025281D01*
X137228714Y-106025284D01*
X137117220Y-106136778D01*
X137117217Y-106136782D01*
X137029616Y-106267885D01*
X137029609Y-106267898D01*
X136969271Y-106413569D01*
X136969268Y-106413581D01*
X136938507Y-106568224D01*
X123498179Y-106568224D01*
X123498179Y-105171153D01*
X161199500Y-105171153D01*
X161199500Y-105328846D01*
X161230261Y-105483489D01*
X161230264Y-105483501D01*
X161290602Y-105629172D01*
X161290609Y-105629185D01*
X161378210Y-105760288D01*
X161378213Y-105760292D01*
X161489707Y-105871786D01*
X161489711Y-105871789D01*
X161620814Y-105959390D01*
X161620827Y-105959397D01*
X161766498Y-106019735D01*
X161766503Y-106019737D01*
X161921153Y-106050499D01*
X161921156Y-106050500D01*
X161921158Y-106050500D01*
X162078844Y-106050500D01*
X162078845Y-106050499D01*
X162233497Y-106019737D01*
X162379179Y-105959394D01*
X162510289Y-105871789D01*
X162621789Y-105760289D01*
X162709394Y-105629179D01*
X162769737Y-105483497D01*
X162800500Y-105328842D01*
X162800500Y-105171158D01*
X162800500Y-105171155D01*
X162800499Y-105171153D01*
X162769738Y-105016510D01*
X162769737Y-105016503D01*
X162769735Y-105016498D01*
X162709397Y-104870827D01*
X162709390Y-104870814D01*
X162621789Y-104739711D01*
X162621786Y-104739707D01*
X162510292Y-104628213D01*
X162510288Y-104628210D01*
X162379185Y-104540609D01*
X162379172Y-104540602D01*
X162233501Y-104480264D01*
X162233489Y-104480261D01*
X162078845Y-104449500D01*
X162078842Y-104449500D01*
X161921158Y-104449500D01*
X161921155Y-104449500D01*
X161766510Y-104480261D01*
X161766498Y-104480264D01*
X161620827Y-104540602D01*
X161620814Y-104540609D01*
X161489711Y-104628210D01*
X161489707Y-104628213D01*
X161378213Y-104739707D01*
X161378210Y-104739711D01*
X161290609Y-104870814D01*
X161290602Y-104870827D01*
X161230264Y-105016498D01*
X161230261Y-105016510D01*
X161199500Y-105171153D01*
X123498179Y-105171153D01*
X123498179Y-101568224D01*
X131938507Y-101568224D01*
X131938507Y-101725917D01*
X131969268Y-101880560D01*
X131969271Y-101880572D01*
X132029609Y-102026243D01*
X132029616Y-102026256D01*
X132117217Y-102157359D01*
X132117220Y-102157363D01*
X132228715Y-102268858D01*
X132228718Y-102268860D01*
X132279355Y-102302695D01*
X132324159Y-102356305D01*
X132332868Y-102425630D01*
X132313566Y-102474686D01*
X132232892Y-102595423D01*
X132232882Y-102595441D01*
X132172544Y-102741112D01*
X132172541Y-102741124D01*
X132141780Y-102895767D01*
X132141780Y-103053460D01*
X132172541Y-103208103D01*
X132172544Y-103208115D01*
X132232882Y-103353786D01*
X132232889Y-103353799D01*
X132320490Y-103484902D01*
X132320493Y-103484906D01*
X132431987Y-103596400D01*
X132431991Y-103596403D01*
X132563094Y-103684004D01*
X132563107Y-103684011D01*
X132708778Y-103744349D01*
X132708783Y-103744351D01*
X132863433Y-103775113D01*
X132863436Y-103775114D01*
X132863438Y-103775114D01*
X133021124Y-103775114D01*
X133021125Y-103775113D01*
X133175777Y-103744351D01*
X133298688Y-103693439D01*
X133368157Y-103685971D01*
X133393589Y-103693439D01*
X133516503Y-103744351D01*
X133671153Y-103775113D01*
X133671156Y-103775114D01*
X133671158Y-103775114D01*
X133828844Y-103775114D01*
X133828845Y-103775113D01*
X133983497Y-103744351D01*
X134129179Y-103684008D01*
X134260289Y-103596403D01*
X134371789Y-103484903D01*
X134459394Y-103353793D01*
X134519737Y-103208111D01*
X134550500Y-103053456D01*
X134550500Y-102895772D01*
X134550500Y-102895769D01*
X134550499Y-102895767D01*
X134545537Y-102870821D01*
X134519737Y-102741117D01*
X134517741Y-102736298D01*
X134459397Y-102595441D01*
X134459390Y-102595428D01*
X134402884Y-102510861D01*
X134371789Y-102464325D01*
X134371786Y-102464321D01*
X134355522Y-102448057D01*
X149699500Y-102448057D01*
X149699500Y-102605750D01*
X149730261Y-102760393D01*
X149730264Y-102760405D01*
X149790602Y-102906076D01*
X149790609Y-102906089D01*
X149878210Y-103037192D01*
X149878213Y-103037196D01*
X149989707Y-103148690D01*
X149989711Y-103148693D01*
X150120814Y-103236294D01*
X150120827Y-103236301D01*
X150266498Y-103296639D01*
X150266503Y-103296641D01*
X150421153Y-103327403D01*
X150421156Y-103327404D01*
X150421158Y-103327404D01*
X150578844Y-103327404D01*
X150578845Y-103327403D01*
X150733497Y-103296641D01*
X150879179Y-103236298D01*
X151010289Y-103148693D01*
X151121789Y-103037193D01*
X151209394Y-102906083D01*
X151245610Y-102818647D01*
X151289449Y-102764248D01*
X151355743Y-102742182D01*
X151407622Y-102751542D01*
X151516498Y-102796639D01*
X151516503Y-102796641D01*
X151671153Y-102827403D01*
X151671156Y-102827404D01*
X151671158Y-102827404D01*
X151828844Y-102827404D01*
X151828845Y-102827403D01*
X151983497Y-102796641D01*
X152071008Y-102760393D01*
X152092377Y-102751542D01*
X152161846Y-102744073D01*
X152224325Y-102775348D01*
X152254390Y-102818650D01*
X152290604Y-102906080D01*
X152290609Y-102906089D01*
X152378210Y-103037192D01*
X152378213Y-103037196D01*
X152489707Y-103148690D01*
X152489711Y-103148693D01*
X152620814Y-103236294D01*
X152620827Y-103236301D01*
X152766498Y-103296639D01*
X152766503Y-103296641D01*
X152921153Y-103327403D01*
X152921156Y-103327404D01*
X152921158Y-103327404D01*
X153078844Y-103327404D01*
X153078845Y-103327403D01*
X153233497Y-103296641D01*
X153379179Y-103236298D01*
X153510289Y-103148693D01*
X153510292Y-103148690D01*
X153537319Y-103121664D01*
X153598642Y-103088179D01*
X153668334Y-103093163D01*
X153712681Y-103121664D01*
X153739707Y-103148690D01*
X153739711Y-103148693D01*
X153870814Y-103236294D01*
X153870827Y-103236301D01*
X154016498Y-103296639D01*
X154016503Y-103296641D01*
X154171153Y-103327403D01*
X154171156Y-103327404D01*
X154171158Y-103327404D01*
X154328844Y-103327404D01*
X154328845Y-103327403D01*
X154483497Y-103296641D01*
X154629179Y-103236298D01*
X154726675Y-103171153D01*
X168199500Y-103171153D01*
X168199500Y-103328846D01*
X168230261Y-103483489D01*
X168230264Y-103483501D01*
X168290602Y-103629172D01*
X168290609Y-103629185D01*
X168378210Y-103760288D01*
X168378213Y-103760292D01*
X168489707Y-103871786D01*
X168489711Y-103871789D01*
X168620814Y-103959390D01*
X168620827Y-103959397D01*
X168766498Y-104019735D01*
X168766503Y-104019737D01*
X168921153Y-104050499D01*
X168921156Y-104050500D01*
X168921158Y-104050500D01*
X169078844Y-104050500D01*
X169078845Y-104050499D01*
X169233497Y-104019737D01*
X169379179Y-103959394D01*
X169510289Y-103871789D01*
X169621789Y-103760289D01*
X169709394Y-103629179D01*
X169769737Y-103483497D01*
X169800500Y-103328842D01*
X169800500Y-103171158D01*
X169800500Y-103171155D01*
X169800499Y-103171153D01*
X171449500Y-103171153D01*
X171449500Y-103328846D01*
X171480261Y-103483489D01*
X171480264Y-103483501D01*
X171540602Y-103629172D01*
X171540609Y-103629185D01*
X171628210Y-103760288D01*
X171628213Y-103760292D01*
X171739707Y-103871786D01*
X171739711Y-103871789D01*
X171870814Y-103959390D01*
X171870827Y-103959397D01*
X172016498Y-104019735D01*
X172016503Y-104019737D01*
X172171153Y-104050499D01*
X172171156Y-104050500D01*
X172171158Y-104050500D01*
X172328844Y-104050500D01*
X172328845Y-104050499D01*
X172483497Y-104019737D01*
X172629179Y-103959394D01*
X172760289Y-103871789D01*
X172871789Y-103760289D01*
X172959394Y-103629179D01*
X173019737Y-103483497D01*
X173050500Y-103328842D01*
X173050500Y-103171158D01*
X173050500Y-103171155D01*
X173050499Y-103171153D01*
X173023853Y-103037196D01*
X173019737Y-103016503D01*
X173019735Y-103016498D01*
X172959397Y-102870827D01*
X172959390Y-102870814D01*
X172871789Y-102739711D01*
X172871786Y-102739707D01*
X172760292Y-102628213D01*
X172760288Y-102628210D01*
X172629185Y-102540609D01*
X172629172Y-102540602D01*
X172483501Y-102480264D01*
X172483489Y-102480261D01*
X172328845Y-102449500D01*
X172328842Y-102449500D01*
X172171158Y-102449500D01*
X172171155Y-102449500D01*
X172016510Y-102480261D01*
X172016498Y-102480264D01*
X171870827Y-102540602D01*
X171870814Y-102540609D01*
X171739711Y-102628210D01*
X171739707Y-102628213D01*
X171628213Y-102739707D01*
X171628210Y-102739711D01*
X171540609Y-102870814D01*
X171540602Y-102870827D01*
X171480264Y-103016498D01*
X171480261Y-103016510D01*
X171449500Y-103171153D01*
X169800499Y-103171153D01*
X169773853Y-103037196D01*
X169769737Y-103016503D01*
X169769735Y-103016498D01*
X169709397Y-102870827D01*
X169709390Y-102870814D01*
X169621789Y-102739711D01*
X169621786Y-102739707D01*
X169510292Y-102628213D01*
X169510288Y-102628210D01*
X169379185Y-102540609D01*
X169379172Y-102540602D01*
X169233501Y-102480264D01*
X169233489Y-102480261D01*
X169078845Y-102449500D01*
X169078842Y-102449500D01*
X168921158Y-102449500D01*
X168921155Y-102449500D01*
X168766510Y-102480261D01*
X168766498Y-102480264D01*
X168620827Y-102540602D01*
X168620814Y-102540609D01*
X168489711Y-102628210D01*
X168489707Y-102628213D01*
X168378213Y-102739707D01*
X168378210Y-102739711D01*
X168290609Y-102870814D01*
X168290602Y-102870827D01*
X168230264Y-103016498D01*
X168230261Y-103016510D01*
X168199500Y-103171153D01*
X154726675Y-103171153D01*
X154760289Y-103148693D01*
X154787318Y-103121664D01*
X154831598Y-103077385D01*
X154871786Y-103037196D01*
X154871789Y-103037193D01*
X154959394Y-102906083D01*
X155019737Y-102760401D01*
X155050500Y-102605746D01*
X155050500Y-102448062D01*
X155050500Y-102448059D01*
X155050499Y-102448057D01*
X155019738Y-102293414D01*
X155019737Y-102293407D01*
X155019735Y-102293402D01*
X154959397Y-102147731D01*
X154959390Y-102147718D01*
X154871789Y-102016615D01*
X154871786Y-102016611D01*
X154760292Y-101905117D01*
X154760288Y-101905114D01*
X154629185Y-101817513D01*
X154629172Y-101817506D01*
X154483501Y-101757168D01*
X154483489Y-101757165D01*
X154328845Y-101726404D01*
X154328842Y-101726404D01*
X154171158Y-101726404D01*
X154171155Y-101726404D01*
X154016510Y-101757165D01*
X154016498Y-101757168D01*
X153870827Y-101817506D01*
X153870814Y-101817513D01*
X153739711Y-101905114D01*
X153739707Y-101905117D01*
X153712681Y-101932144D01*
X153651358Y-101965629D01*
X153581666Y-101960645D01*
X153537319Y-101932144D01*
X153510292Y-101905117D01*
X153510288Y-101905114D01*
X153379185Y-101817513D01*
X153379172Y-101817506D01*
X153233501Y-101757168D01*
X153233489Y-101757165D01*
X153078845Y-101726404D01*
X153078842Y-101726404D01*
X152921158Y-101726404D01*
X152921155Y-101726404D01*
X152766510Y-101757165D01*
X152766498Y-101757168D01*
X152657622Y-101802266D01*
X152588153Y-101809735D01*
X152525674Y-101778459D01*
X152495611Y-101735161D01*
X152459394Y-101647725D01*
X152459392Y-101647722D01*
X152459390Y-101647718D01*
X152371789Y-101516615D01*
X152371786Y-101516611D01*
X152260292Y-101405117D01*
X152260288Y-101405114D01*
X152129185Y-101317513D01*
X152129172Y-101317506D01*
X151983501Y-101257168D01*
X151983489Y-101257165D01*
X151828845Y-101226404D01*
X151828842Y-101226404D01*
X151671158Y-101226404D01*
X151671155Y-101226404D01*
X151516510Y-101257165D01*
X151516498Y-101257168D01*
X151370827Y-101317506D01*
X151370814Y-101317513D01*
X151239711Y-101405114D01*
X151239707Y-101405117D01*
X151128213Y-101516611D01*
X151128210Y-101516615D01*
X151040609Y-101647718D01*
X151040604Y-101647727D01*
X151004390Y-101735158D01*
X150960549Y-101789561D01*
X150894255Y-101811626D01*
X150842377Y-101802266D01*
X150733501Y-101757168D01*
X150733489Y-101757165D01*
X150578845Y-101726404D01*
X150578842Y-101726404D01*
X150421158Y-101726404D01*
X150421155Y-101726404D01*
X150266510Y-101757165D01*
X150266498Y-101757168D01*
X150120827Y-101817506D01*
X150120814Y-101817513D01*
X149989711Y-101905114D01*
X149989707Y-101905117D01*
X149878213Y-102016611D01*
X149878210Y-102016615D01*
X149790609Y-102147718D01*
X149790602Y-102147731D01*
X149730264Y-102293402D01*
X149730261Y-102293414D01*
X149699500Y-102448057D01*
X134355522Y-102448057D01*
X134260292Y-102352827D01*
X134260288Y-102352824D01*
X134129185Y-102265223D01*
X134129172Y-102265216D01*
X133983501Y-102204878D01*
X133983489Y-102204875D01*
X133828845Y-102174114D01*
X133828842Y-102174114D01*
X133671158Y-102174114D01*
X133671153Y-102174114D01*
X133589183Y-102190419D01*
X133519591Y-102184192D01*
X133464414Y-102141329D01*
X133441170Y-102075439D01*
X133450431Y-102021350D01*
X133487381Y-101932144D01*
X133508744Y-101880568D01*
X133539507Y-101725913D01*
X133539507Y-101665133D01*
X133559192Y-101598094D01*
X133611996Y-101552339D01*
X133615977Y-101550605D01*
X133754818Y-101493096D01*
X133885928Y-101405491D01*
X133997428Y-101293991D01*
X134085033Y-101162881D01*
X134085036Y-101162874D01*
X134124241Y-101068224D01*
X136588508Y-101068224D01*
X136588508Y-101225917D01*
X136619269Y-101380560D01*
X136619272Y-101380572D01*
X136679610Y-101526243D01*
X136679617Y-101526256D01*
X136767218Y-101657359D01*
X136767221Y-101657363D01*
X136878715Y-101768857D01*
X136878719Y-101768860D01*
X137009822Y-101856461D01*
X137009835Y-101856468D01*
X137127279Y-101905114D01*
X137155511Y-101916808D01*
X137310161Y-101947570D01*
X137310164Y-101947571D01*
X137310166Y-101947571D01*
X137467852Y-101947571D01*
X137467853Y-101947570D01*
X137622505Y-101916808D01*
X137768187Y-101856465D01*
X137899297Y-101768860D01*
X138010797Y-101657360D01*
X138098402Y-101526250D01*
X138158745Y-101380568D01*
X138189508Y-101225913D01*
X138189508Y-101068229D01*
X138189508Y-101068226D01*
X138189507Y-101068224D01*
X138158746Y-100913581D01*
X138158745Y-100913574D01*
X138144279Y-100878649D01*
X138098405Y-100767898D01*
X138098398Y-100767885D01*
X138010797Y-100636782D01*
X138010794Y-100636778D01*
X137899300Y-100525284D01*
X137899296Y-100525281D01*
X137768193Y-100437680D01*
X137768180Y-100437673D01*
X137622509Y-100377335D01*
X137622497Y-100377332D01*
X137467853Y-100346571D01*
X137467850Y-100346571D01*
X137310166Y-100346571D01*
X137310163Y-100346571D01*
X137155518Y-100377332D01*
X137155506Y-100377335D01*
X137009835Y-100437673D01*
X137009822Y-100437680D01*
X136878719Y-100525281D01*
X136878715Y-100525284D01*
X136767221Y-100636778D01*
X136767218Y-100636782D01*
X136679617Y-100767885D01*
X136679610Y-100767898D01*
X136619272Y-100913569D01*
X136619269Y-100913581D01*
X136588508Y-101068224D01*
X134124241Y-101068224D01*
X134145373Y-101017207D01*
X134145373Y-101017205D01*
X134145376Y-101017199D01*
X134176139Y-100862544D01*
X134176139Y-100704860D01*
X134176139Y-100704857D01*
X134176138Y-100704855D01*
X134162597Y-100636782D01*
X134145376Y-100550205D01*
X134145374Y-100550200D01*
X134085036Y-100404529D01*
X134085029Y-100404516D01*
X133997428Y-100273413D01*
X133997425Y-100273409D01*
X133895169Y-100171153D01*
X144199500Y-100171153D01*
X144199500Y-100328846D01*
X144230261Y-100483489D01*
X144230264Y-100483501D01*
X144290602Y-100629172D01*
X144290609Y-100629185D01*
X144378210Y-100760288D01*
X144378213Y-100760292D01*
X144489707Y-100871786D01*
X144489711Y-100871789D01*
X144620814Y-100959390D01*
X144620827Y-100959397D01*
X144760395Y-101017207D01*
X144766503Y-101019737D01*
X144921153Y-101050499D01*
X144921156Y-101050500D01*
X144921158Y-101050500D01*
X145078844Y-101050500D01*
X145078845Y-101050499D01*
X145233497Y-101019737D01*
X145379179Y-100959394D01*
X145500030Y-100878644D01*
X166656991Y-100878644D01*
X166656991Y-101036337D01*
X166687752Y-101190980D01*
X166687755Y-101190992D01*
X166748093Y-101336663D01*
X166748100Y-101336676D01*
X166835701Y-101467779D01*
X166835704Y-101467783D01*
X166947198Y-101579277D01*
X166947202Y-101579280D01*
X167078305Y-101666881D01*
X167078318Y-101666888D01*
X167223989Y-101727226D01*
X167223994Y-101727228D01*
X167374507Y-101757167D01*
X167378644Y-101757990D01*
X167378647Y-101757991D01*
X167378649Y-101757991D01*
X167536335Y-101757991D01*
X167536336Y-101757990D01*
X167690988Y-101727228D01*
X167836670Y-101666885D01*
X167967780Y-101579280D01*
X168079280Y-101467780D01*
X168166885Y-101336670D01*
X168227228Y-101190988D01*
X168257991Y-101036333D01*
X168257991Y-100878649D01*
X168257991Y-100878646D01*
X168257990Y-100878644D01*
X168254787Y-100862544D01*
X168227228Y-100723994D01*
X168227226Y-100723989D01*
X168166888Y-100578318D01*
X168166881Y-100578305D01*
X168079280Y-100447202D01*
X168079277Y-100447198D01*
X167967783Y-100335704D01*
X167967779Y-100335701D01*
X167836676Y-100248100D01*
X167836663Y-100248093D01*
X167690992Y-100187755D01*
X167690980Y-100187752D01*
X167536336Y-100156991D01*
X167536333Y-100156991D01*
X167378649Y-100156991D01*
X167378646Y-100156991D01*
X167224001Y-100187752D01*
X167223989Y-100187755D01*
X167078318Y-100248093D01*
X167078305Y-100248100D01*
X166947202Y-100335701D01*
X166947198Y-100335704D01*
X166835704Y-100447198D01*
X166835701Y-100447202D01*
X166748100Y-100578305D01*
X166748093Y-100578318D01*
X166687755Y-100723989D01*
X166687752Y-100724001D01*
X166656991Y-100878644D01*
X145500030Y-100878644D01*
X145510289Y-100871789D01*
X145549401Y-100832677D01*
X145597203Y-100784876D01*
X145621786Y-100760292D01*
X145621789Y-100760289D01*
X145709394Y-100629179D01*
X145769737Y-100483497D01*
X145800500Y-100328842D01*
X145800500Y-100171158D01*
X145800500Y-100171155D01*
X145800499Y-100171153D01*
X145769738Y-100016510D01*
X145769737Y-100016503D01*
X145768685Y-100013963D01*
X145709397Y-99870827D01*
X145709390Y-99870814D01*
X145621789Y-99739711D01*
X145621786Y-99739707D01*
X145510292Y-99628213D01*
X145510288Y-99628210D01*
X145379185Y-99540609D01*
X145379172Y-99540602D01*
X145233501Y-99480264D01*
X145233489Y-99480261D01*
X145078845Y-99449500D01*
X145078842Y-99449500D01*
X144921158Y-99449500D01*
X144921155Y-99449500D01*
X144766510Y-99480261D01*
X144766498Y-99480264D01*
X144620827Y-99540602D01*
X144620814Y-99540609D01*
X144489711Y-99628210D01*
X144489707Y-99628213D01*
X144378213Y-99739707D01*
X144378210Y-99739711D01*
X144290609Y-99870814D01*
X144290602Y-99870827D01*
X144230264Y-100016498D01*
X144230261Y-100016510D01*
X144199500Y-100171153D01*
X133895169Y-100171153D01*
X133885931Y-100161915D01*
X133885927Y-100161912D01*
X133754824Y-100074311D01*
X133754811Y-100074304D01*
X133609140Y-100013966D01*
X133609128Y-100013963D01*
X133454484Y-99983202D01*
X133454481Y-99983202D01*
X133296797Y-99983202D01*
X133296794Y-99983202D01*
X133142149Y-100013963D01*
X133142137Y-100013966D01*
X132996466Y-100074304D01*
X132996453Y-100074311D01*
X132865350Y-100161912D01*
X132865346Y-100161915D01*
X132753852Y-100273409D01*
X132753849Y-100273413D01*
X132666248Y-100404516D01*
X132666241Y-100404529D01*
X132605903Y-100550200D01*
X132605900Y-100550212D01*
X132575139Y-100704855D01*
X132575139Y-100765638D01*
X132555454Y-100832677D01*
X132502650Y-100878432D01*
X132498592Y-100880199D01*
X132359830Y-100937675D01*
X132359821Y-100937680D01*
X132228718Y-101025281D01*
X132228714Y-101025284D01*
X132117220Y-101136778D01*
X132117217Y-101136782D01*
X132029616Y-101267885D01*
X132029609Y-101267898D01*
X131969271Y-101413569D01*
X131969268Y-101413581D01*
X131938507Y-101568224D01*
X123498179Y-101568224D01*
X123498179Y-99265063D01*
X123517864Y-99198024D01*
X123570668Y-99152269D01*
X123622179Y-99141063D01*
X130423908Y-99141063D01*
X130424156Y-99141136D01*
X130475345Y-99141136D01*
X130475345Y-99141137D01*
X130613024Y-99141140D01*
X130886026Y-99105206D01*
X131152003Y-99033944D01*
X131406402Y-98928574D01*
X131644871Y-98790899D01*
X131863329Y-98623276D01*
X132058039Y-98428571D01*
X132225668Y-98210117D01*
X132363349Y-97971652D01*
X132384267Y-97921153D01*
X144949500Y-97921153D01*
X144949500Y-98078846D01*
X144980261Y-98233489D01*
X144980264Y-98233501D01*
X145040602Y-98379172D01*
X145040609Y-98379185D01*
X145128210Y-98510288D01*
X145128213Y-98510292D01*
X145239707Y-98621786D01*
X145239711Y-98621789D01*
X145370814Y-98709390D01*
X145370827Y-98709397D01*
X145516498Y-98769735D01*
X145516503Y-98769737D01*
X145671153Y-98800499D01*
X145671156Y-98800500D01*
X145671158Y-98800500D01*
X145828844Y-98800500D01*
X145828845Y-98800499D01*
X145983497Y-98769737D01*
X146129179Y-98709394D01*
X146260289Y-98621789D01*
X146371789Y-98510289D01*
X146459394Y-98379179D01*
X146519737Y-98233497D01*
X146550500Y-98078842D01*
X146550500Y-97921158D01*
X146550500Y-97921155D01*
X146550499Y-97921153D01*
X146519738Y-97766510D01*
X146519737Y-97766503D01*
X146519735Y-97766498D01*
X146459397Y-97620827D01*
X146459390Y-97620814D01*
X146371789Y-97489711D01*
X146371786Y-97489707D01*
X146260292Y-97378213D01*
X146260288Y-97378210D01*
X146129185Y-97290609D01*
X146129172Y-97290602D01*
X145983501Y-97230264D01*
X145983489Y-97230261D01*
X145828845Y-97199500D01*
X145828842Y-97199500D01*
X145671158Y-97199500D01*
X145671155Y-97199500D01*
X145516510Y-97230261D01*
X145516498Y-97230264D01*
X145370827Y-97290602D01*
X145370814Y-97290609D01*
X145239711Y-97378210D01*
X145239707Y-97378213D01*
X145128213Y-97489707D01*
X145128210Y-97489711D01*
X145040609Y-97620814D01*
X145040602Y-97620827D01*
X144980264Y-97766498D01*
X144980261Y-97766510D01*
X144949500Y-97921153D01*
X132384267Y-97921153D01*
X132468726Y-97717256D01*
X132539995Y-97451281D01*
X132575937Y-97178279D01*
X132575937Y-96902922D01*
X132539995Y-96629920D01*
X132468726Y-96363946D01*
X132363350Y-96109549D01*
X132246380Y-95906955D01*
X132225670Y-95871085D01*
X132225666Y-95871080D01*
X132058043Y-95652633D01*
X132058035Y-95652624D01*
X131863334Y-95457928D01*
X131863330Y-95457924D01*
X131695530Y-95329171D01*
X131644872Y-95290301D01*
X131644869Y-95290299D01*
X131644860Y-95290293D01*
X131406407Y-95152629D01*
X131406392Y-95152622D01*
X131152204Y-95047340D01*
X131152004Y-95047257D01*
X131152002Y-95047256D01*
X131152001Y-95047256D01*
X131151995Y-95047254D01*
X130886032Y-94975995D01*
X130764693Y-94960023D01*
X130613025Y-94940060D01*
X130613020Y-94940060D01*
X130475346Y-94940063D01*
X123622179Y-94940063D01*
X123613493Y-94937512D01*
X123604532Y-94938801D01*
X123580491Y-94927822D01*
X123555140Y-94920378D01*
X123549212Y-94913537D01*
X123540976Y-94909776D01*
X123526686Y-94887541D01*
X123509385Y-94867574D01*
X123507097Y-94857059D01*
X123503202Y-94850998D01*
X123498179Y-94816063D01*
X123498179Y-94583653D01*
X142786089Y-94583653D01*
X142786089Y-94741346D01*
X142816850Y-94895989D01*
X142816853Y-94896001D01*
X142877191Y-95041672D01*
X142877198Y-95041685D01*
X142964799Y-95172788D01*
X142964802Y-95172792D01*
X143076296Y-95284286D01*
X143076300Y-95284289D01*
X143207403Y-95371890D01*
X143207416Y-95371897D01*
X143353087Y-95432235D01*
X143353092Y-95432237D01*
X143489619Y-95459394D01*
X143507742Y-95462999D01*
X143507745Y-95463000D01*
X143507747Y-95463000D01*
X143665433Y-95463000D01*
X143665434Y-95462999D01*
X143820086Y-95432237D01*
X143846845Y-95421153D01*
X153699500Y-95421153D01*
X153699500Y-95578846D01*
X153730261Y-95733489D01*
X153730264Y-95733501D01*
X153790602Y-95879172D01*
X153790609Y-95879185D01*
X153878210Y-96010288D01*
X153878213Y-96010292D01*
X153989707Y-96121786D01*
X153989711Y-96121789D01*
X154120814Y-96209390D01*
X154120827Y-96209397D01*
X154266498Y-96269735D01*
X154266503Y-96269737D01*
X154421153Y-96300499D01*
X154421156Y-96300500D01*
X154421158Y-96300500D01*
X154578844Y-96300500D01*
X154578845Y-96300499D01*
X154733497Y-96269737D01*
X154879179Y-96209394D01*
X155010289Y-96121789D01*
X155121789Y-96010289D01*
X155209394Y-95879179D01*
X155269737Y-95733497D01*
X155300500Y-95578842D01*
X155300500Y-95421158D01*
X155300500Y-95421155D01*
X155300499Y-95421153D01*
X155278780Y-95311964D01*
X155269737Y-95266503D01*
X155232043Y-95175500D01*
X155209397Y-95120827D01*
X155209390Y-95120814D01*
X155121789Y-94989711D01*
X155121786Y-94989707D01*
X155010292Y-94878213D01*
X155010288Y-94878210D01*
X154879185Y-94790609D01*
X154879172Y-94790602D01*
X154733501Y-94730264D01*
X154733489Y-94730261D01*
X154578845Y-94699500D01*
X154578842Y-94699500D01*
X154421158Y-94699500D01*
X154421155Y-94699500D01*
X154266510Y-94730261D01*
X154266498Y-94730264D01*
X154120827Y-94790602D01*
X154120814Y-94790609D01*
X153989711Y-94878210D01*
X153989707Y-94878213D01*
X153878213Y-94989707D01*
X153878210Y-94989711D01*
X153790609Y-95120814D01*
X153790602Y-95120827D01*
X153730264Y-95266498D01*
X153730261Y-95266510D01*
X153699500Y-95421153D01*
X143846845Y-95421153D01*
X143965768Y-95371894D01*
X143965930Y-95371786D01*
X144055460Y-95311964D01*
X144069589Y-95302522D01*
X144096878Y-95284289D01*
X144208378Y-95172789D01*
X144295983Y-95041679D01*
X144356326Y-94895997D01*
X144387089Y-94741342D01*
X144387089Y-94583658D01*
X144387089Y-94583655D01*
X144387088Y-94583653D01*
X144373730Y-94516498D01*
X144356326Y-94429003D01*
X144301298Y-94296153D01*
X149248589Y-94296153D01*
X149248589Y-94453846D01*
X149279350Y-94608489D01*
X149279353Y-94608501D01*
X149339691Y-94754172D01*
X149339698Y-94754185D01*
X149427299Y-94885288D01*
X149427302Y-94885292D01*
X149538796Y-94996786D01*
X149538800Y-94996789D01*
X149669903Y-95084390D01*
X149669916Y-95084397D01*
X149815587Y-95144735D01*
X149815592Y-95144737D01*
X149956613Y-95172788D01*
X149970242Y-95175499D01*
X149970245Y-95175500D01*
X149970247Y-95175500D01*
X150127933Y-95175500D01*
X150127934Y-95175499D01*
X150282586Y-95144737D01*
X150428268Y-95084394D01*
X150559378Y-94996789D01*
X150670878Y-94885289D01*
X150758483Y-94754179D01*
X150818826Y-94608497D01*
X150849589Y-94453842D01*
X150849589Y-94296158D01*
X150849589Y-94296155D01*
X150849588Y-94296153D01*
X150818827Y-94141510D01*
X150818826Y-94141503D01*
X150777077Y-94040711D01*
X150771786Y-94027936D01*
X150764317Y-93958467D01*
X150795593Y-93895988D01*
X150855682Y-93860336D01*
X150925507Y-93862830D01*
X150933780Y-93865915D01*
X150940592Y-93868737D01*
X151077591Y-93895988D01*
X151095242Y-93899499D01*
X151095245Y-93899500D01*
X151095247Y-93899500D01*
X151252933Y-93899500D01*
X151252934Y-93899499D01*
X151407586Y-93868737D01*
X151553268Y-93808394D01*
X151684378Y-93720789D01*
X151795878Y-93609289D01*
X151883483Y-93478179D01*
X151943826Y-93332497D01*
X151974589Y-93177842D01*
X151974589Y-93020158D01*
X151974589Y-93020155D01*
X151958497Y-92939258D01*
X151958497Y-92939257D01*
X151954896Y-92921153D01*
X155199500Y-92921153D01*
X155199500Y-93078846D01*
X155230261Y-93233489D01*
X155230264Y-93233501D01*
X155290602Y-93379172D01*
X155290609Y-93379185D01*
X155378210Y-93510288D01*
X155378213Y-93510292D01*
X155489707Y-93621786D01*
X155489711Y-93621789D01*
X155620814Y-93709390D01*
X155620827Y-93709397D01*
X155726603Y-93753210D01*
X155766503Y-93769737D01*
X155825735Y-93781519D01*
X155877841Y-93791884D01*
X155939752Y-93824269D01*
X155974326Y-93884984D01*
X155970587Y-93954754D01*
X155929720Y-94011426D01*
X155901104Y-94028061D01*
X155870829Y-94040601D01*
X155870814Y-94040609D01*
X155739711Y-94128210D01*
X155739707Y-94128213D01*
X155628213Y-94239707D01*
X155628210Y-94239711D01*
X155540609Y-94370814D01*
X155540602Y-94370827D01*
X155480264Y-94516498D01*
X155480261Y-94516510D01*
X155449500Y-94671153D01*
X155449500Y-94828846D01*
X155480261Y-94983489D01*
X155480264Y-94983501D01*
X155540602Y-95129172D01*
X155540609Y-95129185D01*
X155628210Y-95260288D01*
X155628213Y-95260292D01*
X155739707Y-95371786D01*
X155739711Y-95371789D01*
X155870814Y-95459390D01*
X155870827Y-95459397D01*
X155984437Y-95506455D01*
X156016503Y-95519737D01*
X156171153Y-95550499D01*
X156171156Y-95550500D01*
X156171158Y-95550500D01*
X156328844Y-95550500D01*
X156328845Y-95550499D01*
X156483497Y-95519737D01*
X156629179Y-95459394D01*
X156760289Y-95371789D01*
X156871789Y-95260289D01*
X156959394Y-95129179D01*
X156962854Y-95120827D01*
X156977946Y-95084390D01*
X157019737Y-94983497D01*
X157050500Y-94828842D01*
X157050500Y-94671158D01*
X157050500Y-94671155D01*
X157050499Y-94671153D01*
X157019738Y-94516510D01*
X157019737Y-94516503D01*
X156993782Y-94453842D01*
X156959397Y-94370827D01*
X156959390Y-94370814D01*
X156871789Y-94239711D01*
X156871786Y-94239707D01*
X156760292Y-94128213D01*
X156760288Y-94128210D01*
X156629185Y-94040609D01*
X156629172Y-94040602D01*
X156483501Y-93980264D01*
X156483491Y-93980261D01*
X156372157Y-93958115D01*
X156310246Y-93925730D01*
X156275672Y-93865014D01*
X156279413Y-93795244D01*
X156320279Y-93738573D01*
X156348893Y-93721938D01*
X156379179Y-93709394D01*
X156510289Y-93621789D01*
X156621789Y-93510289D01*
X156709394Y-93379179D01*
X156769737Y-93233497D01*
X156800500Y-93078842D01*
X156800500Y-92921158D01*
X156800500Y-92921155D01*
X156800499Y-92921153D01*
X156769738Y-92766510D01*
X156769737Y-92766503D01*
X156755000Y-92730924D01*
X156709397Y-92620827D01*
X156709390Y-92620814D01*
X156678043Y-92573900D01*
X156678043Y-92573899D01*
X156671652Y-92564335D01*
X156650773Y-92497658D01*
X156669257Y-92430278D01*
X156721235Y-92383587D01*
X156727270Y-92380894D01*
X156779179Y-92359394D01*
X156910289Y-92271789D01*
X157021789Y-92160289D01*
X157109394Y-92029179D01*
X157169737Y-91883497D01*
X157200500Y-91728842D01*
X157200500Y-91571158D01*
X157200500Y-91571155D01*
X157200499Y-91571153D01*
X157179823Y-91467209D01*
X157169737Y-91416503D01*
X157169735Y-91416498D01*
X157109397Y-91270827D01*
X157109390Y-91270814D01*
X157021789Y-91139711D01*
X157021786Y-91139707D01*
X156910292Y-91028213D01*
X156910288Y-91028210D01*
X156779185Y-90940609D01*
X156779172Y-90940602D01*
X156633501Y-90880264D01*
X156633489Y-90880261D01*
X156478845Y-90849500D01*
X156478842Y-90849500D01*
X156321158Y-90849500D01*
X156321155Y-90849500D01*
X156166510Y-90880261D01*
X156166498Y-90880264D01*
X156020827Y-90940602D01*
X156020814Y-90940609D01*
X155889711Y-91028210D01*
X155889707Y-91028213D01*
X155778213Y-91139707D01*
X155778210Y-91139711D01*
X155690609Y-91270814D01*
X155690602Y-91270827D01*
X155630264Y-91416498D01*
X155630261Y-91416510D01*
X155599500Y-91571153D01*
X155599500Y-91728846D01*
X155630261Y-91883489D01*
X155630264Y-91883501D01*
X155690602Y-92029172D01*
X155690609Y-92029185D01*
X155728348Y-92085665D01*
X155749226Y-92152343D01*
X155730741Y-92219723D01*
X155678762Y-92266413D01*
X155672699Y-92269117D01*
X155620824Y-92290604D01*
X155620814Y-92290609D01*
X155489711Y-92378210D01*
X155489707Y-92378213D01*
X155378213Y-92489707D01*
X155378210Y-92489711D01*
X155290609Y-92620814D01*
X155290602Y-92620827D01*
X155230264Y-92766498D01*
X155230261Y-92766510D01*
X155199500Y-92921153D01*
X151954896Y-92921153D01*
X151943827Y-92865510D01*
X151943826Y-92865503D01*
X151902822Y-92766510D01*
X151883486Y-92719827D01*
X151883479Y-92719814D01*
X151795878Y-92588711D01*
X151795875Y-92588707D01*
X151684381Y-92477213D01*
X151684377Y-92477210D01*
X151553274Y-92389609D01*
X151553261Y-92389602D01*
X151407590Y-92329264D01*
X151407578Y-92329261D01*
X151252934Y-92298500D01*
X151252931Y-92298500D01*
X151095247Y-92298500D01*
X151095244Y-92298500D01*
X150940599Y-92329261D01*
X150940587Y-92329264D01*
X150794916Y-92389602D01*
X150794903Y-92389609D01*
X150663800Y-92477210D01*
X150663796Y-92477213D01*
X150552302Y-92588707D01*
X150552299Y-92588711D01*
X150464698Y-92719814D01*
X150464691Y-92719827D01*
X150404353Y-92865498D01*
X150404350Y-92865510D01*
X150373589Y-93020153D01*
X150373589Y-93177846D01*
X150384660Y-93233501D01*
X150404352Y-93332497D01*
X150423691Y-93379185D01*
X150451392Y-93446063D01*
X150458860Y-93515533D01*
X150427584Y-93578012D01*
X150367495Y-93613664D01*
X150297670Y-93611169D01*
X150289378Y-93608076D01*
X150282590Y-93605264D01*
X150282578Y-93605261D01*
X150127934Y-93574500D01*
X150127931Y-93574500D01*
X149970247Y-93574500D01*
X149970244Y-93574500D01*
X149815599Y-93605261D01*
X149815587Y-93605264D01*
X149669916Y-93665602D01*
X149669903Y-93665609D01*
X149538800Y-93753210D01*
X149538796Y-93753213D01*
X149427302Y-93864707D01*
X149427299Y-93864711D01*
X149339698Y-93995814D01*
X149339691Y-93995827D01*
X149279353Y-94141498D01*
X149279350Y-94141510D01*
X149248589Y-94296153D01*
X144301298Y-94296153D01*
X144295983Y-94283321D01*
X144295981Y-94283318D01*
X144295979Y-94283314D01*
X144208378Y-94152211D01*
X144208375Y-94152207D01*
X144096881Y-94040713D01*
X144096877Y-94040710D01*
X143965774Y-93953109D01*
X143965761Y-93953102D01*
X143820090Y-93892764D01*
X143820078Y-93892761D01*
X143665434Y-93862000D01*
X143665431Y-93862000D01*
X143507747Y-93862000D01*
X143507744Y-93862000D01*
X143353099Y-93892761D01*
X143353087Y-93892764D01*
X143207416Y-93953102D01*
X143207403Y-93953109D01*
X143076300Y-94040710D01*
X143076296Y-94040713D01*
X142964802Y-94152207D01*
X142964799Y-94152211D01*
X142877198Y-94283314D01*
X142877191Y-94283327D01*
X142816853Y-94428998D01*
X142816850Y-94429010D01*
X142786089Y-94583653D01*
X123498179Y-94583653D01*
X123498179Y-90818942D01*
X129050026Y-90818942D01*
X129050026Y-90976635D01*
X129080787Y-91131278D01*
X129080790Y-91131290D01*
X129141128Y-91276961D01*
X129141135Y-91276974D01*
X129175830Y-91328898D01*
X129196708Y-91395575D01*
X129178224Y-91462956D01*
X129175830Y-91466680D01*
X129141135Y-91518603D01*
X129141128Y-91518616D01*
X129080790Y-91664287D01*
X129080787Y-91664299D01*
X129050026Y-91818942D01*
X129050026Y-91976635D01*
X129080787Y-92131278D01*
X129080790Y-92131290D01*
X129141128Y-92276961D01*
X129141135Y-92276974D01*
X129228736Y-92408077D01*
X129228739Y-92408081D01*
X129340233Y-92519575D01*
X129340237Y-92519578D01*
X129471340Y-92607179D01*
X129471353Y-92607186D01*
X129617024Y-92667524D01*
X129617029Y-92667526D01*
X129771679Y-92698288D01*
X129771682Y-92698289D01*
X129771684Y-92698289D01*
X129929370Y-92698289D01*
X129929371Y-92698288D01*
X130084023Y-92667526D01*
X130229705Y-92607183D01*
X130281636Y-92572483D01*
X130348311Y-92551605D01*
X130415691Y-92570089D01*
X130419389Y-92572465D01*
X130471347Y-92607183D01*
X130471349Y-92607184D01*
X130471351Y-92607185D01*
X130617024Y-92667524D01*
X130617029Y-92667526D01*
X130771679Y-92698288D01*
X130771682Y-92698289D01*
X130771684Y-92698289D01*
X130929370Y-92698289D01*
X130929371Y-92698288D01*
X131084023Y-92667526D01*
X131229705Y-92607183D01*
X131360815Y-92519578D01*
X131472315Y-92408078D01*
X131559920Y-92276968D01*
X131562067Y-92271786D01*
X131608248Y-92160292D01*
X131620263Y-92131286D01*
X131651026Y-91976631D01*
X131651026Y-91818947D01*
X131651026Y-91818944D01*
X131651025Y-91818942D01*
X131635528Y-91741033D01*
X131620263Y-91664292D01*
X131602657Y-91621786D01*
X131559922Y-91518614D01*
X131559920Y-91518611D01*
X131559920Y-91518610D01*
X131525220Y-91466678D01*
X131504342Y-91400004D01*
X131522826Y-91332624D01*
X131525202Y-91328925D01*
X131559920Y-91276968D01*
X131620263Y-91131286D01*
X131651026Y-90976631D01*
X131651026Y-90818947D01*
X131651026Y-90818944D01*
X131651025Y-90818942D01*
X131641237Y-90769735D01*
X131620263Y-90664292D01*
X131602657Y-90621786D01*
X131559923Y-90518616D01*
X131559916Y-90518603D01*
X131511137Y-90445600D01*
X131472315Y-90387500D01*
X131472312Y-90387496D01*
X131467612Y-90382796D01*
X136814935Y-90382796D01*
X136814935Y-90540489D01*
X136845696Y-90695132D01*
X136845699Y-90695144D01*
X136906037Y-90840815D01*
X136906044Y-90840828D01*
X136993645Y-90971931D01*
X136993648Y-90971935D01*
X137105142Y-91083429D01*
X137105146Y-91083432D01*
X137236252Y-91171035D01*
X137236254Y-91171035D01*
X137236256Y-91171037D01*
X137305516Y-91199725D01*
X137359920Y-91243565D01*
X137372625Y-91266833D01*
X137401313Y-91336092D01*
X137401318Y-91336102D01*
X137488919Y-91467205D01*
X137488922Y-91467209D01*
X137600416Y-91578703D01*
X137600420Y-91578706D01*
X137731523Y-91666307D01*
X137731536Y-91666314D01*
X137827903Y-91706229D01*
X137873415Y-91725081D01*
X137927819Y-91768921D01*
X137947711Y-91822987D01*
X137948311Y-91822868D01*
X137949067Y-91826671D01*
X137949365Y-91827480D01*
X137949499Y-91828841D01*
X137980261Y-91983489D01*
X137980264Y-91983501D01*
X138040602Y-92129172D01*
X138040609Y-92129185D01*
X138128210Y-92260288D01*
X138128213Y-92260292D01*
X138239707Y-92371786D01*
X138239711Y-92371789D01*
X138370814Y-92459390D01*
X138370827Y-92459397D01*
X138444013Y-92489711D01*
X138516503Y-92519737D01*
X138671153Y-92550499D01*
X138671156Y-92550500D01*
X138671158Y-92550500D01*
X138828844Y-92550500D01*
X138828845Y-92550499D01*
X138983497Y-92519737D01*
X139129179Y-92459394D01*
X139260289Y-92371789D01*
X139371789Y-92260289D01*
X139459394Y-92129179D01*
X139519737Y-91983497D01*
X139550500Y-91828842D01*
X139550500Y-91671158D01*
X139550500Y-91671155D01*
X139550499Y-91671153D01*
X139540679Y-91621786D01*
X139519737Y-91516503D01*
X139499100Y-91466680D01*
X139459397Y-91370827D01*
X139459390Y-91370814D01*
X139371789Y-91239711D01*
X139371786Y-91239707D01*
X139260292Y-91128213D01*
X139260288Y-91128210D01*
X139129185Y-91040609D01*
X139129173Y-91040602D01*
X139102674Y-91029627D01*
X138987293Y-90981835D01*
X138932889Y-90937994D01*
X138926693Y-90921153D01*
X146873589Y-90921153D01*
X146873589Y-91078846D01*
X146904350Y-91233489D01*
X146904353Y-91233501D01*
X146964691Y-91379172D01*
X146964698Y-91379185D01*
X147052299Y-91510288D01*
X147052302Y-91510292D01*
X147163796Y-91621786D01*
X147163800Y-91621789D01*
X147294903Y-91709390D01*
X147294916Y-91709397D01*
X147438622Y-91768921D01*
X147440592Y-91769737D01*
X147570211Y-91795520D01*
X147595242Y-91800499D01*
X147595245Y-91800500D01*
X147595247Y-91800500D01*
X147752933Y-91800500D01*
X147752934Y-91800499D01*
X147907586Y-91769737D01*
X148053268Y-91709394D01*
X148184378Y-91621789D01*
X148295878Y-91510289D01*
X148383483Y-91379179D01*
X148386943Y-91370827D01*
X148425820Y-91276968D01*
X148443826Y-91233497D01*
X148474589Y-91078842D01*
X148474589Y-90921158D01*
X148474589Y-90921155D01*
X148474588Y-90921153D01*
X152199500Y-90921153D01*
X152199500Y-91078846D01*
X152230261Y-91233489D01*
X152230264Y-91233501D01*
X152290602Y-91379172D01*
X152290609Y-91379185D01*
X152378210Y-91510288D01*
X152378213Y-91510292D01*
X152489707Y-91621786D01*
X152489711Y-91621789D01*
X152620814Y-91709390D01*
X152620827Y-91709397D01*
X152764533Y-91768921D01*
X152766503Y-91769737D01*
X152896122Y-91795520D01*
X152921153Y-91800499D01*
X152921156Y-91800500D01*
X152921158Y-91800500D01*
X153078844Y-91800500D01*
X153078845Y-91800499D01*
X153233497Y-91769737D01*
X153379179Y-91709394D01*
X153510289Y-91621789D01*
X153621789Y-91510289D01*
X153709394Y-91379179D01*
X153712854Y-91370827D01*
X153751731Y-91276968D01*
X153769737Y-91233497D01*
X153800500Y-91078842D01*
X153800500Y-90921158D01*
X153800500Y-90921155D01*
X153800499Y-90921153D01*
X153769737Y-90766503D01*
X153769735Y-90766498D01*
X153709397Y-90620827D01*
X153709390Y-90620814D01*
X153687399Y-90587902D01*
X153645434Y-90525098D01*
X163971059Y-90525098D01*
X163971059Y-90682791D01*
X164001820Y-90837434D01*
X164001823Y-90837446D01*
X164062161Y-90983117D01*
X164062168Y-90983130D01*
X164149769Y-91114233D01*
X164149772Y-91114237D01*
X164261266Y-91225731D01*
X164261270Y-91225734D01*
X164392373Y-91313335D01*
X164392386Y-91313342D01*
X164531138Y-91370814D01*
X164538062Y-91373682D01*
X164670391Y-91400004D01*
X164692712Y-91404444D01*
X164692715Y-91404445D01*
X164692717Y-91404445D01*
X164850403Y-91404445D01*
X164850404Y-91404444D01*
X165005056Y-91373682D01*
X165150738Y-91313339D01*
X165170251Y-91300300D01*
X165181621Y-91292704D01*
X165220339Y-91266833D01*
X165281848Y-91225734D01*
X165393348Y-91114234D01*
X165480953Y-90983124D01*
X165483643Y-90976631D01*
X165521991Y-90884049D01*
X165541296Y-90837442D01*
X165572059Y-90682787D01*
X165572059Y-90525103D01*
X165572059Y-90525100D01*
X165572058Y-90525098D01*
X165558130Y-90455080D01*
X165541296Y-90370448D01*
X165512715Y-90301446D01*
X165480956Y-90224772D01*
X165480949Y-90224759D01*
X165393348Y-90093656D01*
X165393345Y-90093652D01*
X165281851Y-89982158D01*
X165281847Y-89982155D01*
X165150744Y-89894554D01*
X165150731Y-89894547D01*
X165005060Y-89834209D01*
X165005048Y-89834206D01*
X164850404Y-89803445D01*
X164850401Y-89803445D01*
X164692717Y-89803445D01*
X164692714Y-89803445D01*
X164538069Y-89834206D01*
X164538057Y-89834209D01*
X164392386Y-89894547D01*
X164392373Y-89894554D01*
X164261270Y-89982155D01*
X164261266Y-89982158D01*
X164149772Y-90093652D01*
X164149769Y-90093656D01*
X164062168Y-90224759D01*
X164062161Y-90224772D01*
X164001823Y-90370443D01*
X164001820Y-90370455D01*
X163971059Y-90525098D01*
X153645434Y-90525098D01*
X153621789Y-90489711D01*
X153621786Y-90489707D01*
X153510292Y-90378213D01*
X153510288Y-90378210D01*
X153379185Y-90290609D01*
X153379172Y-90290602D01*
X153233501Y-90230264D01*
X153233489Y-90230261D01*
X153078845Y-90199500D01*
X153078842Y-90199500D01*
X152921158Y-90199500D01*
X152921155Y-90199500D01*
X152766510Y-90230261D01*
X152766498Y-90230264D01*
X152620827Y-90290602D01*
X152620814Y-90290609D01*
X152489711Y-90378210D01*
X152489707Y-90378213D01*
X152378213Y-90489707D01*
X152378210Y-90489711D01*
X152290609Y-90620814D01*
X152290602Y-90620827D01*
X152230264Y-90766498D01*
X152230261Y-90766510D01*
X152199500Y-90921153D01*
X148474588Y-90921153D01*
X148443826Y-90766503D01*
X148443824Y-90766498D01*
X148383486Y-90620827D01*
X148383479Y-90620814D01*
X148295878Y-90489711D01*
X148295875Y-90489707D01*
X148184381Y-90378213D01*
X148184377Y-90378210D01*
X148053274Y-90290609D01*
X148053261Y-90290602D01*
X147907590Y-90230264D01*
X147907578Y-90230261D01*
X147752934Y-90199500D01*
X147752931Y-90199500D01*
X147595247Y-90199500D01*
X147595244Y-90199500D01*
X147440599Y-90230261D01*
X147440587Y-90230264D01*
X147294916Y-90290602D01*
X147294903Y-90290609D01*
X147163800Y-90378210D01*
X147163796Y-90378213D01*
X147052302Y-90489707D01*
X147052299Y-90489711D01*
X146964698Y-90620814D01*
X146964691Y-90620827D01*
X146904353Y-90766498D01*
X146904350Y-90766510D01*
X146873589Y-90921153D01*
X138926693Y-90921153D01*
X138912999Y-90883929D01*
X138912398Y-90884049D01*
X138911638Y-90880228D01*
X138911341Y-90879421D01*
X138911209Y-90878083D01*
X138911209Y-90878075D01*
X138903797Y-90840815D01*
X138880447Y-90723427D01*
X138880446Y-90723420D01*
X138825270Y-90590214D01*
X138817802Y-90520746D01*
X138849077Y-90458267D01*
X138852097Y-90455136D01*
X138898650Y-90408584D01*
X138986255Y-90277474D01*
X139046598Y-90131792D01*
X139077361Y-89977137D01*
X139077361Y-89921153D01*
X148623589Y-89921153D01*
X148623589Y-90078846D01*
X148654350Y-90233489D01*
X148654353Y-90233501D01*
X148714691Y-90379172D01*
X148714698Y-90379185D01*
X148802299Y-90510288D01*
X148802302Y-90510292D01*
X148913796Y-90621786D01*
X148913800Y-90621789D01*
X149044903Y-90709390D01*
X149044916Y-90709397D01*
X149182772Y-90766498D01*
X149190592Y-90769737D01*
X149345242Y-90800499D01*
X149345245Y-90800500D01*
X149345247Y-90800500D01*
X149502933Y-90800500D01*
X149502934Y-90800499D01*
X149513268Y-90798443D01*
X149538376Y-90793450D01*
X149538381Y-90793449D01*
X149623889Y-90776439D01*
X149657586Y-90769737D01*
X149803268Y-90709394D01*
X149934378Y-90621789D01*
X150045878Y-90510289D01*
X150133483Y-90379179D01*
X150137100Y-90370448D01*
X150169382Y-90292510D01*
X150193826Y-90233497D01*
X150224589Y-90078842D01*
X150224589Y-89921158D01*
X150224589Y-89921155D01*
X150224588Y-89921153D01*
X150219297Y-89894554D01*
X150193826Y-89766503D01*
X150162927Y-89691906D01*
X150133486Y-89620827D01*
X150133479Y-89620814D01*
X150045878Y-89489711D01*
X150045875Y-89489707D01*
X149934381Y-89378213D01*
X149934377Y-89378210D01*
X149803274Y-89290609D01*
X149803261Y-89290602D01*
X149657590Y-89230264D01*
X149657578Y-89230261D01*
X149502934Y-89199500D01*
X149502931Y-89199500D01*
X149345247Y-89199500D01*
X149345244Y-89199500D01*
X149190599Y-89230261D01*
X149190587Y-89230264D01*
X149044916Y-89290602D01*
X149044903Y-89290609D01*
X148913800Y-89378210D01*
X148913796Y-89378213D01*
X148802302Y-89489707D01*
X148802299Y-89489711D01*
X148714698Y-89620814D01*
X148714691Y-89620827D01*
X148654353Y-89766498D01*
X148654350Y-89766510D01*
X148623589Y-89921153D01*
X139077361Y-89921153D01*
X139077361Y-89819453D01*
X139077361Y-89819450D01*
X139077360Y-89819448D01*
X139066830Y-89766510D01*
X139046598Y-89664798D01*
X139028743Y-89621692D01*
X138986258Y-89519122D01*
X138986251Y-89519109D01*
X138898650Y-89388006D01*
X138898647Y-89388002D01*
X138787153Y-89276508D01*
X138787149Y-89276505D01*
X138656046Y-89188904D01*
X138656033Y-89188897D01*
X138510362Y-89128559D01*
X138510350Y-89128556D01*
X138355706Y-89097795D01*
X138355703Y-89097795D01*
X138198019Y-89097795D01*
X138198016Y-89097795D01*
X138043371Y-89128556D01*
X138043359Y-89128559D01*
X137897688Y-89188897D01*
X137897675Y-89188904D01*
X137766572Y-89276505D01*
X137766568Y-89276508D01*
X137655074Y-89388002D01*
X137655071Y-89388006D01*
X137567470Y-89519109D01*
X137567465Y-89519119D01*
X137531491Y-89605968D01*
X137487650Y-89660372D01*
X137441123Y-89680132D01*
X137381941Y-89691904D01*
X137381935Y-89691906D01*
X137236262Y-89752245D01*
X137236249Y-89752252D01*
X137105146Y-89839853D01*
X137105142Y-89839856D01*
X136993648Y-89951350D01*
X136993645Y-89951354D01*
X136906044Y-90082457D01*
X136906037Y-90082470D01*
X136845699Y-90228141D01*
X136845696Y-90228153D01*
X136814935Y-90382796D01*
X131467612Y-90382796D01*
X131360818Y-90276002D01*
X131360814Y-90275999D01*
X131229711Y-90188398D01*
X131229698Y-90188391D01*
X131084027Y-90128053D01*
X131084015Y-90128050D01*
X130929371Y-90097289D01*
X130929368Y-90097289D01*
X130771684Y-90097289D01*
X130771681Y-90097289D01*
X130617036Y-90128050D01*
X130617024Y-90128053D01*
X130471353Y-90188391D01*
X130471340Y-90188398D01*
X130419417Y-90223093D01*
X130352740Y-90243971D01*
X130285359Y-90225487D01*
X130281635Y-90223093D01*
X130229711Y-90188398D01*
X130229698Y-90188391D01*
X130084027Y-90128053D01*
X130084015Y-90128050D01*
X129929371Y-90097289D01*
X129929368Y-90097289D01*
X129771684Y-90097289D01*
X129771681Y-90097289D01*
X129617036Y-90128050D01*
X129617024Y-90128053D01*
X129471353Y-90188391D01*
X129471340Y-90188398D01*
X129340237Y-90275999D01*
X129340233Y-90276002D01*
X129228739Y-90387496D01*
X129228736Y-90387500D01*
X129141135Y-90518603D01*
X129141128Y-90518616D01*
X129080790Y-90664287D01*
X129080787Y-90664299D01*
X129050026Y-90818942D01*
X123498179Y-90818942D01*
X123498179Y-87073847D01*
X141245196Y-87073847D01*
X141245196Y-87231540D01*
X141275957Y-87386183D01*
X141275960Y-87386195D01*
X141336298Y-87531866D01*
X141336305Y-87531879D01*
X141423906Y-87662982D01*
X141423909Y-87662986D01*
X141535403Y-87774480D01*
X141535407Y-87774483D01*
X141666510Y-87862084D01*
X141666523Y-87862091D01*
X141812194Y-87922429D01*
X141812199Y-87922431D01*
X141966849Y-87953193D01*
X141966852Y-87953194D01*
X141966854Y-87953194D01*
X142124540Y-87953194D01*
X142124541Y-87953193D01*
X142279193Y-87922431D01*
X142424875Y-87862088D01*
X142555985Y-87774483D01*
X142667485Y-87662983D01*
X142755090Y-87531873D01*
X142800951Y-87421153D01*
X161699500Y-87421153D01*
X161699500Y-87578846D01*
X161730261Y-87733489D01*
X161730264Y-87733501D01*
X161790602Y-87879172D01*
X161790609Y-87879185D01*
X161878210Y-88010288D01*
X161878213Y-88010292D01*
X161989707Y-88121786D01*
X161989711Y-88121789D01*
X162120814Y-88209390D01*
X162120827Y-88209397D01*
X162246093Y-88261283D01*
X162266503Y-88269737D01*
X162410123Y-88298305D01*
X162421153Y-88300499D01*
X162421156Y-88300500D01*
X162421158Y-88300500D01*
X162578844Y-88300500D01*
X162578845Y-88300499D01*
X162733497Y-88269737D01*
X162879179Y-88209394D01*
X163010289Y-88121789D01*
X163121789Y-88010289D01*
X163209394Y-87879179D01*
X163269737Y-87733497D01*
X163300500Y-87578842D01*
X163300500Y-87421158D01*
X163300500Y-87421155D01*
X163300499Y-87421153D01*
X163293545Y-87386195D01*
X163269737Y-87266503D01*
X163255253Y-87231536D01*
X163209397Y-87120827D01*
X163209390Y-87120814D01*
X163121789Y-86989711D01*
X163121786Y-86989707D01*
X163010292Y-86878213D01*
X163010288Y-86878210D01*
X162879185Y-86790609D01*
X162879172Y-86790602D01*
X162733501Y-86730264D01*
X162733489Y-86730261D01*
X162578845Y-86699500D01*
X162578842Y-86699500D01*
X162421158Y-86699500D01*
X162421155Y-86699500D01*
X162266510Y-86730261D01*
X162266498Y-86730264D01*
X162120827Y-86790602D01*
X162120814Y-86790609D01*
X161989711Y-86878210D01*
X161989707Y-86878213D01*
X161878213Y-86989707D01*
X161878210Y-86989711D01*
X161790609Y-87120814D01*
X161790602Y-87120827D01*
X161730264Y-87266498D01*
X161730261Y-87266510D01*
X161699500Y-87421153D01*
X142800951Y-87421153D01*
X142815433Y-87386191D01*
X142846196Y-87231536D01*
X142846196Y-87073852D01*
X142846196Y-87073849D01*
X142846195Y-87073847D01*
X142823429Y-86959397D01*
X142815433Y-86919197D01*
X142804740Y-86893381D01*
X142755093Y-86773521D01*
X142755086Y-86773508D01*
X142667485Y-86642405D01*
X142667482Y-86642401D01*
X142555988Y-86530907D01*
X142555984Y-86530904D01*
X142424881Y-86443303D01*
X142424868Y-86443296D01*
X142279197Y-86382958D01*
X142279185Y-86382955D01*
X142124541Y-86352194D01*
X142124538Y-86352194D01*
X141966854Y-86352194D01*
X141966851Y-86352194D01*
X141812206Y-86382955D01*
X141812194Y-86382958D01*
X141666523Y-86443296D01*
X141666510Y-86443303D01*
X141535407Y-86530904D01*
X141535403Y-86530907D01*
X141423909Y-86642401D01*
X141423906Y-86642405D01*
X141336305Y-86773508D01*
X141336298Y-86773521D01*
X141275960Y-86919192D01*
X141275957Y-86919204D01*
X141245196Y-87073847D01*
X123498179Y-87073847D01*
X123498179Y-86171153D01*
X144623589Y-86171153D01*
X144623589Y-86328846D01*
X144654350Y-86483489D01*
X144654353Y-86483501D01*
X144714691Y-86629172D01*
X144714698Y-86629185D01*
X144802299Y-86760288D01*
X144802302Y-86760292D01*
X144913796Y-86871786D01*
X144913800Y-86871789D01*
X145044903Y-86959390D01*
X145044916Y-86959397D01*
X145118102Y-86989711D01*
X145190592Y-87019737D01*
X145345242Y-87050499D01*
X145345245Y-87050500D01*
X145345247Y-87050500D01*
X145502933Y-87050500D01*
X145502934Y-87050499D01*
X145657586Y-87019737D01*
X145803268Y-86959394D01*
X145934378Y-86871789D01*
X146045878Y-86760289D01*
X146133483Y-86629179D01*
X146193826Y-86483497D01*
X146224589Y-86328842D01*
X146224589Y-86171158D01*
X146224589Y-86171155D01*
X146224588Y-86171153D01*
X146204667Y-86071005D01*
X146193826Y-86016503D01*
X146180114Y-85983398D01*
X146133486Y-85870827D01*
X146133479Y-85870814D01*
X146045878Y-85739711D01*
X146045875Y-85739707D01*
X145934381Y-85628213D01*
X145934377Y-85628210D01*
X145803274Y-85540609D01*
X145803261Y-85540602D01*
X145657590Y-85480264D01*
X145657578Y-85480261D01*
X145502934Y-85449500D01*
X145502931Y-85449500D01*
X145345247Y-85449500D01*
X145345244Y-85449500D01*
X145190599Y-85480261D01*
X145190587Y-85480264D01*
X145044916Y-85540602D01*
X145044903Y-85540609D01*
X144913800Y-85628210D01*
X144913796Y-85628213D01*
X144802302Y-85739707D01*
X144802299Y-85739711D01*
X144714698Y-85870814D01*
X144714691Y-85870827D01*
X144654353Y-86016498D01*
X144654350Y-86016510D01*
X144623589Y-86171153D01*
X123498179Y-86171153D01*
X123498179Y-85069448D01*
X137226361Y-85069448D01*
X137226361Y-85227141D01*
X137257122Y-85381784D01*
X137257125Y-85381796D01*
X137317463Y-85527467D01*
X137317470Y-85527480D01*
X137405071Y-85658583D01*
X137405074Y-85658587D01*
X137516568Y-85770081D01*
X137516572Y-85770084D01*
X137647675Y-85857685D01*
X137647688Y-85857692D01*
X137793359Y-85918030D01*
X137793364Y-85918032D01*
X137937080Y-85946619D01*
X137948014Y-85948794D01*
X137948017Y-85948795D01*
X137948019Y-85948795D01*
X138105705Y-85948795D01*
X138105706Y-85948794D01*
X138260358Y-85918032D01*
X138406040Y-85857689D01*
X138537150Y-85770084D01*
X138648650Y-85658584D01*
X138736255Y-85527474D01*
X138796598Y-85381792D01*
X138816295Y-85282770D01*
X138816296Y-85282765D01*
X142200467Y-85282765D01*
X142200467Y-85440458D01*
X142231228Y-85595101D01*
X142231231Y-85595113D01*
X142291569Y-85740784D01*
X142291576Y-85740797D01*
X142379177Y-85871900D01*
X142379180Y-85871904D01*
X142490674Y-85983398D01*
X142490678Y-85983401D01*
X142621781Y-86071002D01*
X142621794Y-86071009D01*
X142750877Y-86124476D01*
X142767470Y-86131349D01*
X142922120Y-86162111D01*
X142922123Y-86162112D01*
X142922125Y-86162112D01*
X143079811Y-86162112D01*
X143079812Y-86162111D01*
X143234464Y-86131349D01*
X143380146Y-86071006D01*
X143511256Y-85983401D01*
X143622756Y-85871901D01*
X143710361Y-85740791D01*
X143770704Y-85595109D01*
X143801467Y-85440454D01*
X143801467Y-85282770D01*
X143801467Y-85282767D01*
X143801466Y-85282765D01*
X143794948Y-85249995D01*
X143770704Y-85128115D01*
X143753877Y-85087490D01*
X143747258Y-85071510D01*
X143739789Y-85002041D01*
X143771064Y-84939562D01*
X143831154Y-84903910D01*
X143837628Y-84902441D01*
X143879343Y-84894142D01*
X143943662Y-84881349D01*
X144089344Y-84821006D01*
X144220454Y-84733401D01*
X144331954Y-84621901D01*
X144419559Y-84490791D01*
X144479902Y-84345109D01*
X144510665Y-84190454D01*
X144510665Y-84032770D01*
X144510665Y-84032767D01*
X144510664Y-84032765D01*
X144480277Y-83880000D01*
X144479902Y-83878115D01*
X144457180Y-83823258D01*
X144419562Y-83732439D01*
X144419555Y-83732426D01*
X144331954Y-83601323D01*
X144331951Y-83601319D01*
X144220457Y-83489825D01*
X144220453Y-83489822D01*
X144089350Y-83402221D01*
X144089337Y-83402214D01*
X143943666Y-83341876D01*
X143943654Y-83341873D01*
X143789010Y-83311112D01*
X143789007Y-83311112D01*
X143631323Y-83311112D01*
X143631320Y-83311112D01*
X143476675Y-83341873D01*
X143476663Y-83341876D01*
X143330992Y-83402214D01*
X143330979Y-83402221D01*
X143199876Y-83489822D01*
X143199872Y-83489825D01*
X143088378Y-83601319D01*
X143088375Y-83601323D01*
X143000774Y-83732426D01*
X143000767Y-83732439D01*
X142940429Y-83878110D01*
X142940426Y-83878122D01*
X142909665Y-84032765D01*
X142909665Y-84190458D01*
X142928770Y-84286502D01*
X142940428Y-84345109D01*
X142948434Y-84364437D01*
X142963874Y-84401714D01*
X142971342Y-84471183D01*
X142940066Y-84533662D01*
X142879976Y-84569314D01*
X142873504Y-84570782D01*
X142767475Y-84591873D01*
X142767465Y-84591876D01*
X142621794Y-84652214D01*
X142621781Y-84652221D01*
X142490678Y-84739822D01*
X142490674Y-84739825D01*
X142379180Y-84851319D01*
X142379177Y-84851323D01*
X142291576Y-84982426D01*
X142291569Y-84982439D01*
X142231231Y-85128110D01*
X142231228Y-85128122D01*
X142200467Y-85282765D01*
X138816296Y-85282765D01*
X138822319Y-85252487D01*
X138822319Y-85252486D01*
X138827361Y-85227139D01*
X138827361Y-85069450D01*
X138827360Y-85069448D01*
X138813952Y-85002041D01*
X138796598Y-84914798D01*
X138796596Y-84914793D01*
X138736258Y-84769122D01*
X138736251Y-84769109D01*
X138648650Y-84638006D01*
X138648647Y-84638002D01*
X138537153Y-84526508D01*
X138537149Y-84526505D01*
X138406046Y-84438904D01*
X138406033Y-84438897D01*
X138260362Y-84378559D01*
X138260350Y-84378556D01*
X138105706Y-84347795D01*
X138105703Y-84347795D01*
X137948019Y-84347795D01*
X137948016Y-84347795D01*
X137793371Y-84378556D01*
X137793359Y-84378559D01*
X137647688Y-84438897D01*
X137647675Y-84438904D01*
X137516572Y-84526505D01*
X137516568Y-84526508D01*
X137405074Y-84638002D01*
X137405071Y-84638006D01*
X137317470Y-84769109D01*
X137317463Y-84769122D01*
X137257125Y-84914793D01*
X137257122Y-84914805D01*
X137226361Y-85069448D01*
X123498179Y-85069448D01*
X123498179Y-82671153D01*
X154857019Y-82671153D01*
X154857019Y-82828846D01*
X154887780Y-82983489D01*
X154887783Y-82983501D01*
X154948121Y-83129172D01*
X154948128Y-83129185D01*
X155035729Y-83260288D01*
X155035732Y-83260292D01*
X155147226Y-83371786D01*
X155147230Y-83371789D01*
X155278333Y-83459390D01*
X155278346Y-83459397D01*
X155351807Y-83489825D01*
X155424022Y-83519737D01*
X155578672Y-83550499D01*
X155578675Y-83550500D01*
X155578677Y-83550500D01*
X155736363Y-83550500D01*
X155736364Y-83550499D01*
X155891016Y-83519737D01*
X156036698Y-83459394D01*
X156167808Y-83371789D01*
X156279308Y-83260289D01*
X156366913Y-83129179D01*
X156427256Y-82983497D01*
X156458019Y-82828842D01*
X156458019Y-82671158D01*
X156458019Y-82671155D01*
X156458018Y-82671153D01*
X156427257Y-82516510D01*
X156427256Y-82516503D01*
X156427254Y-82516498D01*
X156366916Y-82370827D01*
X156366909Y-82370814D01*
X156279308Y-82239711D01*
X156279305Y-82239707D01*
X156167811Y-82128213D01*
X156167807Y-82128210D01*
X156036704Y-82040609D01*
X156036691Y-82040602D01*
X155891020Y-81980264D01*
X155891008Y-81980261D01*
X155736364Y-81949500D01*
X155736361Y-81949500D01*
X155578677Y-81949500D01*
X155578674Y-81949500D01*
X155424029Y-81980261D01*
X155424017Y-81980264D01*
X155278346Y-82040602D01*
X155278333Y-82040609D01*
X155147230Y-82128210D01*
X155147226Y-82128213D01*
X155035732Y-82239707D01*
X155035729Y-82239711D01*
X154948128Y-82370814D01*
X154948121Y-82370827D01*
X154887783Y-82516498D01*
X154887780Y-82516510D01*
X154857019Y-82671153D01*
X123498179Y-82671153D01*
X123498179Y-80919621D01*
X135988999Y-80919621D01*
X135988999Y-81077314D01*
X136019760Y-81231957D01*
X136019763Y-81231969D01*
X136080101Y-81377640D01*
X136080108Y-81377653D01*
X136167709Y-81508756D01*
X136167712Y-81508760D01*
X136279206Y-81620254D01*
X136279210Y-81620257D01*
X136410313Y-81707858D01*
X136410326Y-81707865D01*
X136536891Y-81760289D01*
X136556002Y-81768205D01*
X136687808Y-81794423D01*
X136710652Y-81798967D01*
X136710655Y-81798968D01*
X136710657Y-81798968D01*
X136868343Y-81798968D01*
X136868344Y-81798967D01*
X137022996Y-81768205D01*
X137168678Y-81707862D01*
X137299788Y-81620257D01*
X137411288Y-81508757D01*
X137498893Y-81377647D01*
X137559236Y-81231965D01*
X137569882Y-81178444D01*
X137571332Y-81171153D01*
X143449500Y-81171153D01*
X143449500Y-81328846D01*
X143480261Y-81483489D01*
X143480264Y-81483501D01*
X143540602Y-81629172D01*
X143540609Y-81629185D01*
X143628210Y-81760288D01*
X143628213Y-81760292D01*
X143739707Y-81871786D01*
X143739711Y-81871789D01*
X143870814Y-81959390D01*
X143870827Y-81959397D01*
X143972943Y-82001694D01*
X144016503Y-82019737D01*
X144171153Y-82050499D01*
X144171156Y-82050500D01*
X144171158Y-82050500D01*
X144328844Y-82050500D01*
X144328845Y-82050499D01*
X144483497Y-82019737D01*
X144629179Y-81959394D01*
X144760289Y-81871789D01*
X144871789Y-81760289D01*
X144959394Y-81629179D01*
X145019737Y-81483497D01*
X145050500Y-81328842D01*
X145050500Y-81171158D01*
X145050500Y-81171155D01*
X145050499Y-81171153D01*
X145025279Y-81044364D01*
X145019737Y-81016503D01*
X145019735Y-81016498D01*
X144959397Y-80870827D01*
X144959390Y-80870814D01*
X144878046Y-80749075D01*
X144878045Y-80749074D01*
X144871786Y-80739707D01*
X144818348Y-80686269D01*
X146699500Y-80686269D01*
X146699500Y-80843962D01*
X146730261Y-80998605D01*
X146730264Y-80998617D01*
X146790602Y-81144288D01*
X146790609Y-81144301D01*
X146878210Y-81275404D01*
X146878213Y-81275408D01*
X146989707Y-81386902D01*
X146989711Y-81386905D01*
X147120814Y-81474506D01*
X147120827Y-81474513D01*
X147203501Y-81508757D01*
X147266503Y-81534853D01*
X147421153Y-81565615D01*
X147421156Y-81565616D01*
X147421158Y-81565616D01*
X147578844Y-81565616D01*
X147578845Y-81565615D01*
X147733497Y-81534853D01*
X147879179Y-81474510D01*
X148010289Y-81386905D01*
X148121789Y-81275405D01*
X148209394Y-81144295D01*
X148210812Y-81140873D01*
X148262324Y-81016510D01*
X148269737Y-80998613D01*
X148300500Y-80843958D01*
X148300500Y-80720418D01*
X150666143Y-80720418D01*
X150666143Y-80878111D01*
X150696904Y-81032754D01*
X150696907Y-81032766D01*
X150757245Y-81178437D01*
X150757252Y-81178450D01*
X150844853Y-81309553D01*
X150844856Y-81309557D01*
X150956350Y-81421051D01*
X150956354Y-81421054D01*
X151087457Y-81508655D01*
X151087470Y-81508662D01*
X151224969Y-81565615D01*
X151233146Y-81569002D01*
X151387796Y-81599764D01*
X151387799Y-81599765D01*
X151387801Y-81599765D01*
X151545487Y-81599765D01*
X151545488Y-81599764D01*
X151700140Y-81569002D01*
X151845578Y-81508760D01*
X151845815Y-81508662D01*
X151845815Y-81508661D01*
X151845822Y-81508659D01*
X151976932Y-81421054D01*
X152088432Y-81309554D01*
X152176037Y-81178444D01*
X152236380Y-81032762D01*
X152267143Y-80878107D01*
X152267143Y-80720423D01*
X152267143Y-80720420D01*
X152267142Y-80720418D01*
X152248801Y-80628211D01*
X152236380Y-80565768D01*
X152204240Y-80488175D01*
X152176040Y-80420092D01*
X152176033Y-80420079D01*
X152088432Y-80288976D01*
X152088429Y-80288972D01*
X151976935Y-80177478D01*
X151976931Y-80177475D01*
X151855399Y-80096269D01*
X153066143Y-80096269D01*
X153066143Y-80253962D01*
X153096904Y-80408605D01*
X153096907Y-80408617D01*
X153157245Y-80554288D01*
X153157252Y-80554301D01*
X153244853Y-80685404D01*
X153244856Y-80685408D01*
X153356350Y-80796902D01*
X153356354Y-80796905D01*
X153487457Y-80884506D01*
X153487470Y-80884513D01*
X153572242Y-80919626D01*
X153633146Y-80944853D01*
X153787796Y-80975615D01*
X153787799Y-80975616D01*
X153787801Y-80975616D01*
X153945487Y-80975616D01*
X153945488Y-80975615D01*
X154100140Y-80944853D01*
X154212809Y-80898183D01*
X154245815Y-80884513D01*
X154245815Y-80884512D01*
X154245822Y-80884510D01*
X154376932Y-80796905D01*
X154488432Y-80685405D01*
X154576037Y-80554295D01*
X154636380Y-80408613D01*
X154667143Y-80253958D01*
X154667143Y-80096274D01*
X154667143Y-80096271D01*
X154667142Y-80096269D01*
X154659076Y-80055718D01*
X154636380Y-79941619D01*
X154616034Y-79892499D01*
X154576040Y-79795943D01*
X154576033Y-79795930D01*
X154488432Y-79664827D01*
X154488429Y-79664823D01*
X154376935Y-79553329D01*
X154376931Y-79553326D01*
X154245828Y-79465725D01*
X154245815Y-79465718D01*
X154100144Y-79405380D01*
X154100132Y-79405377D01*
X153945488Y-79374616D01*
X153945485Y-79374616D01*
X153787801Y-79374616D01*
X153787798Y-79374616D01*
X153633153Y-79405377D01*
X153633141Y-79405380D01*
X153487470Y-79465718D01*
X153487457Y-79465725D01*
X153356354Y-79553326D01*
X153356350Y-79553329D01*
X153244856Y-79664823D01*
X153244853Y-79664827D01*
X153157252Y-79795930D01*
X153157245Y-79795943D01*
X153096907Y-79941614D01*
X153096904Y-79941626D01*
X153066143Y-80096269D01*
X151855399Y-80096269D01*
X151845828Y-80089874D01*
X151845815Y-80089867D01*
X151700144Y-80029529D01*
X151700132Y-80029526D01*
X151545488Y-79998765D01*
X151545485Y-79998765D01*
X151387801Y-79998765D01*
X151387798Y-79998765D01*
X151233153Y-80029526D01*
X151233141Y-80029529D01*
X151087470Y-80089867D01*
X151087457Y-80089874D01*
X150956354Y-80177475D01*
X150956350Y-80177478D01*
X150844856Y-80288972D01*
X150844853Y-80288976D01*
X150757252Y-80420079D01*
X150757245Y-80420092D01*
X150696907Y-80565763D01*
X150696904Y-80565775D01*
X150666143Y-80720418D01*
X148300500Y-80720418D01*
X148300500Y-80686274D01*
X148300500Y-80686271D01*
X148300499Y-80686269D01*
X148276531Y-80565775D01*
X148269737Y-80531619D01*
X148263904Y-80517536D01*
X148209397Y-80385943D01*
X148209390Y-80385930D01*
X148121789Y-80254827D01*
X148121786Y-80254823D01*
X148010292Y-80143329D01*
X148010288Y-80143326D01*
X147879185Y-80055725D01*
X147879172Y-80055718D01*
X147733501Y-79995380D01*
X147733489Y-79995377D01*
X147578845Y-79964616D01*
X147578842Y-79964616D01*
X147421158Y-79964616D01*
X147421155Y-79964616D01*
X147266510Y-79995377D01*
X147266498Y-79995380D01*
X147120827Y-80055718D01*
X147120814Y-80055725D01*
X146989711Y-80143326D01*
X146989707Y-80143329D01*
X146878213Y-80254823D01*
X146878210Y-80254827D01*
X146790609Y-80385930D01*
X146790602Y-80385943D01*
X146730264Y-80531614D01*
X146730261Y-80531626D01*
X146699500Y-80686269D01*
X144818348Y-80686269D01*
X144760292Y-80628213D01*
X144760288Y-80628210D01*
X144629185Y-80540609D01*
X144629172Y-80540602D01*
X144483501Y-80480264D01*
X144483489Y-80480261D01*
X144328845Y-80449500D01*
X144328842Y-80449500D01*
X144171158Y-80449500D01*
X144171155Y-80449500D01*
X144016510Y-80480261D01*
X144016498Y-80480264D01*
X143870827Y-80540602D01*
X143870814Y-80540609D01*
X143739711Y-80628210D01*
X143739707Y-80628213D01*
X143628213Y-80739707D01*
X143628210Y-80739711D01*
X143540609Y-80870814D01*
X143540602Y-80870827D01*
X143480264Y-81016498D01*
X143480261Y-81016510D01*
X143449500Y-81171153D01*
X137571332Y-81171153D01*
X137577356Y-81140874D01*
X137577356Y-81140873D01*
X137589998Y-81077314D01*
X137589999Y-81077312D01*
X137589999Y-80919623D01*
X137589998Y-80919621D01*
X137583226Y-80885576D01*
X137559236Y-80764971D01*
X137548773Y-80739711D01*
X137498896Y-80619295D01*
X137498889Y-80619282D01*
X137411288Y-80488179D01*
X137411285Y-80488175D01*
X137299791Y-80376681D01*
X137299787Y-80376678D01*
X137168684Y-80289077D01*
X137168671Y-80289070D01*
X137023000Y-80228732D01*
X137022988Y-80228729D01*
X136868344Y-80197968D01*
X136868341Y-80197968D01*
X136710657Y-80197968D01*
X136710654Y-80197968D01*
X136556009Y-80228729D01*
X136555997Y-80228732D01*
X136410326Y-80289070D01*
X136410313Y-80289077D01*
X136279210Y-80376678D01*
X136279206Y-80376681D01*
X136167712Y-80488175D01*
X136167709Y-80488179D01*
X136080108Y-80619282D01*
X136080101Y-80619295D01*
X136019763Y-80764966D01*
X136019760Y-80764978D01*
X135988999Y-80919621D01*
X123498179Y-80919621D01*
X123498179Y-79104262D01*
X158699500Y-79104262D01*
X158699500Y-79261955D01*
X158730261Y-79416598D01*
X158730264Y-79416610D01*
X158790602Y-79562281D01*
X158790609Y-79562294D01*
X158878210Y-79693397D01*
X158878213Y-79693401D01*
X158989707Y-79804895D01*
X158989711Y-79804898D01*
X159120814Y-79892499D01*
X159120827Y-79892506D01*
X159239386Y-79941614D01*
X159266503Y-79952846D01*
X159421153Y-79983608D01*
X159421156Y-79983609D01*
X159421158Y-79983609D01*
X159578844Y-79983609D01*
X159578845Y-79983608D01*
X159733497Y-79952846D01*
X159879179Y-79892503D01*
X160010289Y-79804898D01*
X160121789Y-79693398D01*
X160209394Y-79562288D01*
X160269737Y-79416606D01*
X160300500Y-79261951D01*
X160300500Y-79104267D01*
X160300500Y-79104264D01*
X160300499Y-79104262D01*
X160269738Y-78949619D01*
X160269737Y-78949612D01*
X160235469Y-78866880D01*
X160209397Y-78803936D01*
X160209390Y-78803923D01*
X160183180Y-78764697D01*
X160121789Y-78672820D01*
X160121786Y-78672816D01*
X160010292Y-78561322D01*
X160010288Y-78561319D01*
X159879185Y-78473718D01*
X159879172Y-78473711D01*
X159733501Y-78413373D01*
X159733489Y-78413370D01*
X159578845Y-78382609D01*
X159578842Y-78382609D01*
X159421158Y-78382609D01*
X159421155Y-78382609D01*
X159266510Y-78413370D01*
X159266498Y-78413373D01*
X159120827Y-78473711D01*
X159120814Y-78473718D01*
X158989711Y-78561319D01*
X158989707Y-78561322D01*
X158878213Y-78672816D01*
X158878210Y-78672820D01*
X158790609Y-78803923D01*
X158790602Y-78803936D01*
X158730264Y-78949607D01*
X158730261Y-78949619D01*
X158699500Y-79104262D01*
X123498179Y-79104262D01*
X123498179Y-77000000D01*
X128770898Y-77000000D01*
X130066988Y-77000000D01*
X130034075Y-77057007D01*
X130000000Y-77184174D01*
X130000000Y-77315826D01*
X130034075Y-77442993D01*
X130066988Y-77500000D01*
X128770898Y-77500000D01*
X128786934Y-77601247D01*
X128859897Y-77825802D01*
X128967085Y-78036171D01*
X129105866Y-78227186D01*
X129272813Y-78394133D01*
X129463828Y-78532914D01*
X129674197Y-78640102D01*
X129898752Y-78713065D01*
X129898751Y-78713065D01*
X130131948Y-78750000D01*
X131000000Y-78750000D01*
X131000000Y-77750000D01*
X131500000Y-77750000D01*
X131500000Y-78750000D01*
X132368052Y-78750000D01*
X132601247Y-78713065D01*
X132825802Y-78640102D01*
X133036171Y-78532914D01*
X133227186Y-78394133D01*
X133394133Y-78227186D01*
X133532914Y-78036171D01*
X133640102Y-77825802D01*
X133713065Y-77601247D01*
X133729102Y-77500000D01*
X132433012Y-77500000D01*
X132465925Y-77442993D01*
X132500000Y-77315826D01*
X132500000Y-77184174D01*
X132465925Y-77057007D01*
X132433012Y-77000000D01*
X133729102Y-77000000D01*
X133713065Y-76898752D01*
X133640102Y-76674197D01*
X133532914Y-76463828D01*
X133394133Y-76272813D01*
X133227186Y-76105866D01*
X133036171Y-75967085D01*
X132825802Y-75859897D01*
X132601247Y-75786934D01*
X132601248Y-75786934D01*
X132368052Y-75750000D01*
X131500000Y-75750000D01*
X131500000Y-76750000D01*
X131000000Y-76750000D01*
X131000000Y-75750000D01*
X130131948Y-75750000D01*
X129898752Y-75786934D01*
X129674197Y-75859897D01*
X129463828Y-75967085D01*
X129272813Y-76105866D01*
X129105866Y-76272813D01*
X128967085Y-76463828D01*
X128859897Y-76674197D01*
X128786934Y-76898752D01*
X128770898Y-77000000D01*
X123498179Y-77000000D01*
X123498179Y-72646530D01*
X128199500Y-72646530D01*
X128199500Y-72853469D01*
X128239868Y-73056412D01*
X128239870Y-73056420D01*
X128311878Y-73230263D01*
X128319059Y-73247598D01*
X128347793Y-73290602D01*
X128434024Y-73419657D01*
X128580342Y-73565975D01*
X128580345Y-73565977D01*
X128752402Y-73680941D01*
X128943580Y-73760130D01*
X129144519Y-73800099D01*
X129146530Y-73800499D01*
X129146534Y-73800500D01*
X129146535Y-73800500D01*
X129353466Y-73800500D01*
X129353467Y-73800499D01*
X129556420Y-73760130D01*
X129747598Y-73680941D01*
X129919655Y-73565977D01*
X130065977Y-73419655D01*
X130180941Y-73247598D01*
X130260130Y-73056420D01*
X130300500Y-72853465D01*
X130300500Y-72646535D01*
X130260130Y-72443580D01*
X130180941Y-72252402D01*
X130065977Y-72080345D01*
X130065975Y-72080342D01*
X129919657Y-71934024D01*
X129781474Y-71841694D01*
X129747598Y-71819059D01*
X129684669Y-71792993D01*
X129592529Y-71754827D01*
X129556420Y-71739870D01*
X129556412Y-71739868D01*
X129353469Y-71699500D01*
X129353465Y-71699500D01*
X129146535Y-71699500D01*
X129146530Y-71699500D01*
X128943587Y-71739868D01*
X128943579Y-71739870D01*
X128752403Y-71819058D01*
X128580342Y-71934024D01*
X128434024Y-72080342D01*
X128319058Y-72252403D01*
X128239870Y-72443579D01*
X128239868Y-72443587D01*
X128199500Y-72646530D01*
X123498179Y-72646530D01*
X123498179Y-71631947D01*
X130750000Y-71631947D01*
X130750000Y-72500000D01*
X131750000Y-72500000D01*
X131750000Y-73000000D01*
X130750000Y-73000000D01*
X130750000Y-73868052D01*
X130786934Y-74101247D01*
X130859897Y-74325802D01*
X130967085Y-74536171D01*
X131105866Y-74727186D01*
X131272813Y-74894133D01*
X131463828Y-75032914D01*
X131674195Y-75140102D01*
X131898744Y-75213063D01*
X131898750Y-75213065D01*
X132000000Y-75229101D01*
X132000000Y-73833012D01*
X132057007Y-73865925D01*
X132184174Y-73900000D01*
X132315826Y-73900000D01*
X132442993Y-73865925D01*
X132500000Y-73833012D01*
X132500000Y-75229100D01*
X132601249Y-75213065D01*
X132601255Y-75213063D01*
X132825804Y-75140102D01*
X133036171Y-75032914D01*
X133227186Y-74894133D01*
X133394133Y-74727186D01*
X133532914Y-74536171D01*
X133640102Y-74325802D01*
X133713065Y-74101247D01*
X133750000Y-73868052D01*
X133750000Y-73000000D01*
X132750000Y-73000000D01*
X132750000Y-72500000D01*
X133750000Y-72500000D01*
X133750000Y-71631947D01*
X133730938Y-71511596D01*
X133728637Y-71497070D01*
X136624500Y-71497070D01*
X136624500Y-74002930D01*
X136626513Y-74015637D01*
X136664526Y-74255640D01*
X136743588Y-74498972D01*
X136743589Y-74498975D01*
X136806167Y-74621789D01*
X136850804Y-74709394D01*
X136859750Y-74726950D01*
X137010132Y-74933935D01*
X137010136Y-74933940D01*
X137191059Y-75114863D01*
X137191064Y-75114867D01*
X137326223Y-75213065D01*
X137398053Y-75265252D01*
X137547080Y-75341185D01*
X137626024Y-75381410D01*
X137626027Y-75381411D01*
X137747693Y-75420942D01*
X137869361Y-75460474D01*
X138122070Y-75500500D01*
X138122071Y-75500500D01*
X138377929Y-75500500D01*
X138377930Y-75500500D01*
X138630639Y-75460474D01*
X138873975Y-75381410D01*
X139101947Y-75265252D01*
X139308942Y-75114862D01*
X139489862Y-74933942D01*
X139640252Y-74726947D01*
X139756410Y-74498975D01*
X139835474Y-74255639D01*
X139875500Y-74002930D01*
X139875500Y-73921153D01*
X166949500Y-73921153D01*
X166949500Y-74078846D01*
X166980261Y-74233489D01*
X166980264Y-74233501D01*
X167040602Y-74379172D01*
X167040609Y-74379185D01*
X167128210Y-74510288D01*
X167128213Y-74510292D01*
X167239707Y-74621786D01*
X167239711Y-74621789D01*
X167370814Y-74709390D01*
X167370827Y-74709397D01*
X167516498Y-74769735D01*
X167516503Y-74769737D01*
X167667569Y-74799786D01*
X167671153Y-74800499D01*
X167671156Y-74800500D01*
X167671158Y-74800500D01*
X167828844Y-74800500D01*
X167828845Y-74800499D01*
X167983497Y-74769737D01*
X168129179Y-74709394D01*
X168260289Y-74621789D01*
X168371789Y-74510289D01*
X168459394Y-74379179D01*
X168519737Y-74233497D01*
X168550500Y-74078842D01*
X168550500Y-73921158D01*
X168550500Y-73921155D01*
X168550499Y-73921153D01*
X168526499Y-73800499D01*
X168519737Y-73766503D01*
X168495093Y-73707007D01*
X168459397Y-73620827D01*
X168459390Y-73620814D01*
X168371789Y-73489711D01*
X168371786Y-73489707D01*
X168260292Y-73378213D01*
X168260288Y-73378210D01*
X168129185Y-73290609D01*
X168129172Y-73290602D01*
X167983501Y-73230264D01*
X167983489Y-73230261D01*
X167828845Y-73199500D01*
X167828842Y-73199500D01*
X167671158Y-73199500D01*
X167671155Y-73199500D01*
X167516510Y-73230261D01*
X167516498Y-73230264D01*
X167370827Y-73290602D01*
X167370814Y-73290609D01*
X167239711Y-73378210D01*
X167239707Y-73378213D01*
X167128213Y-73489707D01*
X167128210Y-73489711D01*
X167040609Y-73620814D01*
X167040602Y-73620827D01*
X166980264Y-73766498D01*
X166980261Y-73766510D01*
X166949500Y-73921153D01*
X139875500Y-73921153D01*
X139875500Y-72436269D01*
X143949500Y-72436269D01*
X143949500Y-72593962D01*
X143980261Y-72748605D01*
X143980264Y-72748617D01*
X144040602Y-72894288D01*
X144040609Y-72894301D01*
X144128210Y-73025404D01*
X144128213Y-73025408D01*
X144239707Y-73136902D01*
X144239711Y-73136905D01*
X144370814Y-73224506D01*
X144370827Y-73224513D01*
X144510511Y-73282371D01*
X144516503Y-73284853D01*
X144671153Y-73315615D01*
X144671156Y-73315616D01*
X144671158Y-73315616D01*
X144828844Y-73315616D01*
X144828845Y-73315615D01*
X144983497Y-73284853D01*
X145129179Y-73224510D01*
X145260289Y-73136905D01*
X145371789Y-73025405D01*
X145459394Y-72894295D01*
X145519737Y-72748613D01*
X145550500Y-72593958D01*
X145550500Y-72436274D01*
X145550500Y-72436271D01*
X145550499Y-72436269D01*
X145519738Y-72281626D01*
X145519737Y-72281619D01*
X145480242Y-72186269D01*
X164199500Y-72186269D01*
X164199500Y-72343962D01*
X164230261Y-72498605D01*
X164230264Y-72498617D01*
X164290602Y-72644288D01*
X164290609Y-72644301D01*
X164378210Y-72775404D01*
X164378213Y-72775408D01*
X164489707Y-72886902D01*
X164489711Y-72886905D01*
X164620814Y-72974506D01*
X164620827Y-72974513D01*
X164766498Y-73034851D01*
X164766503Y-73034853D01*
X164921153Y-73065615D01*
X164921156Y-73065616D01*
X164921158Y-73065616D01*
X165078844Y-73065616D01*
X165078845Y-73065615D01*
X165233497Y-73034853D01*
X165379179Y-72974510D01*
X165510289Y-72886905D01*
X165621789Y-72775405D01*
X165709394Y-72644295D01*
X165769737Y-72498613D01*
X165800500Y-72343958D01*
X165800500Y-72186274D01*
X165800500Y-72186271D01*
X165800499Y-72186269D01*
X165779429Y-72080345D01*
X165769737Y-72031619D01*
X165769735Y-72031614D01*
X165709397Y-71885943D01*
X165709390Y-71885930D01*
X165621789Y-71754827D01*
X165621786Y-71754823D01*
X165510292Y-71643329D01*
X165510288Y-71643326D01*
X165379185Y-71555725D01*
X165379172Y-71555718D01*
X165233501Y-71495380D01*
X165233489Y-71495377D01*
X165078845Y-71464616D01*
X165078842Y-71464616D01*
X164921158Y-71464616D01*
X164921155Y-71464616D01*
X164766510Y-71495377D01*
X164766498Y-71495380D01*
X164620827Y-71555718D01*
X164620814Y-71555725D01*
X164489711Y-71643326D01*
X164489707Y-71643329D01*
X164378213Y-71754823D01*
X164378210Y-71754827D01*
X164290609Y-71885930D01*
X164290602Y-71885943D01*
X164230264Y-72031614D01*
X164230261Y-72031626D01*
X164199500Y-72186269D01*
X145480242Y-72186269D01*
X145462312Y-72142981D01*
X145459397Y-72135943D01*
X145459390Y-72135930D01*
X145371789Y-72004827D01*
X145371786Y-72004823D01*
X145260292Y-71893329D01*
X145260288Y-71893326D01*
X145129185Y-71805725D01*
X145129172Y-71805718D01*
X144983501Y-71745380D01*
X144983489Y-71745377D01*
X144828845Y-71714616D01*
X144828842Y-71714616D01*
X144671158Y-71714616D01*
X144671155Y-71714616D01*
X144516510Y-71745377D01*
X144516498Y-71745380D01*
X144370827Y-71805718D01*
X144370814Y-71805725D01*
X144239711Y-71893326D01*
X144239707Y-71893329D01*
X144128213Y-72004823D01*
X144128210Y-72004827D01*
X144040609Y-72135930D01*
X144040602Y-72135943D01*
X143980264Y-72281614D01*
X143980261Y-72281626D01*
X143949500Y-72436269D01*
X139875500Y-72436269D01*
X139875500Y-71497070D01*
X139859928Y-71398752D01*
X139835474Y-71244360D01*
X139793145Y-71114085D01*
X139793144Y-71114083D01*
X139782278Y-71080639D01*
X172987500Y-71080639D01*
X172987500Y-71279360D01*
X173018587Y-71475637D01*
X173079993Y-71664629D01*
X173079994Y-71664632D01*
X173145398Y-71792993D01*
X173170213Y-71841694D01*
X173287019Y-72002464D01*
X173427536Y-72142981D01*
X173588306Y-72259787D01*
X173706832Y-72320179D01*
X173744780Y-72339515D01*
X173795576Y-72387490D01*
X173812371Y-72455311D01*
X173789833Y-72521446D01*
X173744780Y-72560485D01*
X173588305Y-72640213D01*
X173427533Y-72757021D01*
X173287021Y-72897533D01*
X173170213Y-73058305D01*
X173079994Y-73235367D01*
X173079993Y-73235370D01*
X173018587Y-73424362D01*
X172987500Y-73620639D01*
X172987500Y-73819360D01*
X173018587Y-74015637D01*
X173079993Y-74204629D01*
X173079994Y-74204632D01*
X173141734Y-74325802D01*
X173170213Y-74381694D01*
X173287019Y-74542464D01*
X173427536Y-74682981D01*
X173588306Y-74799787D01*
X173706832Y-74860179D01*
X173744780Y-74879515D01*
X173795576Y-74927490D01*
X173812371Y-74995311D01*
X173789833Y-75061446D01*
X173744780Y-75100485D01*
X173588305Y-75180213D01*
X173427533Y-75297021D01*
X173287021Y-75437533D01*
X173170213Y-75598305D01*
X173079994Y-75775367D01*
X173079993Y-75775370D01*
X173018587Y-75964362D01*
X172987500Y-76160639D01*
X172987500Y-76359360D01*
X173018587Y-76555637D01*
X173079993Y-76744629D01*
X173079994Y-76744632D01*
X173100092Y-76784075D01*
X173170213Y-76921694D01*
X173287019Y-77082464D01*
X173427536Y-77222981D01*
X173588306Y-77339787D01*
X173745332Y-77419796D01*
X173796127Y-77467769D01*
X173812922Y-77535590D01*
X173790385Y-77601725D01*
X173745332Y-77640764D01*
X173588566Y-77720641D01*
X173551283Y-77747729D01*
X173551282Y-77747730D01*
X174114058Y-78310504D01*
X174053919Y-78326619D01*
X173938080Y-78393498D01*
X173843498Y-78488080D01*
X173776619Y-78603919D01*
X173760504Y-78664057D01*
X173197730Y-78101282D01*
X173197729Y-78101283D01*
X173170643Y-78138564D01*
X173080457Y-78315562D01*
X173019075Y-78504476D01*
X173019075Y-78504479D01*
X172988000Y-78700678D01*
X172988000Y-78899321D01*
X173019075Y-79095520D01*
X173019075Y-79095523D01*
X173080457Y-79284437D01*
X173170641Y-79461432D01*
X173197730Y-79498715D01*
X173760504Y-78935941D01*
X173776619Y-78996081D01*
X173843498Y-79111920D01*
X173938080Y-79206502D01*
X174053919Y-79273381D01*
X174114057Y-79289494D01*
X173551283Y-79852268D01*
X173551283Y-79852269D01*
X173588567Y-79879358D01*
X173745331Y-79959234D01*
X173796127Y-80007209D01*
X173812922Y-80075030D01*
X173790384Y-80141165D01*
X173745331Y-80180204D01*
X173588305Y-80260213D01*
X173427533Y-80377021D01*
X173287021Y-80517533D01*
X173170213Y-80678305D01*
X173079994Y-80855367D01*
X173079993Y-80855370D01*
X173018587Y-81044362D01*
X172997350Y-81178450D01*
X172987500Y-81240639D01*
X172987500Y-81439361D01*
X172994491Y-81483501D01*
X173018587Y-81635637D01*
X173079993Y-81824629D01*
X173079994Y-81824632D01*
X173159292Y-81980261D01*
X173170213Y-82001694D01*
X173287019Y-82162464D01*
X173427536Y-82302981D01*
X173588306Y-82419787D01*
X173745332Y-82499796D01*
X173796127Y-82547769D01*
X173812922Y-82615590D01*
X173790385Y-82681725D01*
X173745332Y-82720764D01*
X173588566Y-82800641D01*
X173551283Y-82827729D01*
X173551282Y-82827730D01*
X174114058Y-83390504D01*
X174053919Y-83406619D01*
X173938080Y-83473498D01*
X173843498Y-83568080D01*
X173776619Y-83683919D01*
X173760504Y-83744057D01*
X173197730Y-83181282D01*
X173197729Y-83181283D01*
X173170643Y-83218564D01*
X173080457Y-83395562D01*
X173019075Y-83584476D01*
X173019075Y-83584479D01*
X172988000Y-83780678D01*
X172988000Y-83979321D01*
X173019075Y-84175520D01*
X173019075Y-84175523D01*
X173080457Y-84364437D01*
X173170641Y-84541432D01*
X173197730Y-84578715D01*
X173760504Y-84015941D01*
X173776619Y-84076081D01*
X173843498Y-84191920D01*
X173938080Y-84286502D01*
X174053919Y-84353381D01*
X174114057Y-84369494D01*
X173551283Y-84932268D01*
X173551283Y-84932269D01*
X173588567Y-84959358D01*
X173745331Y-85039234D01*
X173796127Y-85087209D01*
X173812922Y-85155030D01*
X173790384Y-85221165D01*
X173745331Y-85260204D01*
X173588305Y-85340213D01*
X173427533Y-85457021D01*
X173287021Y-85597533D01*
X173170213Y-85758305D01*
X173079994Y-85935367D01*
X173079993Y-85935370D01*
X173018587Y-86124362D01*
X173002819Y-86223919D01*
X172987500Y-86320639D01*
X172987500Y-86519361D01*
X172989329Y-86530907D01*
X173018587Y-86715637D01*
X173079993Y-86904629D01*
X173079994Y-86904632D01*
X173154318Y-87050499D01*
X173170213Y-87081694D01*
X173287019Y-87242464D01*
X173427536Y-87382981D01*
X173588306Y-87499787D01*
X173651278Y-87531873D01*
X173744780Y-87579515D01*
X173795576Y-87627490D01*
X173812371Y-87695311D01*
X173789833Y-87761446D01*
X173744780Y-87800485D01*
X173588305Y-87880213D01*
X173427533Y-87997021D01*
X173287021Y-88137533D01*
X173170213Y-88298305D01*
X173079994Y-88475367D01*
X173079993Y-88475370D01*
X173018587Y-88664362D01*
X172987500Y-88860639D01*
X172987500Y-89059360D01*
X173018587Y-89255637D01*
X173079993Y-89444629D01*
X173079994Y-89444632D01*
X173162200Y-89605968D01*
X173170213Y-89621694D01*
X173287019Y-89782464D01*
X173427536Y-89922981D01*
X173588306Y-90039787D01*
X173745332Y-90119796D01*
X173796127Y-90167769D01*
X173812922Y-90235590D01*
X173790385Y-90301725D01*
X173745332Y-90340764D01*
X173588566Y-90420641D01*
X173551283Y-90447729D01*
X173551282Y-90447730D01*
X174114058Y-91010504D01*
X174053919Y-91026619D01*
X173938080Y-91093498D01*
X173843498Y-91188080D01*
X173776619Y-91303919D01*
X173760504Y-91364057D01*
X173197730Y-90801282D01*
X173197729Y-90801283D01*
X173170643Y-90838564D01*
X173080457Y-91015562D01*
X173019075Y-91204476D01*
X173019075Y-91204479D01*
X172988000Y-91400678D01*
X172988000Y-91599321D01*
X173019075Y-91795520D01*
X173019075Y-91795523D01*
X173080457Y-91984437D01*
X173170641Y-92161432D01*
X173197730Y-92198715D01*
X173760504Y-91635941D01*
X173776619Y-91696081D01*
X173843498Y-91811920D01*
X173938080Y-91906502D01*
X174053919Y-91973381D01*
X174114057Y-91989494D01*
X173551283Y-92552268D01*
X173551283Y-92552269D01*
X173588567Y-92579358D01*
X173765562Y-92669542D01*
X173954477Y-92730924D01*
X174150679Y-92762000D01*
X174349321Y-92762000D01*
X174545520Y-92730924D01*
X174545523Y-92730924D01*
X174734437Y-92669542D01*
X174911425Y-92579362D01*
X174948716Y-92552268D01*
X174385942Y-91989494D01*
X174446081Y-91973381D01*
X174561920Y-91906502D01*
X174656502Y-91811920D01*
X174723381Y-91696081D01*
X174739495Y-91635942D01*
X175302268Y-92198715D01*
X175329362Y-92161425D01*
X175409515Y-92004117D01*
X175457489Y-91953321D01*
X175525310Y-91936526D01*
X175591445Y-91959063D01*
X175630485Y-92004117D01*
X175710641Y-92161432D01*
X175737730Y-92198715D01*
X176300504Y-91635941D01*
X176316619Y-91696081D01*
X176383498Y-91811920D01*
X176478080Y-91906502D01*
X176593919Y-91973381D01*
X176654057Y-91989494D01*
X176091283Y-92552268D01*
X176091283Y-92552269D01*
X176128567Y-92579358D01*
X176305562Y-92669542D01*
X176494477Y-92730924D01*
X176690679Y-92762000D01*
X176889321Y-92762000D01*
X177085520Y-92730924D01*
X177085523Y-92730924D01*
X177274437Y-92669542D01*
X177451425Y-92579362D01*
X177488716Y-92552268D01*
X176925942Y-91989494D01*
X176986081Y-91973381D01*
X177101920Y-91906502D01*
X177196502Y-91811920D01*
X177263381Y-91696081D01*
X177279495Y-91635942D01*
X177842268Y-92198715D01*
X177869362Y-92161425D01*
X177959542Y-91984437D01*
X178020924Y-91795523D01*
X178020924Y-91795520D01*
X178052000Y-91599321D01*
X178052000Y-91400678D01*
X178020924Y-91204479D01*
X178020924Y-91204476D01*
X177959542Y-91015562D01*
X177869358Y-90838567D01*
X177842268Y-90801283D01*
X177279494Y-91364057D01*
X177263381Y-91303919D01*
X177196502Y-91188080D01*
X177101920Y-91093498D01*
X176986081Y-91026619D01*
X176925942Y-91010504D01*
X177488716Y-90447731D01*
X177488715Y-90447730D01*
X177451432Y-90420641D01*
X177294117Y-90340485D01*
X177243321Y-90292510D01*
X177226526Y-90224689D01*
X177249063Y-90158554D01*
X177294117Y-90119515D01*
X177451425Y-90039362D01*
X177488716Y-90012268D01*
X176925942Y-89449494D01*
X176986081Y-89433381D01*
X177101920Y-89366502D01*
X177196502Y-89271920D01*
X177263381Y-89156081D01*
X177279495Y-89095942D01*
X177842268Y-89658715D01*
X177869362Y-89621425D01*
X177959542Y-89444437D01*
X178020924Y-89255523D01*
X178020924Y-89255520D01*
X178052000Y-89059321D01*
X178052000Y-88860678D01*
X178020924Y-88664479D01*
X178020924Y-88664476D01*
X177959542Y-88475562D01*
X177869358Y-88298567D01*
X177842268Y-88261283D01*
X177279494Y-88824057D01*
X177263381Y-88763919D01*
X177196502Y-88648080D01*
X177101920Y-88553498D01*
X176986081Y-88486619D01*
X176925942Y-88470504D01*
X177488716Y-87907731D01*
X177488715Y-87907730D01*
X177451432Y-87880641D01*
X177294117Y-87800485D01*
X177243321Y-87752510D01*
X177226526Y-87684689D01*
X177249063Y-87618554D01*
X177294117Y-87579515D01*
X177451425Y-87499362D01*
X177488716Y-87472268D01*
X176925942Y-86909494D01*
X176986081Y-86893381D01*
X177101920Y-86826502D01*
X177196502Y-86731920D01*
X177263381Y-86616081D01*
X177279495Y-86555942D01*
X177842268Y-87118715D01*
X177869362Y-87081425D01*
X177959542Y-86904437D01*
X178020924Y-86715523D01*
X178020924Y-86715520D01*
X178052000Y-86519321D01*
X178052000Y-86320678D01*
X178020924Y-86124479D01*
X178020924Y-86124476D01*
X177959542Y-85935562D01*
X177869358Y-85758567D01*
X177842268Y-85721283D01*
X177279494Y-86284057D01*
X177263381Y-86223919D01*
X177196502Y-86108080D01*
X177101920Y-86013498D01*
X176986081Y-85946619D01*
X176925942Y-85930504D01*
X177488716Y-85367731D01*
X177488715Y-85367730D01*
X177451432Y-85340641D01*
X177294117Y-85260485D01*
X177243321Y-85212510D01*
X177226526Y-85144689D01*
X177249063Y-85078554D01*
X177294117Y-85039515D01*
X177451425Y-84959362D01*
X177488716Y-84932268D01*
X176925942Y-84369494D01*
X176986081Y-84353381D01*
X177101920Y-84286502D01*
X177196502Y-84191920D01*
X177263381Y-84076081D01*
X177279495Y-84015942D01*
X177842268Y-84578715D01*
X177869362Y-84541425D01*
X177959542Y-84364437D01*
X178020924Y-84175523D01*
X178020924Y-84175520D01*
X178052000Y-83979321D01*
X178052000Y-83780678D01*
X178020924Y-83584479D01*
X178020924Y-83584476D01*
X177959542Y-83395562D01*
X177869358Y-83218567D01*
X177842268Y-83181283D01*
X177279494Y-83744057D01*
X177263381Y-83683919D01*
X177196502Y-83568080D01*
X177101920Y-83473498D01*
X176986081Y-83406619D01*
X176925942Y-83390504D01*
X177488716Y-82827731D01*
X177488715Y-82827730D01*
X177451432Y-82800641D01*
X177294668Y-82720765D01*
X177243872Y-82672790D01*
X177227077Y-82604969D01*
X177249615Y-82538834D01*
X177294667Y-82499796D01*
X177451694Y-82419787D01*
X177612464Y-82302981D01*
X177752981Y-82162464D01*
X177869787Y-82001694D01*
X177960005Y-81824632D01*
X178021413Y-81635636D01*
X178052500Y-81439361D01*
X178052500Y-81240639D01*
X178021413Y-81044364D01*
X177969474Y-80884510D01*
X177960006Y-80855370D01*
X177960005Y-80855367D01*
X177905845Y-80749074D01*
X177869787Y-80678306D01*
X177752981Y-80517536D01*
X177612464Y-80377019D01*
X177451694Y-80260213D01*
X177294667Y-80180203D01*
X177243872Y-80132229D01*
X177227077Y-80064408D01*
X177249614Y-79998273D01*
X177294669Y-79959234D01*
X177451422Y-79879364D01*
X177488716Y-79852268D01*
X176925942Y-79289494D01*
X176986081Y-79273381D01*
X177101920Y-79206502D01*
X177196502Y-79111920D01*
X177263381Y-78996081D01*
X177279495Y-78935942D01*
X177842268Y-79498715D01*
X177869362Y-79461425D01*
X177959542Y-79284437D01*
X178020924Y-79095523D01*
X178020924Y-79095520D01*
X178052000Y-78899321D01*
X178052000Y-78700678D01*
X178020924Y-78504479D01*
X178020924Y-78504476D01*
X177959542Y-78315562D01*
X177869358Y-78138567D01*
X177842268Y-78101283D01*
X177279494Y-78664057D01*
X177263381Y-78603919D01*
X177196502Y-78488080D01*
X177101920Y-78393498D01*
X176986081Y-78326619D01*
X176925942Y-78310504D01*
X177488716Y-77747731D01*
X177488715Y-77747730D01*
X177451432Y-77720641D01*
X177294668Y-77640765D01*
X177243872Y-77592790D01*
X177227077Y-77524969D01*
X177249615Y-77458834D01*
X177294667Y-77419796D01*
X177451694Y-77339787D01*
X177612464Y-77222981D01*
X177752981Y-77082464D01*
X177869787Y-76921694D01*
X177960005Y-76744632D01*
X178021413Y-76555636D01*
X178052500Y-76359361D01*
X178052500Y-76160639D01*
X178021413Y-75964364D01*
X177960005Y-75775368D01*
X177960005Y-75775367D01*
X177869786Y-75598305D01*
X177752981Y-75437536D01*
X177612464Y-75297019D01*
X177451694Y-75180213D01*
X177295218Y-75100484D01*
X177244423Y-75052510D01*
X177227628Y-74984689D01*
X177250165Y-74918554D01*
X177295218Y-74879515D01*
X177451694Y-74799787D01*
X177612464Y-74682981D01*
X177752981Y-74542464D01*
X177869787Y-74381694D01*
X177960005Y-74204632D01*
X178021413Y-74015636D01*
X178052500Y-73819361D01*
X178052500Y-73620639D01*
X178021413Y-73424364D01*
X177977953Y-73290606D01*
X177960006Y-73235370D01*
X177960005Y-73235367D01*
X177909834Y-73136902D01*
X177869787Y-73058306D01*
X177752981Y-72897536D01*
X177612464Y-72757019D01*
X177451694Y-72640213D01*
X177295218Y-72560484D01*
X177244423Y-72512510D01*
X177227628Y-72444689D01*
X177250165Y-72378554D01*
X177295218Y-72339515D01*
X177451694Y-72259787D01*
X177612464Y-72142981D01*
X177752981Y-72002464D01*
X177869787Y-71841694D01*
X177960005Y-71664632D01*
X178021413Y-71475636D01*
X178052500Y-71279361D01*
X178052500Y-71080639D01*
X178021413Y-70884364D01*
X177960005Y-70695368D01*
X177960005Y-70695367D01*
X177869786Y-70518305D01*
X177752981Y-70357536D01*
X177612464Y-70217019D01*
X177487625Y-70126318D01*
X177444959Y-70070988D01*
X177438980Y-70001375D01*
X177471586Y-69939580D01*
X177532424Y-69905223D01*
X177560510Y-69902000D01*
X177599828Y-69902000D01*
X177599844Y-69901999D01*
X177659372Y-69895598D01*
X177659379Y-69895596D01*
X177794086Y-69845354D01*
X177794093Y-69845350D01*
X177909187Y-69759190D01*
X177909190Y-69759187D01*
X177995350Y-69644093D01*
X177995354Y-69644086D01*
X178045596Y-69509379D01*
X178045598Y-69509372D01*
X178051999Y-69449844D01*
X178052000Y-69449827D01*
X178052000Y-68890000D01*
X177232251Y-68890000D01*
X177263381Y-68836081D01*
X177298000Y-68706880D01*
X177298000Y-68573120D01*
X177263381Y-68443919D01*
X177232251Y-68390000D01*
X178052000Y-68390000D01*
X178052000Y-67830172D01*
X178051999Y-67830155D01*
X178045598Y-67770627D01*
X178045596Y-67770620D01*
X177995354Y-67635913D01*
X177995350Y-67635906D01*
X177909190Y-67520812D01*
X177909187Y-67520809D01*
X177794093Y-67434649D01*
X177794086Y-67434645D01*
X177659379Y-67384403D01*
X177659372Y-67384401D01*
X177599844Y-67378000D01*
X177040000Y-67378000D01*
X177040000Y-68197748D01*
X176986081Y-68166619D01*
X176856880Y-68132000D01*
X176723120Y-68132000D01*
X176593919Y-68166619D01*
X176540000Y-68197748D01*
X176540000Y-67378000D01*
X175980155Y-67378000D01*
X175920627Y-67384401D01*
X175920620Y-67384403D01*
X175785913Y-67434645D01*
X175785906Y-67434649D01*
X175670812Y-67520809D01*
X175670809Y-67520812D01*
X175584649Y-67635906D01*
X175584645Y-67635913D01*
X175534403Y-67770620D01*
X175534401Y-67770627D01*
X175528000Y-67830155D01*
X175528000Y-67870342D01*
X175508315Y-67937381D01*
X175455511Y-67983136D01*
X175386353Y-67993080D01*
X175322797Y-67964055D01*
X175303683Y-67943229D01*
X175302269Y-67941283D01*
X175302268Y-67941283D01*
X174739494Y-68504057D01*
X174723381Y-68443919D01*
X174656502Y-68328080D01*
X174561920Y-68233498D01*
X174446081Y-68166619D01*
X174385942Y-68150504D01*
X174948716Y-67587731D01*
X174948715Y-67587730D01*
X174911432Y-67560641D01*
X174734437Y-67470457D01*
X174545522Y-67409075D01*
X174349321Y-67378000D01*
X174150679Y-67378000D01*
X173954479Y-67409075D01*
X173954476Y-67409075D01*
X173765562Y-67470457D01*
X173588564Y-67560643D01*
X173551283Y-67587729D01*
X173551282Y-67587730D01*
X174114058Y-68150504D01*
X174053919Y-68166619D01*
X173938080Y-68233498D01*
X173843498Y-68328080D01*
X173776619Y-68443919D01*
X173760504Y-68504057D01*
X173197730Y-67941282D01*
X173197729Y-67941283D01*
X173170643Y-67978564D01*
X173080457Y-68155562D01*
X173019075Y-68344476D01*
X173019075Y-68344479D01*
X172988000Y-68540678D01*
X172988000Y-68739321D01*
X173019075Y-68935520D01*
X173019075Y-68935523D01*
X173080457Y-69124437D01*
X173170641Y-69301432D01*
X173197730Y-69338715D01*
X173760504Y-68775941D01*
X173776619Y-68836081D01*
X173843498Y-68951920D01*
X173938080Y-69046502D01*
X174053919Y-69113381D01*
X174114057Y-69129494D01*
X173551283Y-69692268D01*
X173551283Y-69692269D01*
X173588567Y-69719358D01*
X173745331Y-69799234D01*
X173796127Y-69847209D01*
X173812922Y-69915030D01*
X173790384Y-69981165D01*
X173745331Y-70020204D01*
X173588305Y-70100213D01*
X173427533Y-70217021D01*
X173287021Y-70357533D01*
X173170213Y-70518305D01*
X173079994Y-70695367D01*
X173079993Y-70695370D01*
X173018587Y-70884362D01*
X172987500Y-71080639D01*
X139782278Y-71080639D01*
X139756412Y-71001030D01*
X139756410Y-71001024D01*
X139696967Y-70884362D01*
X139640252Y-70773053D01*
X139568853Y-70674780D01*
X139489867Y-70566064D01*
X139489863Y-70566059D01*
X139308940Y-70385136D01*
X139308935Y-70385132D01*
X139101950Y-70234750D01*
X139101949Y-70234749D01*
X139101947Y-70234748D01*
X139028910Y-70197533D01*
X138873975Y-70118589D01*
X138873972Y-70118588D01*
X138630640Y-70039526D01*
X138444191Y-70009995D01*
X138377930Y-69999500D01*
X138122070Y-69999500D01*
X138055809Y-70009995D01*
X137869359Y-70039526D01*
X137626027Y-70118588D01*
X137626024Y-70118589D01*
X137398049Y-70234750D01*
X137191064Y-70385132D01*
X137191059Y-70385136D01*
X137010136Y-70566059D01*
X137010132Y-70566064D01*
X136859750Y-70773049D01*
X136743589Y-71001024D01*
X136743588Y-71001027D01*
X136664526Y-71244359D01*
X136640072Y-71398752D01*
X136624500Y-71497070D01*
X133728637Y-71497070D01*
X133713065Y-71398751D01*
X133640102Y-71174197D01*
X133532914Y-70963828D01*
X133394133Y-70772813D01*
X133227186Y-70605866D01*
X133036171Y-70467085D01*
X132825802Y-70359897D01*
X132601247Y-70286934D01*
X132500000Y-70270897D01*
X132500000Y-71666988D01*
X132442993Y-71634075D01*
X132315826Y-71600000D01*
X132184174Y-71600000D01*
X132057007Y-71634075D01*
X132000000Y-71666988D01*
X132000000Y-70270897D01*
X131898752Y-70286934D01*
X131674197Y-70359897D01*
X131463828Y-70467085D01*
X131272813Y-70605866D01*
X131105866Y-70772813D01*
X130967085Y-70963828D01*
X130859897Y-71174197D01*
X130786934Y-71398752D01*
X130750000Y-71631947D01*
X123498179Y-71631947D01*
X123498179Y-68000000D01*
X128770898Y-68000000D01*
X130066988Y-68000000D01*
X130034075Y-68057007D01*
X130000000Y-68184174D01*
X130000000Y-68315826D01*
X130034075Y-68442993D01*
X130066988Y-68500000D01*
X128770898Y-68500000D01*
X128786934Y-68601247D01*
X128859897Y-68825802D01*
X128967085Y-69036171D01*
X129105866Y-69227186D01*
X129272813Y-69394133D01*
X129463828Y-69532914D01*
X129674197Y-69640102D01*
X129898752Y-69713065D01*
X129898751Y-69713065D01*
X130131948Y-69750000D01*
X131000000Y-69750000D01*
X131000000Y-68750000D01*
X131500000Y-68750000D01*
X131500000Y-69750000D01*
X132368052Y-69750000D01*
X132601247Y-69713065D01*
X132825802Y-69640102D01*
X133036171Y-69532914D01*
X133227186Y-69394133D01*
X133394133Y-69227186D01*
X133532914Y-69036171D01*
X133640102Y-68825802D01*
X133640832Y-68823556D01*
X147804430Y-68823556D01*
X147804430Y-68981249D01*
X147835191Y-69135892D01*
X147835194Y-69135904D01*
X147895532Y-69281575D01*
X147895539Y-69281588D01*
X147983140Y-69412691D01*
X147983143Y-69412695D01*
X148094637Y-69524189D01*
X148094641Y-69524192D01*
X148225744Y-69611793D01*
X148225757Y-69611800D01*
X148371428Y-69672138D01*
X148371433Y-69672140D01*
X148472623Y-69692268D01*
X148526083Y-69702902D01*
X148526086Y-69702903D01*
X148526088Y-69702903D01*
X148683774Y-69702903D01*
X148683775Y-69702902D01*
X148838427Y-69672140D01*
X148984109Y-69611797D01*
X149115219Y-69524192D01*
X149226719Y-69412692D01*
X149314324Y-69281582D01*
X149374667Y-69135900D01*
X149405430Y-68981245D01*
X149405430Y-68823561D01*
X149405430Y-68823558D01*
X149405429Y-68823556D01*
X149390798Y-68750000D01*
X149374667Y-68668906D01*
X149362694Y-68640000D01*
X149314327Y-68523230D01*
X149314320Y-68523217D01*
X149226719Y-68392114D01*
X149226716Y-68392110D01*
X149115222Y-68280616D01*
X149115218Y-68280613D01*
X148984115Y-68193012D01*
X148984102Y-68193005D01*
X148838431Y-68132667D01*
X148838419Y-68132664D01*
X148683775Y-68101903D01*
X148683772Y-68101903D01*
X148526088Y-68101903D01*
X148526085Y-68101903D01*
X148371440Y-68132664D01*
X148371428Y-68132667D01*
X148225757Y-68193005D01*
X148225744Y-68193012D01*
X148094641Y-68280613D01*
X148094637Y-68280616D01*
X147983143Y-68392110D01*
X147983140Y-68392114D01*
X147895539Y-68523217D01*
X147895532Y-68523230D01*
X147835194Y-68668901D01*
X147835191Y-68668913D01*
X147804430Y-68823556D01*
X133640832Y-68823556D01*
X133655261Y-68779151D01*
X133713065Y-68601247D01*
X133729102Y-68500000D01*
X132433012Y-68500000D01*
X132465925Y-68442993D01*
X132500000Y-68315826D01*
X132500000Y-68184174D01*
X132465925Y-68057007D01*
X132433012Y-68000000D01*
X133729102Y-68000000D01*
X133713065Y-67898752D01*
X133640102Y-67674197D01*
X133536753Y-67471361D01*
X133536752Y-67471359D01*
X133532916Y-67463831D01*
X133501909Y-67421153D01*
X163949501Y-67421153D01*
X163949501Y-67578846D01*
X163980262Y-67733489D01*
X163980265Y-67733501D01*
X164040603Y-67879172D01*
X164040610Y-67879185D01*
X164128211Y-68010288D01*
X164128214Y-68010292D01*
X164239708Y-68121786D01*
X164239712Y-68121789D01*
X164370815Y-68209390D01*
X164370828Y-68209397D01*
X164516499Y-68269735D01*
X164516504Y-68269737D01*
X164671154Y-68300499D01*
X164671157Y-68300500D01*
X164671159Y-68300500D01*
X164828845Y-68300500D01*
X164828846Y-68300499D01*
X164983498Y-68269737D01*
X165129180Y-68209394D01*
X165260290Y-68121789D01*
X165310926Y-68071153D01*
X165949501Y-68071153D01*
X165949501Y-68228846D01*
X165980262Y-68383489D01*
X165980265Y-68383501D01*
X166040603Y-68529172D01*
X166040610Y-68529185D01*
X166128211Y-68660288D01*
X166128214Y-68660292D01*
X166239708Y-68771786D01*
X166239712Y-68771789D01*
X166370815Y-68859390D01*
X166370828Y-68859397D01*
X166516499Y-68919735D01*
X166516504Y-68919737D01*
X166671154Y-68950499D01*
X166671157Y-68950500D01*
X166671159Y-68950500D01*
X166828845Y-68950500D01*
X166828846Y-68950499D01*
X166983498Y-68919737D01*
X167129180Y-68859394D01*
X167260290Y-68771789D01*
X167371790Y-68660289D01*
X167459395Y-68529179D01*
X167519738Y-68383497D01*
X167550501Y-68228842D01*
X167550501Y-68071158D01*
X167550501Y-68071155D01*
X167550500Y-68071153D01*
X169199501Y-68071153D01*
X169199501Y-68228846D01*
X169230262Y-68383489D01*
X169230265Y-68383501D01*
X169290603Y-68529172D01*
X169290610Y-68529185D01*
X169378211Y-68660288D01*
X169378214Y-68660292D01*
X169489708Y-68771786D01*
X169489712Y-68771789D01*
X169620815Y-68859390D01*
X169620828Y-68859397D01*
X169766499Y-68919735D01*
X169766504Y-68919737D01*
X169921154Y-68950499D01*
X169921157Y-68950500D01*
X169921159Y-68950500D01*
X170078845Y-68950500D01*
X170078846Y-68950499D01*
X170233498Y-68919737D01*
X170379180Y-68859394D01*
X170510290Y-68771789D01*
X170621790Y-68660289D01*
X170709395Y-68529179D01*
X170769738Y-68383497D01*
X170800501Y-68228842D01*
X170800501Y-68071158D01*
X170800501Y-68071155D01*
X170800500Y-68071153D01*
X170782083Y-67978564D01*
X170769738Y-67916503D01*
X170762385Y-67898752D01*
X170709398Y-67770827D01*
X170709391Y-67770814D01*
X170664668Y-67703881D01*
X170621790Y-67639711D01*
X170621787Y-67639707D01*
X170510293Y-67528213D01*
X170510289Y-67528210D01*
X170379186Y-67440609D01*
X170379173Y-67440602D01*
X170233502Y-67380264D01*
X170233490Y-67380261D01*
X170078846Y-67349500D01*
X170078843Y-67349500D01*
X169921159Y-67349500D01*
X169921156Y-67349500D01*
X169766511Y-67380261D01*
X169766499Y-67380264D01*
X169620828Y-67440602D01*
X169620815Y-67440609D01*
X169489712Y-67528210D01*
X169489708Y-67528213D01*
X169378214Y-67639707D01*
X169378211Y-67639711D01*
X169290610Y-67770814D01*
X169290603Y-67770827D01*
X169230265Y-67916498D01*
X169230262Y-67916510D01*
X169199501Y-68071153D01*
X167550500Y-68071153D01*
X167532083Y-67978564D01*
X167519738Y-67916503D01*
X167512385Y-67898752D01*
X167459398Y-67770827D01*
X167459391Y-67770814D01*
X167371790Y-67639711D01*
X167371787Y-67639707D01*
X167260293Y-67528213D01*
X167260289Y-67528210D01*
X167129186Y-67440609D01*
X167129173Y-67440602D01*
X166983502Y-67380264D01*
X166983490Y-67380261D01*
X166828846Y-67349500D01*
X166828843Y-67349500D01*
X166671159Y-67349500D01*
X166671156Y-67349500D01*
X166516511Y-67380261D01*
X166516499Y-67380264D01*
X166370828Y-67440602D01*
X166370815Y-67440609D01*
X166239712Y-67528210D01*
X166239708Y-67528213D01*
X166128214Y-67639707D01*
X166128211Y-67639711D01*
X166040610Y-67770814D01*
X166040603Y-67770827D01*
X165980265Y-67916498D01*
X165980262Y-67916510D01*
X165949501Y-68071153D01*
X165310926Y-68071153D01*
X165371790Y-68010289D01*
X165417899Y-67941283D01*
X165459391Y-67879185D01*
X165459391Y-67879184D01*
X165459395Y-67879179D01*
X165519738Y-67733497D01*
X165550501Y-67578842D01*
X165550501Y-67421158D01*
X165550501Y-67421155D01*
X165550500Y-67421153D01*
X165519738Y-67266503D01*
X165519736Y-67266498D01*
X165459398Y-67120827D01*
X165459391Y-67120814D01*
X165371790Y-66989711D01*
X165371787Y-66989707D01*
X165260293Y-66878213D01*
X165260289Y-66878210D01*
X165129186Y-66790609D01*
X165129173Y-66790602D01*
X164983502Y-66730264D01*
X164983490Y-66730261D01*
X164828846Y-66699500D01*
X164828843Y-66699500D01*
X164671159Y-66699500D01*
X164671156Y-66699500D01*
X164516511Y-66730261D01*
X164516499Y-66730264D01*
X164370828Y-66790602D01*
X164370815Y-66790609D01*
X164239712Y-66878210D01*
X164239708Y-66878213D01*
X164128214Y-66989707D01*
X164128211Y-66989711D01*
X164040610Y-67120814D01*
X164040603Y-67120827D01*
X163980265Y-67266498D01*
X163980262Y-67266510D01*
X163949501Y-67421153D01*
X133501909Y-67421153D01*
X133394133Y-67272813D01*
X133227186Y-67105866D01*
X133036171Y-66967085D01*
X132825802Y-66859897D01*
X132601247Y-66786934D01*
X132601248Y-66786934D01*
X132368052Y-66750000D01*
X131500000Y-66750000D01*
X131500000Y-67750000D01*
X131000000Y-67750000D01*
X131000000Y-66750000D01*
X130131948Y-66750000D01*
X129898752Y-66786934D01*
X129674197Y-66859897D01*
X129463828Y-66967085D01*
X129272813Y-67105866D01*
X129105866Y-67272813D01*
X128967085Y-67463828D01*
X128859897Y-67674197D01*
X128786934Y-67898752D01*
X128770898Y-68000000D01*
X123498179Y-68000000D01*
X123498179Y-65671153D01*
X134699500Y-65671153D01*
X134699500Y-65828846D01*
X134730261Y-65983489D01*
X134730264Y-65983501D01*
X134790602Y-66129172D01*
X134790609Y-66129185D01*
X134878210Y-66260288D01*
X134878213Y-66260292D01*
X134989707Y-66371786D01*
X134989711Y-66371789D01*
X135120814Y-66459390D01*
X135120827Y-66459397D01*
X135190925Y-66488432D01*
X135266503Y-66519737D01*
X135421153Y-66550499D01*
X135421156Y-66550500D01*
X135421158Y-66550500D01*
X135578844Y-66550500D01*
X135578845Y-66550499D01*
X135733497Y-66519737D01*
X135879179Y-66459394D01*
X136010289Y-66371789D01*
X136121789Y-66260289D01*
X136209394Y-66129179D01*
X136269737Y-65983497D01*
X136300500Y-65828842D01*
X136300500Y-65671158D01*
X136300500Y-65671155D01*
X136300499Y-65671153D01*
X136272569Y-65530741D01*
X136269737Y-65516503D01*
X136257706Y-65487457D01*
X136209397Y-65370827D01*
X136209390Y-65370814D01*
X136149512Y-65281201D01*
X136121789Y-65239710D01*
X136100476Y-65218397D01*
X138409268Y-65218397D01*
X138409268Y-65376090D01*
X138440029Y-65530733D01*
X138440032Y-65530745D01*
X138500370Y-65676416D01*
X138500377Y-65676429D01*
X138587978Y-65807532D01*
X138587981Y-65807536D01*
X138699475Y-65919030D01*
X138699479Y-65919033D01*
X138830582Y-66006634D01*
X138830595Y-66006641D01*
X138976266Y-66066979D01*
X138976271Y-66066981D01*
X139130921Y-66097743D01*
X139130924Y-66097744D01*
X139130926Y-66097744D01*
X139288612Y-66097744D01*
X139288613Y-66097743D01*
X139443265Y-66066981D01*
X139588947Y-66006638D01*
X139720057Y-65919033D01*
X139831557Y-65807533D01*
X139844745Y-65787796D01*
X147816143Y-65787796D01*
X147816143Y-65945489D01*
X147846904Y-66100132D01*
X147846907Y-66100144D01*
X147907245Y-66245815D01*
X147907252Y-66245828D01*
X147994853Y-66376931D01*
X147994856Y-66376935D01*
X148106350Y-66488429D01*
X148106354Y-66488432D01*
X148237457Y-66576033D01*
X148237470Y-66576040D01*
X148383141Y-66636378D01*
X148383146Y-66636380D01*
X148537796Y-66667142D01*
X148537799Y-66667143D01*
X148537801Y-66667143D01*
X148695487Y-66667143D01*
X148695488Y-66667142D01*
X148850140Y-66636380D01*
X148995822Y-66576037D01*
X149126932Y-66488432D01*
X149238432Y-66376932D01*
X149326037Y-66245822D01*
X149386380Y-66100140D01*
X149417143Y-65945485D01*
X149417143Y-65787801D01*
X149417143Y-65787798D01*
X149417142Y-65787796D01*
X149402228Y-65712818D01*
X149386380Y-65633146D01*
X149386378Y-65633141D01*
X149326040Y-65487470D01*
X149326033Y-65487457D01*
X149238432Y-65356354D01*
X149238429Y-65356350D01*
X149126935Y-65244856D01*
X149126931Y-65244853D01*
X148995828Y-65157252D01*
X148995815Y-65157245D01*
X148850144Y-65096907D01*
X148850132Y-65096904D01*
X148695488Y-65066143D01*
X148695485Y-65066143D01*
X148537801Y-65066143D01*
X148537798Y-65066143D01*
X148383153Y-65096904D01*
X148383141Y-65096907D01*
X148237470Y-65157245D01*
X148237457Y-65157252D01*
X148106354Y-65244853D01*
X148106350Y-65244856D01*
X147994856Y-65356350D01*
X147994853Y-65356354D01*
X147907252Y-65487457D01*
X147907245Y-65487470D01*
X147846907Y-65633141D01*
X147846904Y-65633153D01*
X147816143Y-65787796D01*
X139844745Y-65787796D01*
X139919162Y-65676423D01*
X139979505Y-65530741D01*
X140010268Y-65376086D01*
X140010268Y-65218402D01*
X140010268Y-65218399D01*
X140010267Y-65218397D01*
X140006595Y-65199935D01*
X139979505Y-65063747D01*
X139969918Y-65040602D01*
X139919165Y-64918071D01*
X139919158Y-64918058D01*
X139831557Y-64786955D01*
X139831554Y-64786951D01*
X139720060Y-64675457D01*
X139720056Y-64675454D01*
X139588953Y-64587853D01*
X139588940Y-64587846D01*
X139443269Y-64527508D01*
X139443257Y-64527505D01*
X139288613Y-64496744D01*
X139288610Y-64496744D01*
X139130926Y-64496744D01*
X139130923Y-64496744D01*
X138976278Y-64527505D01*
X138976266Y-64527508D01*
X138830595Y-64587846D01*
X138830582Y-64587853D01*
X138699479Y-64675454D01*
X138699475Y-64675457D01*
X138587981Y-64786951D01*
X138587978Y-64786955D01*
X138500377Y-64918058D01*
X138500370Y-64918071D01*
X138440032Y-65063742D01*
X138440029Y-65063754D01*
X138409268Y-65218397D01*
X136100476Y-65218397D01*
X136010292Y-65128213D01*
X136010288Y-65128210D01*
X135879185Y-65040609D01*
X135879172Y-65040602D01*
X135733501Y-64980264D01*
X135733489Y-64980261D01*
X135578845Y-64949500D01*
X135578842Y-64949500D01*
X135421158Y-64949500D01*
X135421155Y-64949500D01*
X135266510Y-64980261D01*
X135266498Y-64980264D01*
X135120827Y-65040602D01*
X135120814Y-65040609D01*
X134989711Y-65128210D01*
X134989707Y-65128213D01*
X134878213Y-65239707D01*
X134878210Y-65239711D01*
X134790609Y-65370814D01*
X134790602Y-65370827D01*
X134730264Y-65516498D01*
X134730261Y-65516510D01*
X134699500Y-65671153D01*
X123498179Y-65671153D01*
X123498179Y-65323937D01*
X123517864Y-65256898D01*
X123570668Y-65211143D01*
X123622179Y-65199937D01*
X130502825Y-65199937D01*
X130607879Y-65200197D01*
X130881174Y-65164889D01*
X131147515Y-65094183D01*
X131402338Y-64989290D01*
X131641274Y-64852008D01*
X131860230Y-64684690D01*
X132055452Y-64490204D01*
X132202758Y-64298937D01*
X132223594Y-64271883D01*
X132304061Y-64133047D01*
X132361778Y-64033465D01*
X132408506Y-63921153D01*
X143832857Y-63921153D01*
X143832857Y-64078846D01*
X143863618Y-64233489D01*
X143863621Y-64233501D01*
X143923959Y-64379172D01*
X143923966Y-64379185D01*
X144011567Y-64510288D01*
X144011570Y-64510292D01*
X144123064Y-64621786D01*
X144123068Y-64621789D01*
X144254171Y-64709390D01*
X144254184Y-64709397D01*
X144399855Y-64769735D01*
X144399860Y-64769737D01*
X144554510Y-64800499D01*
X144554513Y-64800500D01*
X144554515Y-64800500D01*
X144558519Y-64800500D01*
X144560540Y-64801093D01*
X144560575Y-64801097D01*
X144560574Y-64801103D01*
X144625558Y-64820185D01*
X144671313Y-64872989D01*
X144673072Y-64877029D01*
X144673963Y-64879179D01*
X144673964Y-64879180D01*
X144673966Y-64879185D01*
X144761567Y-65010288D01*
X144761570Y-65010292D01*
X144873064Y-65121786D01*
X144873068Y-65121789D01*
X145004171Y-65209390D01*
X145004184Y-65209397D01*
X145149855Y-65269735D01*
X145149860Y-65269737D01*
X145304510Y-65300499D01*
X145304513Y-65300500D01*
X145304515Y-65300500D01*
X145462201Y-65300500D01*
X145462202Y-65300499D01*
X145616854Y-65269737D01*
X145762536Y-65209394D01*
X145893646Y-65121789D01*
X146005146Y-65010289D01*
X146092751Y-64879179D01*
X146104152Y-64851652D01*
X146147988Y-64797252D01*
X146194519Y-64777490D01*
X146233497Y-64769737D01*
X146379179Y-64709394D01*
X146510289Y-64621789D01*
X146621789Y-64510289D01*
X146709394Y-64379179D01*
X146769737Y-64233497D01*
X146800500Y-64078842D01*
X146800500Y-64027350D01*
X146820185Y-63960311D01*
X146872989Y-63914556D01*
X146942147Y-63904612D01*
X146993391Y-63924248D01*
X147120814Y-64009390D01*
X147120827Y-64009397D01*
X147225596Y-64052793D01*
X147266503Y-64069737D01*
X147421153Y-64100499D01*
X147421156Y-64100500D01*
X147421158Y-64100500D01*
X147578844Y-64100500D01*
X147578845Y-64100499D01*
X147733497Y-64069737D01*
X147879179Y-64009394D01*
X148010289Y-63921789D01*
X148121789Y-63810289D01*
X148154042Y-63762019D01*
X148170377Y-63737573D01*
X148209390Y-63679185D01*
X148209390Y-63679184D01*
X148209394Y-63679179D01*
X148269737Y-63533497D01*
X148300500Y-63378842D01*
X148300500Y-63221158D01*
X148300500Y-63221155D01*
X148300499Y-63221153D01*
X148280542Y-63120823D01*
X148269737Y-63066503D01*
X148237929Y-62989711D01*
X148209397Y-62920827D01*
X148209390Y-62920814D01*
X148121789Y-62789711D01*
X148121786Y-62789707D01*
X148010292Y-62678213D01*
X148010288Y-62678210D01*
X147879185Y-62590609D01*
X147879172Y-62590602D01*
X147733501Y-62530264D01*
X147733489Y-62530261D01*
X147634467Y-62510564D01*
X147634466Y-62510564D01*
X147578844Y-62499500D01*
X147578842Y-62499500D01*
X147421158Y-62499500D01*
X147421155Y-62499500D01*
X147266510Y-62530261D01*
X147266498Y-62530264D01*
X147120827Y-62590602D01*
X147120814Y-62590609D01*
X146989711Y-62678210D01*
X146989707Y-62678213D01*
X146878213Y-62789707D01*
X146878210Y-62789711D01*
X146790609Y-62920814D01*
X146790602Y-62920827D01*
X146730264Y-63066498D01*
X146730261Y-63066510D01*
X146699500Y-63221153D01*
X146699500Y-63272649D01*
X146679815Y-63339688D01*
X146627011Y-63385443D01*
X146557853Y-63395387D01*
X146506609Y-63375751D01*
X146379185Y-63290609D01*
X146379172Y-63290602D01*
X146233501Y-63230264D01*
X146233489Y-63230261D01*
X146078845Y-63199500D01*
X146078842Y-63199500D01*
X146074838Y-63199500D01*
X146072816Y-63198906D01*
X146072782Y-63198903D01*
X146072782Y-63198896D01*
X146007799Y-63179815D01*
X145962044Y-63127011D01*
X145960275Y-63122949D01*
X145959394Y-63120821D01*
X145959391Y-63120816D01*
X145959390Y-63120814D01*
X145871789Y-62989711D01*
X145871786Y-62989707D01*
X145760292Y-62878213D01*
X145760288Y-62878210D01*
X145629185Y-62790609D01*
X145629172Y-62790602D01*
X145483501Y-62730264D01*
X145483489Y-62730261D01*
X145328845Y-62699500D01*
X145328842Y-62699500D01*
X145171158Y-62699500D01*
X145171155Y-62699500D01*
X145016510Y-62730261D01*
X145016498Y-62730264D01*
X144870827Y-62790602D01*
X144870814Y-62790609D01*
X144739711Y-62878210D01*
X144739707Y-62878213D01*
X144628213Y-62989707D01*
X144628210Y-62989711D01*
X144540609Y-63120814D01*
X144540604Y-63120823D01*
X144529203Y-63148348D01*
X144485360Y-63202750D01*
X144438837Y-63222509D01*
X144399862Y-63230262D01*
X144399857Y-63230263D01*
X144254184Y-63290602D01*
X144254171Y-63290609D01*
X144123068Y-63378210D01*
X144123064Y-63378213D01*
X144011570Y-63489707D01*
X144011567Y-63489711D01*
X143923966Y-63620814D01*
X143923959Y-63620827D01*
X143863621Y-63766498D01*
X143863618Y-63766510D01*
X143832857Y-63921153D01*
X132408506Y-63921153D01*
X132467632Y-63779040D01*
X132539343Y-63512968D01*
X132575682Y-63239808D01*
X132576026Y-62964242D01*
X132540370Y-62690992D01*
X132469324Y-62424741D01*
X132456549Y-62393819D01*
X149240465Y-62393819D01*
X149240465Y-62653534D01*
X149281094Y-62910054D01*
X149361348Y-63157054D01*
X149479261Y-63388468D01*
X149560416Y-63500169D01*
X149560417Y-63500170D01*
X150099986Y-62960600D01*
X150191389Y-63097394D01*
X150316748Y-63222753D01*
X150453540Y-63314154D01*
X149913970Y-63853723D01*
X149913971Y-63853725D01*
X150025673Y-63934880D01*
X150257087Y-64052793D01*
X150504087Y-64133047D01*
X150760608Y-64173677D01*
X151020322Y-64173677D01*
X151276842Y-64133047D01*
X151523842Y-64052793D01*
X151755253Y-63934882D01*
X151866957Y-63853723D01*
X151866958Y-63853723D01*
X151327389Y-63314154D01*
X151464182Y-63222753D01*
X151589541Y-63097394D01*
X151680942Y-62960601D01*
X152220511Y-63500170D01*
X152220511Y-63500169D01*
X152301670Y-63388465D01*
X152419581Y-63157054D01*
X152499835Y-62910054D01*
X152540465Y-62653534D01*
X152540465Y-62393819D01*
X153440465Y-62393819D01*
X153440465Y-62653534D01*
X153481094Y-62910054D01*
X153561348Y-63157054D01*
X153679261Y-63388468D01*
X153760416Y-63500169D01*
X153760417Y-63500170D01*
X154299986Y-62960600D01*
X154391389Y-63097394D01*
X154516748Y-63222753D01*
X154653540Y-63314154D01*
X154113970Y-63853723D01*
X154113971Y-63853725D01*
X154225673Y-63934880D01*
X154457087Y-64052793D01*
X154704087Y-64133047D01*
X154960608Y-64173677D01*
X155220322Y-64173677D01*
X155476842Y-64133047D01*
X155723842Y-64052793D01*
X155955253Y-63934882D01*
X156066957Y-63853723D01*
X156066958Y-63853723D01*
X155527389Y-63314154D01*
X155664182Y-63222753D01*
X155789541Y-63097394D01*
X155880942Y-62960601D01*
X156420511Y-63500170D01*
X156420511Y-63500169D01*
X156501670Y-63388465D01*
X156619581Y-63157054D01*
X156699835Y-62910054D01*
X156740465Y-62653534D01*
X156740465Y-62393819D01*
X156699835Y-62137299D01*
X156619581Y-61890299D01*
X156501668Y-61658885D01*
X156420513Y-61547183D01*
X156420511Y-61547182D01*
X155880942Y-62086751D01*
X155789541Y-61949960D01*
X155664182Y-61824601D01*
X155527389Y-61733199D01*
X155839435Y-61421153D01*
X160199500Y-61421153D01*
X160199500Y-61578846D01*
X160230261Y-61733489D01*
X160230264Y-61733501D01*
X160290602Y-61879172D01*
X160290609Y-61879185D01*
X160378210Y-62010288D01*
X160378213Y-62010292D01*
X160489707Y-62121786D01*
X160489711Y-62121789D01*
X160620814Y-62209390D01*
X160620827Y-62209397D01*
X160745789Y-62261157D01*
X160766503Y-62269737D01*
X160921153Y-62300499D01*
X160921156Y-62300500D01*
X160921158Y-62300500D01*
X161078844Y-62300500D01*
X161078845Y-62300499D01*
X161233497Y-62269737D01*
X161379179Y-62209394D01*
X161510289Y-62121789D01*
X161621789Y-62010289D01*
X161709394Y-61879179D01*
X161769737Y-61733497D01*
X161800500Y-61578842D01*
X161800500Y-61421158D01*
X161800500Y-61421155D01*
X161800499Y-61421153D01*
X161786288Y-61349711D01*
X161769737Y-61266503D01*
X161749107Y-61216698D01*
X161709397Y-61120827D01*
X161709390Y-61120814D01*
X161621789Y-60989711D01*
X161621786Y-60989707D01*
X161510292Y-60878213D01*
X161510288Y-60878210D01*
X161379185Y-60790609D01*
X161379172Y-60790602D01*
X161233501Y-60730264D01*
X161233489Y-60730261D01*
X161078845Y-60699500D01*
X161078842Y-60699500D01*
X160921158Y-60699500D01*
X160921155Y-60699500D01*
X160766510Y-60730261D01*
X160766498Y-60730264D01*
X160620827Y-60790602D01*
X160620814Y-60790609D01*
X160489711Y-60878210D01*
X160489707Y-60878213D01*
X160378213Y-60989707D01*
X160378210Y-60989711D01*
X160290609Y-61120814D01*
X160290602Y-61120827D01*
X160230264Y-61266498D01*
X160230261Y-61266510D01*
X160199500Y-61421153D01*
X155839435Y-61421153D01*
X155933203Y-61327385D01*
X156066958Y-61193629D01*
X156066957Y-61193628D01*
X155955256Y-61112473D01*
X155723842Y-60994560D01*
X155476842Y-60914306D01*
X155220322Y-60873677D01*
X154960608Y-60873677D01*
X154704087Y-60914306D01*
X154457087Y-60994560D01*
X154225680Y-61112469D01*
X154113971Y-61193629D01*
X154653541Y-61733199D01*
X154516748Y-61824601D01*
X154391389Y-61949960D01*
X154299987Y-62086753D01*
X153760417Y-61547183D01*
X153679257Y-61658892D01*
X153561348Y-61890299D01*
X153481094Y-62137299D01*
X153440465Y-62393819D01*
X152540465Y-62393819D01*
X152499835Y-62137299D01*
X152419581Y-61890299D01*
X152301668Y-61658885D01*
X152220513Y-61547183D01*
X152220511Y-61547182D01*
X151680942Y-62086751D01*
X151589541Y-61949960D01*
X151464182Y-61824601D01*
X151327389Y-61733199D01*
X151866958Y-61193629D01*
X151866957Y-61193628D01*
X151755256Y-61112473D01*
X151523842Y-60994560D01*
X151276842Y-60914306D01*
X151020322Y-60873677D01*
X150760608Y-60873677D01*
X150504087Y-60914306D01*
X150257087Y-60994560D01*
X150025680Y-61112469D01*
X149913971Y-61193629D01*
X150453541Y-61733199D01*
X150316748Y-61824601D01*
X150191389Y-61949960D01*
X150099987Y-62086752D01*
X149560417Y-61547183D01*
X149479257Y-61658892D01*
X149361348Y-61890299D01*
X149281094Y-62137299D01*
X149240465Y-62393819D01*
X132456549Y-62393819D01*
X132364107Y-62170053D01*
X132336293Y-62121786D01*
X132226522Y-61931294D01*
X132226520Y-61931293D01*
X132226520Y-61931292D01*
X132102737Y-61769735D01*
X132058925Y-61712552D01*
X132058923Y-61712550D01*
X131864185Y-61517574D01*
X131754791Y-61433545D01*
X131645651Y-61349711D01*
X131407058Y-61211832D01*
X131363146Y-61193628D01*
X131152498Y-61106302D01*
X130886335Y-61034931D01*
X130886336Y-61034931D01*
X130613130Y-60998941D01*
X130613119Y-60998940D01*
X130545663Y-60998938D01*
X130545631Y-60998937D01*
X130541251Y-60998937D01*
X123622179Y-60998937D01*
X123555140Y-60979252D01*
X123509385Y-60926448D01*
X123508233Y-60921153D01*
X145134600Y-60921153D01*
X145134600Y-61078846D01*
X145165361Y-61233489D01*
X145165364Y-61233501D01*
X145225702Y-61379172D01*
X145225709Y-61379185D01*
X145313310Y-61510288D01*
X145313313Y-61510292D01*
X145424807Y-61621786D01*
X145424811Y-61621789D01*
X145555914Y-61709390D01*
X145555927Y-61709397D01*
X145701598Y-61769735D01*
X145701603Y-61769737D01*
X145856253Y-61800499D01*
X145856256Y-61800500D01*
X145856258Y-61800500D01*
X146013944Y-61800500D01*
X146013945Y-61800499D01*
X146168597Y-61769737D01*
X146314279Y-61709394D01*
X146445389Y-61621789D01*
X146556889Y-61510289D01*
X146644494Y-61379179D01*
X146704837Y-61233497D01*
X146730138Y-61106302D01*
X146735600Y-61078844D01*
X146735600Y-60921155D01*
X146735599Y-60921153D01*
X146709631Y-60790606D01*
X146704837Y-60766503D01*
X146704835Y-60766498D01*
X146644497Y-60620827D01*
X146644490Y-60620814D01*
X146556889Y-60489711D01*
X146556886Y-60489707D01*
X146445392Y-60378213D01*
X146445388Y-60378210D01*
X146314285Y-60290609D01*
X146314272Y-60290602D01*
X146168601Y-60230264D01*
X146168589Y-60230261D01*
X146013945Y-60199500D01*
X146013942Y-60199500D01*
X145856258Y-60199500D01*
X145856255Y-60199500D01*
X145701610Y-60230261D01*
X145701598Y-60230264D01*
X145555927Y-60290602D01*
X145555914Y-60290609D01*
X145424811Y-60378210D01*
X145424807Y-60378213D01*
X145313313Y-60489707D01*
X145313310Y-60489711D01*
X145225709Y-60620814D01*
X145225702Y-60620827D01*
X145165364Y-60766498D01*
X145165361Y-60766510D01*
X145134600Y-60921153D01*
X123508233Y-60921153D01*
X123498179Y-60874937D01*
X123498179Y-55825812D01*
X149239965Y-55825812D01*
X149239965Y-58221547D01*
X149239966Y-58221553D01*
X149246373Y-58281160D01*
X149296667Y-58416005D01*
X149296671Y-58416012D01*
X149382917Y-58531221D01*
X149382920Y-58531224D01*
X149498129Y-58617470D01*
X149498136Y-58617474D01*
X149632982Y-58667768D01*
X149632981Y-58667768D01*
X149639909Y-58668512D01*
X149692592Y-58674177D01*
X152088337Y-58674176D01*
X152147948Y-58667768D01*
X152282796Y-58617473D01*
X152398011Y-58531223D01*
X152484261Y-58416008D01*
X152534556Y-58281160D01*
X152540965Y-58221550D01*
X152540964Y-56893774D01*
X153439965Y-56893774D01*
X153439965Y-57153579D01*
X153480605Y-57410170D01*
X153560887Y-57657253D01*
X153641999Y-57816441D01*
X153678831Y-57888728D01*
X153831534Y-58098906D01*
X154015236Y-58282608D01*
X154225414Y-58435311D01*
X154372910Y-58510464D01*
X154456888Y-58553254D01*
X154456890Y-58553254D01*
X154456893Y-58553256D01*
X154703972Y-58633537D01*
X154836171Y-58654474D01*
X154960563Y-58674177D01*
X154960568Y-58674177D01*
X155220367Y-58674177D01*
X155333763Y-58656216D01*
X155476958Y-58633537D01*
X155724037Y-58553256D01*
X155955516Y-58435311D01*
X156165694Y-58282608D01*
X156349396Y-58098906D01*
X156502099Y-57888728D01*
X156620044Y-57657249D01*
X156700325Y-57410170D01*
X156723004Y-57266975D01*
X156740965Y-57153579D01*
X156740965Y-56893774D01*
X156719412Y-56757698D01*
X156700325Y-56637184D01*
X156620044Y-56390105D01*
X156620042Y-56390102D01*
X156620042Y-56390100D01*
X156577252Y-56306122D01*
X156502099Y-56158626D01*
X156349396Y-55948448D01*
X156165694Y-55764746D01*
X155982087Y-55631348D01*
X155955519Y-55612045D01*
X155955518Y-55612044D01*
X155955516Y-55612043D01*
X155883229Y-55575211D01*
X155724041Y-55494099D01*
X155476958Y-55413817D01*
X155220367Y-55373177D01*
X155220362Y-55373177D01*
X154960568Y-55373177D01*
X154960563Y-55373177D01*
X154703971Y-55413817D01*
X154456888Y-55494099D01*
X154225410Y-55612045D01*
X154015239Y-55764743D01*
X154015233Y-55764748D01*
X153831536Y-55948445D01*
X153831531Y-55948451D01*
X153678833Y-56158622D01*
X153560887Y-56390100D01*
X153480605Y-56637183D01*
X153439965Y-56893774D01*
X152540964Y-56893774D01*
X152540964Y-55825805D01*
X152534556Y-55766194D01*
X152484261Y-55631346D01*
X152484260Y-55631345D01*
X152484258Y-55631341D01*
X152398012Y-55516132D01*
X152398009Y-55516129D01*
X152282800Y-55429883D01*
X152282793Y-55429879D01*
X152147947Y-55379585D01*
X152147948Y-55379585D01*
X152088348Y-55373178D01*
X152088346Y-55373177D01*
X152088338Y-55373177D01*
X152088329Y-55373177D01*
X149692594Y-55373177D01*
X149692588Y-55373178D01*
X149632981Y-55379585D01*
X149498136Y-55429879D01*
X149498129Y-55429883D01*
X149382920Y-55516129D01*
X149382917Y-55516132D01*
X149296671Y-55631341D01*
X149296667Y-55631348D01*
X149246373Y-55766194D01*
X149239966Y-55825793D01*
X149239966Y-55825800D01*
X149239965Y-55825812D01*
X123498179Y-55825812D01*
X123498179Y-52702388D01*
X144539965Y-52702388D01*
X144539965Y-52944965D01*
X144571626Y-53185462D01*
X144634412Y-53419781D01*
X144727238Y-53643882D01*
X144727241Y-53643889D01*
X144848529Y-53853966D01*
X144848531Y-53853969D01*
X144848532Y-53853970D01*
X144996198Y-54046413D01*
X144996204Y-54046420D01*
X145167721Y-54217937D01*
X145167727Y-54217942D01*
X145360176Y-54365613D01*
X145570253Y-54486901D01*
X145794365Y-54579731D01*
X146028676Y-54642515D01*
X146209051Y-54666261D01*
X146269176Y-54674177D01*
X146269177Y-54674177D01*
X146511754Y-54674177D01*
X146559853Y-54667844D01*
X146752254Y-54642515D01*
X146986565Y-54579731D01*
X147210677Y-54486901D01*
X147420754Y-54365613D01*
X147613203Y-54217942D01*
X147784730Y-54046415D01*
X147932401Y-53853966D01*
X148053689Y-53643889D01*
X148146519Y-53419777D01*
X148209303Y-53185466D01*
X148240965Y-52944965D01*
X148240965Y-52702389D01*
X148240965Y-52702388D01*
X157739965Y-52702388D01*
X157739965Y-52944965D01*
X157771626Y-53185462D01*
X157834412Y-53419781D01*
X157927238Y-53643882D01*
X157927241Y-53643889D01*
X158048529Y-53853966D01*
X158048531Y-53853969D01*
X158048532Y-53853970D01*
X158196198Y-54046413D01*
X158196204Y-54046420D01*
X158367721Y-54217937D01*
X158367727Y-54217942D01*
X158560176Y-54365613D01*
X158770253Y-54486901D01*
X158994365Y-54579731D01*
X159228676Y-54642515D01*
X159409051Y-54666261D01*
X159469176Y-54674177D01*
X159469177Y-54674177D01*
X159711754Y-54674177D01*
X159759853Y-54667844D01*
X159952254Y-54642515D01*
X160186565Y-54579731D01*
X160410677Y-54486901D01*
X160620754Y-54365613D01*
X160813203Y-54217942D01*
X160984730Y-54046415D01*
X161132401Y-53853966D01*
X161253689Y-53643889D01*
X161346519Y-53419777D01*
X161409303Y-53185466D01*
X161440965Y-52944965D01*
X161440965Y-52702389D01*
X161409303Y-52461888D01*
X161346519Y-52227577D01*
X161253689Y-52003465D01*
X161132401Y-51793388D01*
X160984730Y-51600939D01*
X160984725Y-51600933D01*
X160813208Y-51429416D01*
X160813201Y-51429410D01*
X160620758Y-51281744D01*
X160620757Y-51281743D01*
X160620754Y-51281741D01*
X160410677Y-51160453D01*
X160410670Y-51160450D01*
X160186569Y-51067624D01*
X159952250Y-51004838D01*
X159711754Y-50973177D01*
X159711753Y-50973177D01*
X159469177Y-50973177D01*
X159469176Y-50973177D01*
X159228679Y-51004838D01*
X158994360Y-51067624D01*
X158770259Y-51160450D01*
X158770250Y-51160454D01*
X158560171Y-51281744D01*
X158367728Y-51429410D01*
X158367721Y-51429416D01*
X158196204Y-51600933D01*
X158196198Y-51600940D01*
X158048532Y-51793383D01*
X157927242Y-52003462D01*
X157927238Y-52003471D01*
X157834412Y-52227572D01*
X157771626Y-52461891D01*
X157739965Y-52702388D01*
X148240965Y-52702388D01*
X148209303Y-52461888D01*
X148146519Y-52227577D01*
X148053689Y-52003465D01*
X147932401Y-51793388D01*
X147784730Y-51600939D01*
X147784725Y-51600933D01*
X147613208Y-51429416D01*
X147613201Y-51429410D01*
X147420758Y-51281744D01*
X147420757Y-51281743D01*
X147420754Y-51281741D01*
X147210677Y-51160453D01*
X147210670Y-51160450D01*
X146986569Y-51067624D01*
X146752250Y-51004838D01*
X146511754Y-50973177D01*
X146511753Y-50973177D01*
X146269177Y-50973177D01*
X146269176Y-50973177D01*
X146028679Y-51004838D01*
X145794360Y-51067624D01*
X145570259Y-51160450D01*
X145570250Y-51160454D01*
X145360171Y-51281744D01*
X145167728Y-51429410D01*
X145167721Y-51429416D01*
X144996204Y-51600933D01*
X144996198Y-51600940D01*
X144848532Y-51793383D01*
X144727242Y-52003462D01*
X144727238Y-52003471D01*
X144634412Y-52227572D01*
X144571626Y-52461891D01*
X144539965Y-52702388D01*
X123498179Y-52702388D01*
X123498179Y-50694500D01*
X123517864Y-50627461D01*
X123570668Y-50581706D01*
X123622179Y-50570500D01*
X143131787Y-50570500D01*
X162731787Y-50570500D01*
X182373179Y-50570500D01*
X182440218Y-50590185D01*
G37*
%TD.AperFunction*%
%TD*%
M02*
