%TF.GenerationSoftware,KiCad,Pcbnew,9.0.6*%
%TF.CreationDate,2026-03-21T23:11:38+00:00*%
%TF.ProjectId,Foinse,466f696e-7365-42e6-9b69-6361645f7063,rev?*%
%TF.SameCoordinates,Original*%
%TF.FileFunction,Soldermask,Top*%
%TF.FilePolarity,Negative*%
%FSLAX46Y46*%
G04 Gerber Fmt 4.6, Leading zero omitted, Abs format (unit mm)*
G04 Created by KiCad (PCBNEW 9.0.6) date 2026-03-21 23:11:38*
%MOMM*%
%LPD*%
G01*
G04 APERTURE LIST*
G04 Aperture macros list*
%AMRoundRect*
0 Rectangle with rounded corners*
0 $1 Rounding radius*
0 $2 $3 $4 $5 $6 $7 $8 $9 X,Y pos of 4 corners*
0 Add a 4 corners polygon primitive as box body*
4,1,4,$2,$3,$4,$5,$6,$7,$8,$9,$2,$3,0*
0 Add four circle primitives for the rounded corners*
1,1,$1+$1,$2,$3*
1,1,$1+$1,$4,$5*
1,1,$1+$1,$6,$7*
1,1,$1+$1,$8,$9*
0 Add four rect primitives between the rounded corners*
20,1,$1+$1,$2,$3,$4,$5,0*
20,1,$1+$1,$4,$5,$6,$7,0*
20,1,$1+$1,$6,$7,$8,$9,0*
20,1,$1+$1,$8,$9,$2,$3,0*%
G04 Aperture macros list end*
%ADD10C,3.100000*%
%ADD11C,0.000000*%
%ADD12C,0.010000*%
%ADD13C,1.676200*%
%ADD14C,1.226200*%
%ADD15RoundRect,0.225000X-0.225000X-0.250000X0.225000X-0.250000X0.225000X0.250000X-0.225000X0.250000X0*%
%ADD16RoundRect,0.225000X-0.250000X0.225000X-0.250000X-0.225000X0.250000X-0.225000X0.250000X0.225000X0*%
%ADD17RoundRect,0.140000X0.170000X-0.140000X0.170000X0.140000X-0.170000X0.140000X-0.170000X-0.140000X0*%
%ADD18RoundRect,0.225000X0.250000X-0.225000X0.250000X0.225000X-0.250000X0.225000X-0.250000X-0.225000X0*%
%ADD19RoundRect,0.102000X0.900000X0.500000X-0.900000X0.500000X-0.900000X-0.500000X0.900000X-0.500000X0*%
%ADD20RoundRect,0.135000X0.135000X0.185000X-0.135000X0.185000X-0.135000X-0.185000X0.135000X-0.185000X0*%
%ADD21RoundRect,0.140000X0.140000X0.170000X-0.140000X0.170000X-0.140000X-0.170000X0.140000X-0.170000X0*%
%ADD22RoundRect,0.140000X-0.170000X0.140000X-0.170000X-0.140000X0.170000X-0.140000X0.170000X0.140000X0*%
%ADD23RoundRect,0.147500X0.172500X-0.147500X0.172500X0.147500X-0.172500X0.147500X-0.172500X-0.147500X0*%
%ADD24RoundRect,0.135000X0.185000X-0.135000X0.185000X0.135000X-0.185000X0.135000X-0.185000X-0.135000X0*%
%ADD25RoundRect,0.075000X0.075000X-0.662500X0.075000X0.662500X-0.075000X0.662500X-0.075000X-0.662500X0*%
%ADD26RoundRect,0.075000X0.662500X-0.075000X0.662500X0.075000X-0.662500X0.075000X-0.662500X-0.075000X0*%
%ADD27RoundRect,0.102000X-0.900000X-0.500000X0.900000X-0.500000X0.900000X0.500000X-0.900000X0.500000X0*%
%ADD28R,0.249999X0.599999*%
%ADD29R,0.599999X0.249999*%
%ADD30R,1.699999X0.249999*%
%ADD31C,0.349905*%
%ADD32R,2.100001X0.399999*%
%ADD33RoundRect,0.102000X-1.075000X-3.450000X1.075000X-3.450000X1.075000X3.450000X-1.075000X3.450000X0*%
%ADD34RoundRect,0.140000X-0.140000X-0.170000X0.140000X-0.170000X0.140000X0.170000X-0.140000X0.170000X0*%
%ADD35R,0.889000X2.006600*%
%ADD36R,5.562600X6.045200*%
%ADD37R,0.838200X0.304800*%
%ADD38R,0.304800X0.838200*%
%ADD39RoundRect,0.135000X-0.135000X-0.185000X0.135000X-0.185000X0.135000X0.185000X-0.135000X0.185000X0*%
%ADD40R,1.295400X2.387600*%
%ADD41RoundRect,0.135000X-0.185000X0.135000X-0.185000X-0.135000X0.185000X-0.135000X0.185000X0.135000X0*%
%ADD42RoundRect,0.093750X-0.106250X0.093750X-0.106250X-0.093750X0.106250X-0.093750X0.106250X0.093750X0*%
%ADD43R,1.600000X1.000000*%
%ADD44C,3.200000*%
%ADD45R,0.127000X0.127000*%
%ADD46R,0.203200X1.295400*%
%ADD47R,2.057400X0.254000*%
%ADD48RoundRect,0.102000X0.762000X-0.762000X0.762000X0.762000X-0.762000X0.762000X-0.762000X-0.762000X0*%
%ADD49C,1.728000*%
%ADD50RoundRect,0.150000X-0.825000X-0.150000X0.825000X-0.150000X0.825000X0.150000X-0.825000X0.150000X0*%
%ADD51RoundRect,0.150000X-0.150000X0.512500X-0.150000X-0.512500X0.150000X-0.512500X0.150000X0.512500X0*%
%ADD52C,1.600000*%
%ADD53O,2.454000X4.704000*%
%ADD54O,2.204000X4.204000*%
%ADD55O,4.204000X2.204000*%
%ADD56RoundRect,0.102000X-1.200000X0.750000X-1.200000X-0.750000X1.200000X-0.750000X1.200000X0.750000X0*%
%ADD57R,2.006600X0.889000*%
%ADD58R,6.045200X5.562600*%
%ADD59RoundRect,0.087500X-0.250000X-0.087500X0.250000X-0.087500X0.250000X0.087500X-0.250000X0.087500X0*%
%ADD60RoundRect,0.150000X-0.587500X-0.150000X0.587500X-0.150000X0.587500X0.150000X-0.587500X0.150000X0*%
G04 APERTURE END LIST*
D10*
X132025358Y-97040563D02*
G75*
G02*
X128925358Y-97040563I-1550000J0D01*
G01*
X128925358Y-97040563D02*
G75*
G02*
X132025358Y-97040563I1550000J0D01*
G01*
X177070000Y-63099437D02*
G75*
G02*
X173970000Y-63099437I-1550000J0D01*
G01*
X173970000Y-63099437D02*
G75*
G02*
X177070000Y-63099437I1550000J0D01*
G01*
X132025358Y-63099437D02*
G75*
G02*
X128925358Y-63099437I-1550000J0D01*
G01*
X128925358Y-63099437D02*
G75*
G02*
X132025358Y-63099437I1550000J0D01*
G01*
X177070000Y-97040563D02*
G75*
G02*
X173970000Y-97040563I-1550000J0D01*
G01*
X173970000Y-97040563D02*
G75*
G02*
X177070000Y-97040563I1550000J0D01*
G01*
D11*
%TO.C,U19*%
G36*
X149120000Y-72717616D02*
G01*
X149120000Y-73227615D01*
X149369999Y-73227615D01*
X149369999Y-72717616D01*
X149419999Y-72667616D01*
X149569999Y-72667616D01*
X149619999Y-72717616D01*
X149619999Y-73227615D01*
X149870001Y-73227615D01*
X149870001Y-72717616D01*
X149920001Y-72667616D01*
X150070001Y-72667616D01*
X150120001Y-72717616D01*
X150120001Y-73227615D01*
X150144999Y-73227615D01*
X150144999Y-73577614D01*
X150094999Y-73627614D01*
X148095001Y-73627614D01*
X148045001Y-73577614D01*
X148045001Y-73277615D01*
X148095001Y-73227615D01*
X148820001Y-73227615D01*
X148870000Y-73177615D01*
X148870000Y-72717616D01*
X148920000Y-72667616D01*
X149070000Y-72667616D01*
X149120000Y-72717616D01*
G37*
D12*
%TO.C,J4*%
X149226200Y-108953104D02*
X148073800Y-108953104D01*
X148073800Y-106100704D01*
X149226200Y-106100704D01*
X149226200Y-108953104D01*
G36*
X149226200Y-108953104D02*
G01*
X148073800Y-108953104D01*
X148073800Y-106100704D01*
X149226200Y-106100704D01*
X149226200Y-108953104D01*
G37*
X150876200Y-105253104D02*
X150123800Y-105253104D01*
X150123800Y-103400704D01*
X150876200Y-103400704D01*
X150876200Y-105253104D01*
G36*
X150876200Y-105253104D02*
G01*
X150123800Y-105253104D01*
X150123800Y-103400704D01*
X150876200Y-103400704D01*
X150876200Y-105253104D01*
G37*
X152126200Y-105253104D02*
X151373800Y-105253104D01*
X151373800Y-103400704D01*
X152126200Y-103400704D01*
X152126200Y-105253104D01*
G36*
X152126200Y-105253104D02*
G01*
X151373800Y-105253104D01*
X151373800Y-103400704D01*
X152126200Y-103400704D01*
X152126200Y-105253104D01*
G37*
X153376200Y-105253104D02*
X152623800Y-105253104D01*
X152623800Y-103400704D01*
X153376200Y-103400704D01*
X153376200Y-105253104D01*
G36*
X153376200Y-105253104D02*
G01*
X152623800Y-105253104D01*
X152623800Y-103400704D01*
X153376200Y-103400704D01*
X153376200Y-105253104D01*
G37*
X154626200Y-105253104D02*
X153873800Y-105253104D01*
X153873800Y-103400704D01*
X154626200Y-103400704D01*
X154626200Y-105253104D01*
G36*
X154626200Y-105253104D02*
G01*
X153873800Y-105253104D01*
X153873800Y-103400704D01*
X154626200Y-103400704D01*
X154626200Y-105253104D01*
G37*
X155876200Y-105253104D02*
X155123800Y-105253104D01*
X155123800Y-103400704D01*
X155876200Y-103400704D01*
X155876200Y-105253104D01*
G36*
X155876200Y-105253104D02*
G01*
X155123800Y-105253104D01*
X155123800Y-103400704D01*
X155876200Y-103400704D01*
X155876200Y-105253104D01*
G37*
X157926200Y-108953104D02*
X156773800Y-108953104D01*
X156773800Y-106100704D01*
X157926200Y-106100704D01*
X157926200Y-108953104D01*
G36*
X157926200Y-108953104D02*
G01*
X156773800Y-108953104D01*
X156773800Y-106100704D01*
X157926200Y-106100704D01*
X157926200Y-108953104D01*
G37*
D11*
%TO.C,U6*%
G36*
X146617643Y-67402400D02*
G01*
X145347543Y-67402401D01*
X145347643Y-66589600D01*
X146617643Y-66589600D01*
X146617643Y-67402400D01*
G37*
G36*
X146617643Y-68402400D02*
G01*
X145347543Y-68402401D01*
X145347643Y-67589600D01*
X146617643Y-67589600D01*
X146617643Y-68402400D01*
G37*
%TO.C,U7*%
G36*
X168402402Y-71419100D02*
G01*
X167589601Y-71419000D01*
X167589601Y-70149000D01*
X168402401Y-70149000D01*
X168402402Y-71419100D01*
G37*
G36*
X169402402Y-71419100D02*
G01*
X168589601Y-71419000D01*
X168589601Y-70149000D01*
X169402401Y-70149000D01*
X169402402Y-71419100D01*
G37*
D13*
%TO.C,J15*%
X147228565Y-52823677D02*
G75*
G02*
X145552365Y-52823677I-838100J0D01*
G01*
X145552365Y-52823677D02*
G75*
G02*
X147228565Y-52823677I838100J0D01*
G01*
D14*
X151503565Y-62523677D02*
G75*
G02*
X150277365Y-62523677I-613100J0D01*
G01*
X150277365Y-62523677D02*
G75*
G02*
X151503565Y-62523677I613100J0D01*
G01*
X155703565Y-57023677D02*
G75*
G02*
X154477365Y-57023677I-613100J0D01*
G01*
X154477365Y-57023677D02*
G75*
G02*
X155703565Y-57023677I613100J0D01*
G01*
X155703565Y-62523677D02*
G75*
G02*
X154477365Y-62523677I-613100J0D01*
G01*
X154477365Y-62523677D02*
G75*
G02*
X155703565Y-62523677I613100J0D01*
G01*
D13*
X160428565Y-52823677D02*
G75*
G02*
X158752365Y-52823677I-838100J0D01*
G01*
X158752365Y-52823677D02*
G75*
G02*
X160428565Y-52823677I838100J0D01*
G01*
D12*
X152116665Y-58249877D02*
X149664265Y-58249877D01*
X149664265Y-55797477D01*
X152116665Y-55797477D01*
X152116665Y-58249877D01*
G36*
X152116665Y-58249877D02*
G01*
X149664265Y-58249877D01*
X149664265Y-55797477D01*
X152116665Y-55797477D01*
X152116665Y-58249877D01*
G37*
D11*
%TO.C,U2*%
G36*
X135551599Y-101674969D02*
G01*
X135551599Y-102970369D01*
X134700000Y-102974668D01*
X134700000Y-102720668D01*
X135208000Y-102720668D01*
X135200000Y-102174968D01*
X135350000Y-102174968D01*
X135350000Y-101674968D01*
X135551599Y-101674969D01*
G37*
G36*
X135274399Y-104974967D02*
G01*
X135551599Y-105224967D01*
X135551599Y-106270367D01*
X135348399Y-106270367D01*
X135348399Y-105770367D01*
X135200399Y-105770367D01*
X135208000Y-105224668D01*
X134700000Y-105224668D01*
X134700000Y-104970668D01*
X135274399Y-104974967D01*
G37*
G36*
X138401601Y-102174969D02*
G01*
X138948400Y-102174969D01*
X138948400Y-101674969D01*
X139151600Y-101674969D01*
X139151600Y-106270367D01*
X138948400Y-106270367D01*
X138948400Y-105770367D01*
X138401601Y-105770367D01*
X138401601Y-106270367D01*
X138198401Y-106270367D01*
X138198401Y-101674969D01*
X138401601Y-101674969D01*
X138401601Y-102174969D01*
G37*
G36*
X140251601Y-102174969D02*
G01*
X140791601Y-102174969D01*
X140792000Y-102720668D01*
X141300000Y-102720668D01*
X141300000Y-102974668D01*
X140792000Y-102974668D01*
X140792000Y-104970668D01*
X141300000Y-104970668D01*
X141300000Y-105224668D01*
X140792000Y-105224668D01*
X140791601Y-105770367D01*
X140251601Y-105770367D01*
X140251601Y-106270367D01*
X140048401Y-106270367D01*
X140048401Y-101674969D01*
X140251601Y-101674969D01*
X140251601Y-102174969D01*
G37*
%TD*%
D15*
%TO.C,C15*%
X168525000Y-87656489D03*
X166975000Y-87656489D03*
%TD*%
D16*
%TO.C,C48*%
X142250000Y-104310092D03*
X142250000Y-105860092D03*
%TD*%
%TO.C,C47*%
X143750000Y-104297198D03*
X143750000Y-105847198D03*
%TD*%
%TO.C,C46*%
X166000000Y-72975000D03*
X166000000Y-74525000D03*
%TD*%
%TO.C,C45*%
X164500000Y-72970116D03*
X164500000Y-74520116D03*
%TD*%
%TO.C,C44*%
X163000000Y-72975000D03*
X163000000Y-74525000D03*
%TD*%
%TO.C,C43*%
X161500000Y-72975000D03*
X161500000Y-74525000D03*
%TD*%
%TO.C,C42*%
X159866643Y-72975000D03*
X159866643Y-74525000D03*
%TD*%
%TO.C,C39*%
X146250000Y-72990116D03*
X146250000Y-74540116D03*
%TD*%
%TO.C,C38*%
X144500000Y-72990116D03*
X144500000Y-74540116D03*
%TD*%
%TO.C,C35*%
X145250000Y-104293064D03*
X145250000Y-105843064D03*
%TD*%
%TO.C,C34*%
X146750000Y-104225000D03*
X146750000Y-105775000D03*
%TD*%
D17*
%TO.C,C31*%
X147014905Y-103035022D03*
X147014905Y-102075022D03*
%TD*%
D18*
%TO.C,C30*%
X131041007Y-104859195D03*
X131041007Y-103309195D03*
%TD*%
%TO.C,C29*%
X132560883Y-104852286D03*
X132560883Y-103302286D03*
%TD*%
D15*
%TO.C,C21*%
X138241333Y-88401760D03*
X139791333Y-88401760D03*
%TD*%
%TO.C,C19*%
X138251006Y-89920473D03*
X139801006Y-89920473D03*
%TD*%
%TO.C,C16*%
X138357743Y-81939128D03*
X139907743Y-81939128D03*
%TD*%
%TO.C,C6*%
X153225000Y-99000000D03*
X154775000Y-99000000D03*
%TD*%
D19*
%TO.C,F1*%
X173664981Y-104347426D03*
%TD*%
D20*
%TO.C,R2*%
X168676249Y-86250000D03*
X167656249Y-86250000D03*
%TD*%
D21*
%TO.C,C25*%
X141500000Y-71398317D03*
X140540000Y-71398317D03*
%TD*%
D17*
%TO.C,C13*%
X156830950Y-88267714D03*
X156830950Y-87307714D03*
%TD*%
D21*
%TO.C,C14*%
X163230000Y-91000000D03*
X162270000Y-91000000D03*
%TD*%
D19*
%TO.C,CAN-*%
X170716998Y-90191984D03*
%TD*%
D22*
%TO.C,C9*%
X145492784Y-87023350D03*
X145492784Y-87983350D03*
%TD*%
D19*
%TO.C,F2*%
X170414981Y-104347426D03*
%TD*%
D23*
%TO.C,D12*%
X137440000Y-66840208D03*
X137440000Y-65870208D03*
%TD*%
D24*
%TO.C,R50*%
X136380466Y-66864185D03*
X136380466Y-65844185D03*
%TD*%
%TO.C,R56*%
X149524470Y-80765116D03*
X149524470Y-79745116D03*
%TD*%
D19*
%TO.C,S2*%
X170414981Y-108097426D03*
%TD*%
D22*
%TO.C,C37*%
X147500000Y-73285116D03*
X147500000Y-74245116D03*
%TD*%
D25*
%TO.C,U1*%
X147487122Y-95912500D03*
X147987122Y-95912500D03*
X148487122Y-95912500D03*
X148987122Y-95912500D03*
X149487122Y-95912500D03*
X149987122Y-95912500D03*
X150487122Y-95912500D03*
X150987122Y-95912500D03*
X151487122Y-95912500D03*
X151987122Y-95912500D03*
X152487122Y-95912500D03*
X152987122Y-95912500D03*
D26*
X154399622Y-94500000D03*
X154399622Y-94000000D03*
X154399622Y-93500000D03*
X154399622Y-93000000D03*
X154399622Y-92500000D03*
X154399622Y-92000000D03*
X154399622Y-91500000D03*
X154399622Y-91000000D03*
X154399622Y-90500000D03*
X154399622Y-90000000D03*
X154399622Y-89500000D03*
X154399622Y-89000000D03*
D25*
X152987122Y-87587500D03*
X152487122Y-87587500D03*
X151987122Y-87587500D03*
X151487122Y-87587500D03*
X150987122Y-87587500D03*
X150487122Y-87587500D03*
X149987122Y-87587500D03*
X149487122Y-87587500D03*
X148987122Y-87587500D03*
X148487122Y-87587500D03*
X147987122Y-87587500D03*
X147487122Y-87587500D03*
D26*
X146074622Y-89000000D03*
X146074622Y-89500000D03*
X146074622Y-90000000D03*
X146074622Y-90500000D03*
X146074622Y-91000000D03*
X146074622Y-91500000D03*
X146074622Y-92000000D03*
X146074622Y-92500000D03*
X146074622Y-93000000D03*
X146074622Y-93500000D03*
X146074622Y-94000000D03*
X146074622Y-94500000D03*
%TD*%
D27*
%TO.C,CAN+*%
X170679801Y-85152584D03*
%TD*%
D28*
%TO.C,U19*%
X148994999Y-75777615D03*
X149495000Y-75777615D03*
X149995000Y-75777615D03*
X150495001Y-75777615D03*
D29*
X151145000Y-75307616D03*
D30*
X150595001Y-74007616D03*
D29*
X151145000Y-73507614D03*
D31*
X148944999Y-73387617D03*
D32*
X149094999Y-74587615D03*
D29*
X148345000Y-75307616D03*
%TD*%
D33*
%TO.C,L1*%
X153150000Y-70015116D03*
X157900000Y-70015116D03*
%TD*%
D17*
%TO.C,C2*%
X144487122Y-94662500D03*
X144487122Y-93702500D03*
%TD*%
%TO.C,C40*%
X151135947Y-72237786D03*
X151135947Y-71277786D03*
%TD*%
D34*
%TO.C,C3*%
X155881426Y-90750000D03*
X156841426Y-90750000D03*
%TD*%
D22*
%TO.C,C28*%
X151947642Y-99520000D03*
X151947642Y-100480000D03*
%TD*%
D24*
%TO.C,R5*%
X144487122Y-92422500D03*
X144487122Y-91402500D03*
%TD*%
D35*
%TO.C,Q2*%
X127622712Y-92327826D03*
D36*
X129907711Y-85177726D03*
D35*
X132192710Y-92327826D03*
%TD*%
D27*
%TO.C,S1*%
X173664981Y-108097426D03*
%TD*%
D37*
%TO.C,U6*%
X145766643Y-66749999D03*
X145766643Y-67250000D03*
X145766643Y-67750000D03*
X145766643Y-68250001D03*
D38*
X147266644Y-68950000D03*
X147766643Y-68950000D03*
D37*
X148466643Y-68250001D03*
X148466643Y-67750000D03*
X148466643Y-67250000D03*
X148466643Y-66749999D03*
D38*
X147766643Y-66050000D03*
X147266644Y-66050000D03*
%TD*%
D20*
%TO.C,R10*%
X161045211Y-59500000D03*
X160025211Y-59500000D03*
%TD*%
D39*
%TO.C,R4*%
X136197370Y-99526904D03*
X137217370Y-99526904D03*
%TD*%
D40*
%TO.C,XTAL1*%
X148471589Y-99000000D03*
X150376589Y-99000000D03*
%TD*%
D27*
%TO.C,5VS*%
X167164981Y-104347426D03*
%TD*%
D21*
%TO.C,C1*%
X146560623Y-96152200D03*
X145600623Y-96152200D03*
%TD*%
%TO.C,C41*%
X150585260Y-78765117D03*
X149625260Y-78765117D03*
%TD*%
D34*
%TO.C,C20*%
X138545597Y-87148295D03*
X139505597Y-87148295D03*
%TD*%
D17*
%TO.C,C11*%
X133817083Y-104557256D03*
X133817083Y-103597256D03*
%TD*%
D34*
%TO.C,C4*%
X155881774Y-89739318D03*
X156841774Y-89739318D03*
%TD*%
D38*
%TO.C,U7*%
X167750000Y-71000000D03*
X168250001Y-71000000D03*
X168750001Y-71000000D03*
X169250002Y-71000000D03*
D37*
X169950001Y-69499999D03*
X169950001Y-69000000D03*
D38*
X169250002Y-68300000D03*
X168750001Y-68300000D03*
X168250001Y-68300000D03*
X167750000Y-68300000D03*
D37*
X167050001Y-69000000D03*
X167050001Y-69499999D03*
%TD*%
D39*
%TO.C,R58*%
X149519688Y-77066016D03*
X150539688Y-77066016D03*
%TD*%
D34*
%TO.C,C22*%
X143228247Y-82152964D03*
X144188247Y-82152964D03*
%TD*%
D39*
%TO.C,R8*%
X138144593Y-99400945D03*
X139164593Y-99400945D03*
%TD*%
D41*
%TO.C,R51*%
X147390166Y-76987492D03*
X147390166Y-78007492D03*
%TD*%
D20*
%TO.C,Ra2*%
X144239927Y-83149409D03*
X143219927Y-83149409D03*
%TD*%
D21*
%TO.C,C26*%
X139980000Y-66250000D03*
X139020000Y-66250000D03*
%TD*%
D20*
%TO.C,R3*%
X143029415Y-84471553D03*
X142009415Y-84471553D03*
%TD*%
D24*
%TO.C,R7*%
X143030608Y-87219702D03*
X143030608Y-86199702D03*
%TD*%
D39*
%TO.C,Rb2*%
X141288313Y-83146072D03*
X142308313Y-83146072D03*
%TD*%
D27*
%TO.C,3V3*%
X163914981Y-108097426D03*
%TD*%
D17*
%TO.C,C18*%
X141976754Y-86408014D03*
X141976754Y-85448014D03*
%TD*%
D22*
%TO.C,C36*%
X152640959Y-76966580D03*
X152640959Y-77926580D03*
%TD*%
%TO.C,C50*%
X142500000Y-102258948D03*
X142500000Y-103218948D03*
%TD*%
D42*
%TO.C,U8*%
X144908015Y-101377579D03*
X144258015Y-101377579D03*
X143608015Y-101377579D03*
X143608015Y-103152579D03*
X144258015Y-103152579D03*
X144908015Y-103152579D03*
D43*
X144258015Y-102265079D03*
%TD*%
D21*
%TO.C,C10*%
X139151658Y-100418988D03*
X138191658Y-100418988D03*
%TD*%
D41*
%TO.C,R6*%
X151616643Y-78740000D03*
X151616643Y-79760000D03*
%TD*%
%TO.C,R53*%
X148414636Y-76987072D03*
X148414636Y-78007072D03*
%TD*%
D34*
%TO.C,C7*%
X153020000Y-97500000D03*
X153980000Y-97500000D03*
%TD*%
D44*
%TO.C,J15*%
X159590465Y-52823677D03*
X146390465Y-52823677D03*
%TD*%
D17*
%TO.C,C8*%
X146541093Y-87118359D03*
X146541093Y-86158359D03*
%TD*%
D45*
%TO.C,U2*%
X135449999Y-105622667D03*
D46*
X135900000Y-105622667D03*
X136349999Y-105622667D03*
X136800001Y-105622667D03*
X137250000Y-105622667D03*
X137699999Y-105622667D03*
D45*
X138300001Y-105622667D03*
X139050000Y-105622667D03*
X140150001Y-105622667D03*
X141046000Y-105097668D03*
X141046000Y-102847668D03*
X140150001Y-102322669D03*
X139050000Y-102322669D03*
X138300001Y-102322669D03*
D46*
X137699999Y-102322669D03*
X137250000Y-102322669D03*
X136800001Y-102322669D03*
X136349999Y-102322669D03*
X135900000Y-102322669D03*
D45*
X135449999Y-102322669D03*
X134954000Y-102847668D03*
D47*
X135729000Y-103697667D03*
X135729000Y-104247669D03*
D45*
X134954000Y-105097668D03*
%TD*%
D48*
%TO.C,J1*%
X176790000Y-68640000D03*
D49*
X174250000Y-68640000D03*
X176790000Y-71180000D03*
X174250000Y-71180000D03*
X176790000Y-73720000D03*
X174250000Y-73720000D03*
X176790000Y-76260000D03*
X174250000Y-76260000D03*
X176790000Y-78800000D03*
X174250000Y-78800000D03*
X176790000Y-81340000D03*
X174250000Y-81340000D03*
X176790000Y-83880000D03*
X174250000Y-83880000D03*
X176790000Y-86420000D03*
X174250000Y-86420000D03*
X176790000Y-88960000D03*
X174250000Y-88960000D03*
X176790000Y-91500000D03*
X174250000Y-91500000D03*
%TD*%
D50*
%TO.C,U4*%
X160080097Y-85828527D03*
X160080097Y-87098527D03*
X160080097Y-88368527D03*
X160080097Y-89638527D03*
X165030097Y-89638527D03*
X165030097Y-88368527D03*
X165030097Y-87098527D03*
X165030097Y-85828527D03*
%TD*%
D27*
%TO.C,GND*%
X160664981Y-108097426D03*
%TD*%
D51*
%TO.C,U17*%
X142180069Y-67662500D03*
X141230069Y-67662500D03*
X140280069Y-67662500D03*
X140280069Y-69937500D03*
X141230069Y-69937500D03*
X142180069Y-69937500D03*
%TD*%
D52*
%TO.C,J3*%
X129250000Y-72750000D03*
D53*
X138250000Y-72750000D03*
D54*
X132250000Y-72750000D03*
D55*
X131250000Y-77250000D03*
X131250000Y-68250000D03*
%TD*%
D56*
%TO.C,SRP4020TA-4R7M1*%
X135776861Y-84923069D03*
X135776861Y-88623069D03*
%TD*%
D22*
%TO.C,C32*%
X151940504Y-97627464D03*
X151940504Y-98587464D03*
%TD*%
%TO.C,C51*%
X146076303Y-101770000D03*
X146076303Y-102730000D03*
%TD*%
D57*
%TO.C,Q1*%
X138535000Y-57340690D03*
D58*
X145685100Y-59625689D03*
D57*
X138535000Y-61910688D03*
%TD*%
D21*
%TO.C,C5*%
X146560623Y-97152200D03*
X145600623Y-97152200D03*
%TD*%
%TO.C,C33*%
X135239573Y-99683842D03*
X134279573Y-99683842D03*
%TD*%
D39*
%TO.C,R1*%
X167656249Y-89000000D03*
X168676249Y-89000000D03*
%TD*%
D22*
%TO.C,C24*%
X165750001Y-67520000D03*
X165750001Y-68480000D03*
%TD*%
D24*
%TO.C,R55*%
X150524470Y-80775116D03*
X150524470Y-79755116D03*
%TD*%
D27*
%TO.C,5VL*%
X167164981Y-108097426D03*
%TD*%
D20*
%TO.C,R12*%
X135274236Y-100729821D03*
X134254236Y-100729821D03*
%TD*%
D17*
%TO.C,C27*%
X146924089Y-99980000D03*
X146924089Y-99020000D03*
%TD*%
D21*
%TO.C,C23*%
X148230000Y-64750000D03*
X147270000Y-64750000D03*
%TD*%
D39*
%TO.C,R9*%
X160000000Y-60546023D03*
X161020000Y-60546023D03*
%TD*%
D24*
%TO.C,R52*%
X148524470Y-80775116D03*
X148524470Y-79755116D03*
%TD*%
D59*
%TO.C,U5*%
X139601861Y-84148295D03*
X139601861Y-84648295D03*
X139601861Y-85148295D03*
X141026861Y-85148295D03*
X141026861Y-84648295D03*
X141026861Y-84148295D03*
%TD*%
D34*
%TO.C,C17*%
X138598527Y-83195417D03*
X139558527Y-83195417D03*
%TD*%
D60*
%TO.C,D9*%
X170199539Y-86699000D03*
X170199539Y-88599000D03*
X172074539Y-87649000D03*
%TD*%
D18*
%TO.C,C12*%
X158056560Y-88567262D03*
X158056560Y-87017262D03*
%TD*%
M02*
