%TF.GenerationSoftware,KiCad,Pcbnew,9.0.6*%
%TF.CreationDate,2026-02-27T09:42:09+00:00*%
%TF.ProjectId,Foinse,466f696e-7365-42e6-9b69-6361645f7063,rev?*%
%TF.SameCoordinates,Original*%
%TF.FileFunction,Profile,NP*%
%FSLAX46Y46*%
G04 Gerber Fmt 4.6, Leading zero omitted, Abs format (unit mm)*
G04 Created by KiCad (PCBNEW 9.0.6) date 2026-02-27 09:42:09*
%MOMM*%
%LPD*%
G01*
G04 APERTURE LIST*
%TA.AperFunction,Profile*%
%ADD10C,0.200000*%
%TD*%
G04 APERTURE END LIST*
D10*
X182997679Y-64699437D02*
X175520000Y-64699437D01*
X122997679Y-50070000D02*
X122997679Y-61499437D01*
X182997679Y-50070000D02*
X162797679Y-50070000D01*
X182997679Y-61499437D02*
X182997679Y-50070000D01*
X175520000Y-64699437D02*
G75*
G02*
X175520000Y-61499363I0J1600037D01*
G01*
X130475358Y-98640563D02*
X122997679Y-98640563D01*
X130475359Y-95440563D02*
G75*
G02*
X130475358Y-98640637I41J-1600037D01*
G01*
X122997679Y-95440563D02*
X130475359Y-95440563D01*
X175520000Y-95440563D02*
X182997679Y-95440563D01*
X143197679Y-50070000D02*
X162797679Y-50070000D01*
X182997679Y-110070000D02*
X182997679Y-98640563D01*
X122997679Y-61499437D02*
X130475359Y-61499437D01*
X182997679Y-95440563D02*
X182997679Y-64699437D01*
X130475359Y-61499437D02*
G75*
G02*
X130471360Y-64699358I41J-1599963D01*
G01*
X175520000Y-98640563D02*
G75*
G02*
X175520000Y-95440637I0J1599963D01*
G01*
X143197679Y-50070000D02*
X122997679Y-50070000D01*
X122997679Y-98640563D02*
X122997679Y-110070000D01*
X122997679Y-110070000D02*
X182997679Y-110070000D01*
X122997679Y-64699437D02*
X122997679Y-95440563D01*
X130471360Y-64699437D02*
X122997679Y-64699437D01*
X182997679Y-98640563D02*
X175520000Y-98640563D01*
X175520000Y-61499437D02*
X182997679Y-61499437D01*
M02*
