%TF.GenerationSoftware,KiCad,Pcbnew,9.0.6*%
%TF.CreationDate,2026-02-27T09:42:09+00:00*%
%TF.ProjectId,Foinse,466f696e-7365-42e6-9b69-6361645f7063,rev?*%
%TF.SameCoordinates,Original*%
%TF.FileFunction,Paste,Top*%
%TF.FilePolarity,Positive*%
%FSLAX46Y46*%
G04 Gerber Fmt 4.6, Leading zero omitted, Abs format (unit mm)*
G04 Created by KiCad (PCBNEW 9.0.6) date 2026-02-27 09:42:09*
%MOMM*%
%LPD*%
G01*
G04 APERTURE LIST*
G04 Aperture macros list*
%AMRoundRect*
0 Rectangle with rounded corners*
0 $1 Rounding radius*
0 $2 $3 $4 $5 $6 $7 $8 $9 X,Y pos of 4 corners*
0 Add a 4 corners polygon primitive as box body*
4,1,4,$2,$3,$4,$5,$6,$7,$8,$9,$2,$3,0*
0 Add four circle primitives for the rounded corners*
1,1,$1+$1,$2,$3*
1,1,$1+$1,$4,$5*
1,1,$1+$1,$6,$7*
1,1,$1+$1,$8,$9*
0 Add four rect primitives between the rounded corners*
20,1,$1+$1,$2,$3,$4,$5,0*
20,1,$1+$1,$4,$5,$6,$7,0*
20,1,$1+$1,$6,$7,$8,$9,0*
20,1,$1+$1,$8,$9,$2,$3,0*%
G04 Aperture macros list end*
%ADD10C,0.000000*%
%ADD11R,1.800000X1.000000*%
%ADD12RoundRect,0.135000X0.135000X0.185000X-0.135000X0.185000X-0.135000X-0.185000X0.135000X-0.185000X0*%
%ADD13RoundRect,0.140000X0.140000X0.170000X-0.140000X0.170000X-0.140000X-0.170000X0.140000X-0.170000X0*%
%ADD14RoundRect,0.140000X0.170000X-0.140000X0.170000X0.140000X-0.170000X0.140000X-0.170000X-0.140000X0*%
%ADD15RoundRect,0.140000X-0.140000X-0.170000X0.140000X-0.170000X0.140000X0.170000X-0.140000X0.170000X0*%
%ADD16RoundRect,0.140000X-0.170000X0.140000X-0.170000X-0.140000X0.170000X-0.140000X0.170000X0.140000X0*%
%ADD17RoundRect,0.147500X0.172500X-0.147500X0.172500X0.147500X-0.172500X0.147500X-0.172500X-0.147500X0*%
%ADD18RoundRect,0.135000X0.185000X-0.135000X0.185000X0.135000X-0.185000X0.135000X-0.185000X-0.135000X0*%
%ADD19RoundRect,0.075000X0.075000X-0.662500X0.075000X0.662500X-0.075000X0.662500X-0.075000X-0.662500X0*%
%ADD20RoundRect,0.075000X0.662500X-0.075000X0.662500X0.075000X-0.662500X0.075000X-0.662500X-0.075000X0*%
%ADD21R,0.249999X0.599999*%
%ADD22R,0.599999X0.249999*%
%ADD23C,0.349905*%
%ADD24R,2.150000X6.900000*%
%ADD25R,0.600000X1.700000*%
%ADD26R,1.000000X2.700000*%
%ADD27R,0.889000X2.006600*%
%ADD28R,5.562600X6.045200*%
%ADD29R,0.838200X0.304800*%
%ADD30R,0.304800X0.838200*%
%ADD31RoundRect,0.135000X-0.135000X-0.185000X0.135000X-0.185000X0.135000X0.185000X-0.135000X0.185000X0*%
%ADD32R,1.295400X2.387600*%
%ADD33RoundRect,0.135000X-0.185000X0.135000X-0.185000X-0.135000X0.185000X-0.135000X0.185000X0.135000X0*%
%ADD34RoundRect,0.160000X-0.160000X0.245000X-0.160000X-0.245000X0.160000X-0.245000X0.160000X0.245000X0*%
%ADD35RoundRect,0.093750X-0.106250X0.093750X-0.106250X-0.093750X0.106250X-0.093750X0.106250X0.093750X0*%
%ADD36R,0.127000X0.127000*%
%ADD37R,0.203200X1.295400*%
%ADD38R,2.057400X0.254000*%
%ADD39RoundRect,0.150000X-0.825000X-0.150000X0.825000X-0.150000X0.825000X0.150000X-0.825000X0.150000X0*%
%ADD40RoundRect,0.150000X-0.150000X0.512500X-0.150000X-0.512500X0.150000X-0.512500X0.150000X0.512500X0*%
%ADD41R,2.400000X1.500000*%
%ADD42R,2.006600X0.889000*%
%ADD43R,6.045200X5.562600*%
%ADD44RoundRect,0.087500X-0.250000X-0.087500X0.250000X-0.087500X0.250000X0.087500X-0.250000X0.087500X0*%
%ADD45RoundRect,0.150000X-0.587500X-0.150000X0.587500X-0.150000X0.587500X0.150000X-0.587500X0.150000X0*%
G04 APERTURE END LIST*
D10*
%TO.C,U19*%
G36*
X148990000Y-74437615D02*
G01*
X148990000Y-74737614D01*
X148940000Y-74787614D01*
X148090000Y-74787614D01*
X148040000Y-74737614D01*
X148040000Y-74437615D01*
X148090000Y-74387615D01*
X148940000Y-74387615D01*
X148990000Y-74437615D01*
G37*
G36*
X150500000Y-73932615D02*
G01*
X150500000Y-74082614D01*
X150450000Y-74132614D01*
X149800001Y-74132614D01*
X149750001Y-74082614D01*
X149750001Y-73932615D01*
X149800001Y-73882615D01*
X150450000Y-73882615D01*
X150500000Y-73932615D01*
G37*
G36*
X150140000Y-74437615D02*
G01*
X150140000Y-74737614D01*
X150090001Y-74787614D01*
X149240000Y-74787614D01*
X149190000Y-74737614D01*
X149190000Y-74437615D01*
X149240000Y-74387615D01*
X150090001Y-74387615D01*
X150140000Y-74437615D01*
G37*
G36*
X151450000Y-73932615D02*
G01*
X151450000Y-74082614D01*
X151400000Y-74132614D01*
X150749999Y-74132614D01*
X150699999Y-74082614D01*
X150699999Y-73932615D01*
X150749999Y-73882615D01*
X151400000Y-73882615D01*
X151450000Y-73932615D01*
G37*
G36*
X149120000Y-72717616D02*
G01*
X149120000Y-73227615D01*
X149369999Y-73227615D01*
X149369999Y-72717616D01*
X149419999Y-72667616D01*
X149569999Y-72667616D01*
X149619999Y-72717616D01*
X149619999Y-73227615D01*
X149870001Y-73227615D01*
X149870001Y-72717616D01*
X149920001Y-72667616D01*
X150070001Y-72667616D01*
X150120001Y-72717616D01*
X150120001Y-73227615D01*
X150144999Y-73227615D01*
X150144999Y-73577614D01*
X150094999Y-73627614D01*
X148095001Y-73627614D01*
X148045001Y-73577614D01*
X148045001Y-73277615D01*
X148095001Y-73227615D01*
X148820001Y-73227615D01*
X148870000Y-73177615D01*
X148870000Y-72717616D01*
X148920000Y-72667616D01*
X149070000Y-72667616D01*
X149120000Y-72717616D01*
G37*
%TO.C,U6*%
G36*
X146617643Y-67402400D02*
G01*
X145347543Y-67402401D01*
X145347643Y-66589600D01*
X146617643Y-66589600D01*
X146617643Y-67402400D01*
G37*
G36*
X146617643Y-68402400D02*
G01*
X145347543Y-68402401D01*
X145347643Y-67589600D01*
X146617643Y-67589600D01*
X146617643Y-68402400D01*
G37*
%TO.C,U7*%
G36*
X168402402Y-71419100D02*
G01*
X167589601Y-71419000D01*
X167589601Y-70149000D01*
X168402401Y-70149000D01*
X168402402Y-71419100D01*
G37*
G36*
X169402402Y-71419100D02*
G01*
X168589601Y-71419000D01*
X168589601Y-70149000D01*
X169402401Y-70149000D01*
X169402402Y-71419100D01*
G37*
%TO.C,U2*%
G36*
X135551599Y-101674969D02*
G01*
X135551599Y-102970369D01*
X134700000Y-102974668D01*
X134700000Y-102720668D01*
X135208000Y-102720668D01*
X135200000Y-102174968D01*
X135350000Y-102174968D01*
X135350000Y-101674968D01*
X135551599Y-101674969D01*
G37*
G36*
X135274399Y-104974967D02*
G01*
X135551599Y-105224967D01*
X135551599Y-106270367D01*
X135348399Y-106270367D01*
X135348399Y-105770367D01*
X135200399Y-105770367D01*
X135208000Y-105224668D01*
X134700000Y-105224668D01*
X134700000Y-104970668D01*
X135274399Y-104974967D01*
G37*
G36*
X138401601Y-102174969D02*
G01*
X138948400Y-102174969D01*
X138948400Y-101674969D01*
X139151600Y-101674969D01*
X139151600Y-106270367D01*
X138948400Y-106270367D01*
X138948400Y-105770367D01*
X138401601Y-105770367D01*
X138401601Y-106270367D01*
X138198401Y-106270367D01*
X138198401Y-101674969D01*
X138401601Y-101674969D01*
X138401601Y-102174969D01*
G37*
G36*
X140251601Y-102174969D02*
G01*
X140791601Y-102174969D01*
X140792000Y-102720668D01*
X141300000Y-102720668D01*
X141300000Y-102974668D01*
X140792000Y-102974668D01*
X140792000Y-104970668D01*
X141300000Y-104970668D01*
X141300000Y-105224668D01*
X140792000Y-105224668D01*
X140791601Y-105770367D01*
X140251601Y-105770367D01*
X140251601Y-106270367D01*
X140048401Y-106270367D01*
X140048401Y-101674969D01*
X140251601Y-101674969D01*
X140251601Y-102174969D01*
G37*
%TD*%
D11*
%TO.C,F1*%
X173664981Y-104347426D03*
%TD*%
D12*
%TO.C,R2*%
X168676249Y-86731335D03*
X167656249Y-86731335D03*
%TD*%
D13*
%TO.C,C25*%
X141500000Y-71398317D03*
X140540000Y-71398317D03*
%TD*%
D14*
%TO.C,C13*%
X158329879Y-88245514D03*
X158329879Y-87285514D03*
%TD*%
D13*
%TO.C,C14*%
X163230000Y-91000000D03*
X162270000Y-91000000D03*
%TD*%
D11*
%TO.C,CAN-*%
X170716998Y-90191984D03*
%TD*%
D15*
%TO.C,C15*%
X167697499Y-87656489D03*
X168657499Y-87656489D03*
%TD*%
D16*
%TO.C,C9*%
X145492784Y-87023350D03*
X145492784Y-87983350D03*
%TD*%
D11*
%TO.C,F2*%
X170414981Y-104347426D03*
%TD*%
D17*
%TO.C,D12*%
X137440000Y-66840208D03*
X137440000Y-65870208D03*
%TD*%
D16*
%TO.C,C35*%
X144949906Y-104588064D03*
X144949906Y-105548064D03*
%TD*%
D18*
%TO.C,R50*%
X136380466Y-66864185D03*
X136380466Y-65844185D03*
%TD*%
D16*
%TO.C,C44*%
X161866643Y-73270000D03*
X161866643Y-74230000D03*
%TD*%
D18*
%TO.C,R56*%
X149524470Y-80765116D03*
X149524470Y-79745116D03*
%TD*%
D11*
%TO.C,S2*%
X170414981Y-108097426D03*
%TD*%
D16*
%TO.C,C37*%
X147500000Y-73285116D03*
X147500000Y-74245116D03*
%TD*%
D19*
%TO.C,U1*%
X147487122Y-95912500D03*
X147987122Y-95912500D03*
X148487122Y-95912500D03*
X148987122Y-95912500D03*
X149487122Y-95912500D03*
X149987122Y-95912500D03*
X150487122Y-95912500D03*
X150987122Y-95912500D03*
X151487122Y-95912500D03*
X151987122Y-95912500D03*
X152487122Y-95912500D03*
X152987122Y-95912500D03*
D20*
X154399622Y-94500000D03*
X154399622Y-94000000D03*
X154399622Y-93500000D03*
X154399622Y-93000000D03*
X154399622Y-92500000D03*
X154399622Y-92000000D03*
X154399622Y-91500000D03*
X154399622Y-91000000D03*
X154399622Y-90500000D03*
X154399622Y-90000000D03*
X154399622Y-89500000D03*
X154399622Y-89000000D03*
D19*
X152987122Y-87587500D03*
X152487122Y-87587500D03*
X151987122Y-87587500D03*
X151487122Y-87587500D03*
X150987122Y-87587500D03*
X150487122Y-87587500D03*
X149987122Y-87587500D03*
X149487122Y-87587500D03*
X148987122Y-87587500D03*
X148487122Y-87587500D03*
X147987122Y-87587500D03*
X147487122Y-87587500D03*
D20*
X146074622Y-89000000D03*
X146074622Y-89500000D03*
X146074622Y-90000000D03*
X146074622Y-90500000D03*
X146074622Y-91000000D03*
X146074622Y-91500000D03*
X146074622Y-92000000D03*
X146074622Y-92500000D03*
X146074622Y-93000000D03*
X146074622Y-93500000D03*
X146074622Y-94000000D03*
X146074622Y-94500000D03*
%TD*%
D11*
%TO.C,CAN+*%
X170679801Y-85152584D03*
%TD*%
D21*
%TO.C,U19*%
X148994999Y-75777615D03*
X149495000Y-75777615D03*
X149995000Y-75777615D03*
X150495001Y-75777615D03*
D22*
X151145000Y-75307616D03*
X151145000Y-73507614D03*
D23*
X148944999Y-73387617D03*
D22*
X148345000Y-75307616D03*
%TD*%
D24*
%TO.C,L1*%
X153150000Y-70015116D03*
X157900000Y-70015116D03*
%TD*%
D14*
%TO.C,C30*%
X131864015Y-104567241D03*
X131864015Y-103607241D03*
%TD*%
D16*
%TO.C,C48*%
X142997894Y-104605092D03*
X142997894Y-105565092D03*
%TD*%
D25*
%TO.C,J4*%
X150500000Y-104326904D03*
X151750000Y-104326904D03*
X153000000Y-104326904D03*
X154250000Y-104326904D03*
X155500000Y-104326904D03*
D26*
X148650000Y-107526904D03*
X157350000Y-107526904D03*
%TD*%
D14*
%TO.C,C29*%
X132834929Y-104563744D03*
X132834929Y-103603744D03*
%TD*%
%TO.C,C2*%
X144487122Y-94662500D03*
X144487122Y-93702500D03*
%TD*%
%TO.C,C40*%
X151135947Y-72237786D03*
X151135947Y-71277786D03*
%TD*%
D15*
%TO.C,C3*%
X155881426Y-90750000D03*
X156841426Y-90750000D03*
%TD*%
D16*
%TO.C,C28*%
X151947642Y-99520000D03*
X151947642Y-100480000D03*
%TD*%
D14*
%TO.C,C12*%
X157350630Y-88245724D03*
X157350630Y-87285724D03*
%TD*%
D18*
%TO.C,R5*%
X144487122Y-92422500D03*
X144487122Y-91402500D03*
%TD*%
D27*
%TO.C,Q2*%
X127622712Y-92327826D03*
D28*
X129907711Y-85177726D03*
D27*
X132192710Y-92327826D03*
%TD*%
D15*
%TO.C,C19*%
X138546798Y-89152694D03*
X139506798Y-89152694D03*
%TD*%
D11*
%TO.C,S1*%
X173664981Y-108097426D03*
%TD*%
D16*
%TO.C,C42*%
X159866643Y-73270000D03*
X159866643Y-74230000D03*
%TD*%
D29*
%TO.C,U6*%
X145766643Y-66749999D03*
X145766643Y-67250000D03*
X145766643Y-67750000D03*
X145766643Y-68250001D03*
D30*
X147266644Y-68950000D03*
X147766643Y-68950000D03*
D29*
X148466643Y-68250001D03*
X148466643Y-67750000D03*
X148466643Y-67250000D03*
X148466643Y-66749999D03*
D30*
X147766643Y-66050000D03*
X147266644Y-66050000D03*
%TD*%
D15*
%TO.C,C21*%
X138546798Y-88152694D03*
X139506798Y-88152694D03*
%TD*%
D12*
%TO.C,R10*%
X161045211Y-59500000D03*
X160025211Y-59500000D03*
%TD*%
D31*
%TO.C,R4*%
X136197370Y-99526904D03*
X137217370Y-99526904D03*
%TD*%
D32*
%TO.C,XTAL1*%
X148471589Y-99000000D03*
X150376589Y-99000000D03*
%TD*%
D11*
%TO.C,5VS*%
X167164981Y-104347426D03*
%TD*%
D13*
%TO.C,C1*%
X146560623Y-96152200D03*
X145600623Y-96152200D03*
%TD*%
%TO.C,C41*%
X150585260Y-78765117D03*
X149625260Y-78765117D03*
%TD*%
D15*
%TO.C,C20*%
X138545597Y-87148295D03*
X139505597Y-87148295D03*
%TD*%
D14*
%TO.C,C11*%
X133817083Y-104557256D03*
X133817083Y-103597256D03*
%TD*%
D15*
%TO.C,C4*%
X155881774Y-89739318D03*
X156841774Y-89739318D03*
%TD*%
D30*
%TO.C,U7*%
X167750000Y-71000000D03*
X168250001Y-71000000D03*
X168750001Y-71000000D03*
X169250002Y-71000000D03*
D29*
X169950001Y-69499999D03*
X169950001Y-69000000D03*
D30*
X169250002Y-68300000D03*
X168750001Y-68300000D03*
X168250001Y-68300000D03*
X167750000Y-68300000D03*
D29*
X167050001Y-69000000D03*
X167050001Y-69499999D03*
%TD*%
D16*
%TO.C,C46*%
X163866643Y-73270000D03*
X163866643Y-74230000D03*
%TD*%
D31*
%TO.C,R58*%
X149519688Y-77066016D03*
X150539688Y-77066016D03*
%TD*%
D16*
%TO.C,C47*%
X143974980Y-104592198D03*
X143974980Y-105552198D03*
%TD*%
D15*
%TO.C,C22*%
X143228247Y-82152964D03*
X144188247Y-82152964D03*
%TD*%
%TO.C,C6*%
X153026997Y-98493003D03*
X153986997Y-98493003D03*
%TD*%
D16*
%TO.C,C38*%
X145500000Y-73285116D03*
X145500000Y-74245116D03*
%TD*%
D31*
%TO.C,R8*%
X138144593Y-99400945D03*
X139164593Y-99400945D03*
%TD*%
D16*
%TO.C,C31*%
X142013702Y-104603149D03*
X142013702Y-105563149D03*
%TD*%
D33*
%TO.C,R51*%
X147390166Y-76987492D03*
X147390166Y-78007492D03*
%TD*%
D12*
%TO.C,Ra2*%
X144239927Y-83149409D03*
X143219927Y-83149409D03*
%TD*%
D13*
%TO.C,C26*%
X139980000Y-66250000D03*
X139020000Y-66250000D03*
%TD*%
D12*
%TO.C,R3*%
X143029415Y-84471553D03*
X142009415Y-84471553D03*
%TD*%
D18*
%TO.C,R7*%
X143030608Y-87219702D03*
X143030608Y-86199702D03*
%TD*%
D31*
%TO.C,Rb2*%
X141288313Y-83146072D03*
X142308313Y-83146072D03*
%TD*%
D11*
%TO.C,3V3*%
X163914981Y-108097426D03*
%TD*%
D16*
%TO.C,C45*%
X162866643Y-73265116D03*
X162866643Y-74225116D03*
%TD*%
D14*
%TO.C,C18*%
X141976754Y-86408014D03*
X141976754Y-85448014D03*
%TD*%
D16*
%TO.C,C36*%
X152640959Y-76966580D03*
X152640959Y-77926580D03*
%TD*%
%TO.C,C50*%
X142500000Y-102258948D03*
X142500000Y-103218948D03*
%TD*%
%TO.C,C34*%
X145925815Y-104589501D03*
X145925815Y-105549501D03*
%TD*%
D34*
%TO.C,U8*%
X144658015Y-102265079D03*
X143858015Y-102265079D03*
D35*
X144908015Y-101377579D03*
X144258015Y-101377579D03*
X143608015Y-101377579D03*
X143608015Y-103152579D03*
X144258015Y-103152579D03*
X144908015Y-103152579D03*
%TD*%
D13*
%TO.C,C10*%
X139151658Y-100418988D03*
X138191658Y-100418988D03*
%TD*%
D16*
%TO.C,C39*%
X146500000Y-73285116D03*
X146500000Y-74245116D03*
%TD*%
D33*
%TO.C,R6*%
X151616643Y-78740000D03*
X151616643Y-79760000D03*
%TD*%
%TO.C,R53*%
X148414636Y-76987072D03*
X148414636Y-78007072D03*
%TD*%
D15*
%TO.C,C7*%
X153020000Y-97500000D03*
X153980000Y-97500000D03*
%TD*%
D14*
%TO.C,C8*%
X146541093Y-87118359D03*
X146541093Y-86158359D03*
%TD*%
D36*
%TO.C,U2*%
X135449999Y-105622667D03*
D37*
X135900000Y-105622667D03*
X136349999Y-105622667D03*
X136800001Y-105622667D03*
X137250000Y-105622667D03*
X137699999Y-105622667D03*
D36*
X138300001Y-105622667D03*
X139050000Y-105622667D03*
X140150001Y-105622667D03*
X141046000Y-105097668D03*
X141046000Y-102847668D03*
X140150001Y-102322669D03*
X139050000Y-102322669D03*
X138300001Y-102322669D03*
D37*
X137699999Y-102322669D03*
X137250000Y-102322669D03*
X136800001Y-102322669D03*
X136349999Y-102322669D03*
X135900000Y-102322669D03*
D36*
X135449999Y-102322669D03*
X134954000Y-102847668D03*
D38*
X135729000Y-103697667D03*
X135729000Y-104247669D03*
D36*
X134954000Y-105097668D03*
%TD*%
D39*
%TO.C,U4*%
X160080097Y-85828527D03*
X160080097Y-87098527D03*
X160080097Y-88368527D03*
X160080097Y-89638527D03*
X165030097Y-89638527D03*
X165030097Y-88368527D03*
X165030097Y-87098527D03*
X165030097Y-85828527D03*
%TD*%
D11*
%TO.C,GND*%
X160664981Y-108097426D03*
%TD*%
D40*
%TO.C,U17*%
X142180069Y-67662500D03*
X141230069Y-67662500D03*
X140280069Y-67662500D03*
X140280069Y-69937500D03*
X141230069Y-69937500D03*
X142180069Y-69937500D03*
%TD*%
D16*
%TO.C,C43*%
X160866643Y-73270000D03*
X160866643Y-74230000D03*
%TD*%
D41*
%TO.C,SRP4020TA-4R7M1*%
X135776861Y-84923069D03*
X135776861Y-88623069D03*
%TD*%
D16*
%TO.C,C32*%
X151940504Y-97627464D03*
X151940504Y-98587464D03*
%TD*%
%TO.C,C51*%
X146076303Y-101770000D03*
X146076303Y-102730000D03*
%TD*%
D42*
%TO.C,Q1*%
X138535000Y-57340690D03*
D43*
X145685100Y-59625689D03*
D42*
X138535000Y-61910688D03*
%TD*%
D13*
%TO.C,C5*%
X146560623Y-97152200D03*
X145600623Y-97152200D03*
%TD*%
%TO.C,C33*%
X135239573Y-99683842D03*
X134279573Y-99683842D03*
%TD*%
D31*
%TO.C,R1*%
X167656249Y-88770419D03*
X168676249Y-88770419D03*
%TD*%
D16*
%TO.C,C24*%
X165750001Y-67520000D03*
X165750001Y-68480000D03*
%TD*%
D18*
%TO.C,R55*%
X150524470Y-80775116D03*
X150524470Y-79755116D03*
%TD*%
D11*
%TO.C,5VL*%
X167164981Y-108097426D03*
%TD*%
D12*
%TO.C,R12*%
X135274236Y-100729821D03*
X134254236Y-100729821D03*
%TD*%
D14*
%TO.C,C27*%
X146924089Y-99980000D03*
X146924089Y-99020000D03*
%TD*%
D13*
%TO.C,C23*%
X148076643Y-64750000D03*
X147116643Y-64750000D03*
%TD*%
D31*
%TO.C,R9*%
X160000000Y-60546023D03*
X161020000Y-60546023D03*
%TD*%
D15*
%TO.C,C16*%
X138624202Y-82136098D03*
X139584202Y-82136098D03*
%TD*%
D18*
%TO.C,R52*%
X148524470Y-80775116D03*
X148524470Y-79755116D03*
%TD*%
D44*
%TO.C,U5*%
X139601861Y-84148295D03*
X139601861Y-84648295D03*
X139601861Y-85148295D03*
X141026861Y-85148295D03*
X141026861Y-84648295D03*
X141026861Y-84148295D03*
%TD*%
D15*
%TO.C,C17*%
X138604202Y-83136098D03*
X139564202Y-83136098D03*
%TD*%
D45*
%TO.C,D9*%
X170199539Y-86699000D03*
X170199539Y-88599000D03*
X172074539Y-87649000D03*
%TD*%
M02*
