%TF.GenerationSoftware,KiCad,Pcbnew,9.0.6*%
%TF.CreationDate,2026-02-27T09:42:09+00:00*%
%TF.ProjectId,Foinse,466f696e-7365-42e6-9b69-6361645f7063,rev?*%
%TF.SameCoordinates,Original*%
%TF.FileFunction,Soldermask,Bot*%
%TF.FilePolarity,Negative*%
%FSLAX46Y46*%
G04 Gerber Fmt 4.6, Leading zero omitted, Abs format (unit mm)*
G04 Created by KiCad (PCBNEW 9.0.6) date 2026-02-27 09:42:09*
%MOMM*%
%LPD*%
G01*
G04 APERTURE LIST*
G04 Aperture macros list*
%AMRoundRect*
0 Rectangle with rounded corners*
0 $1 Rounding radius*
0 $2 $3 $4 $5 $6 $7 $8 $9 X,Y pos of 4 corners*
0 Add a 4 corners polygon primitive as box body*
4,1,4,$2,$3,$4,$5,$6,$7,$8,$9,$2,$3,0*
0 Add four circle primitives for the rounded corners*
1,1,$1+$1,$2,$3*
1,1,$1+$1,$4,$5*
1,1,$1+$1,$6,$7*
1,1,$1+$1,$8,$9*
0 Add four rect primitives between the rounded corners*
20,1,$1+$1,$2,$3,$4,$5,0*
20,1,$1+$1,$4,$5,$6,$7,0*
20,1,$1+$1,$6,$7,$8,$9,0*
20,1,$1+$1,$8,$9,$2,$3,0*%
G04 Aperture macros list end*
%ADD10C,3.100000*%
%ADD11C,1.676200*%
%ADD12C,1.226200*%
%ADD13C,0.010000*%
%ADD14C,3.200000*%
%ADD15RoundRect,0.102000X0.762000X-0.762000X0.762000X0.762000X-0.762000X0.762000X-0.762000X-0.762000X0*%
%ADD16C,1.728000*%
%ADD17C,1.600000*%
%ADD18O,2.454000X4.704000*%
%ADD19O,2.204000X4.204000*%
%ADD20O,4.204000X2.204000*%
G04 APERTURE END LIST*
D10*
X177063553Y-63102928D02*
G75*
G02*
X173963553Y-63102928I-1550000J0D01*
G01*
X173963553Y-63102928D02*
G75*
G02*
X177063553Y-63102928I1550000J0D01*
G01*
X132018911Y-63102928D02*
G75*
G02*
X128918911Y-63102928I-1550000J0D01*
G01*
X128918911Y-63102928D02*
G75*
G02*
X132018911Y-63102928I1550000J0D01*
G01*
X132018911Y-97044054D02*
G75*
G02*
X128918911Y-97044054I-1550000J0D01*
G01*
X128918911Y-97044054D02*
G75*
G02*
X132018911Y-97044054I1550000J0D01*
G01*
X177063553Y-97044054D02*
G75*
G02*
X173963553Y-97044054I-1550000J0D01*
G01*
X173963553Y-97044054D02*
G75*
G02*
X177063553Y-97044054I1550000J0D01*
G01*
D11*
%TO.C,J15*%
X147228565Y-52823677D02*
G75*
G02*
X145552365Y-52823677I-838100J0D01*
G01*
X145552365Y-52823677D02*
G75*
G02*
X147228565Y-52823677I838100J0D01*
G01*
D12*
X151503565Y-62523677D02*
G75*
G02*
X150277365Y-62523677I-613100J0D01*
G01*
X150277365Y-62523677D02*
G75*
G02*
X151503565Y-62523677I613100J0D01*
G01*
X155703565Y-57023677D02*
G75*
G02*
X154477365Y-57023677I-613100J0D01*
G01*
X154477365Y-57023677D02*
G75*
G02*
X155703565Y-57023677I613100J0D01*
G01*
X155703565Y-62523677D02*
G75*
G02*
X154477365Y-62523677I-613100J0D01*
G01*
X154477365Y-62523677D02*
G75*
G02*
X155703565Y-62523677I613100J0D01*
G01*
D11*
X160428565Y-52823677D02*
G75*
G02*
X158752365Y-52823677I-838100J0D01*
G01*
X158752365Y-52823677D02*
G75*
G02*
X160428565Y-52823677I838100J0D01*
G01*
D13*
X152116665Y-58249877D02*
X149664265Y-58249877D01*
X149664265Y-55797477D01*
X152116665Y-55797477D01*
X152116665Y-58249877D01*
G36*
X152116665Y-58249877D02*
G01*
X149664265Y-58249877D01*
X149664265Y-55797477D01*
X152116665Y-55797477D01*
X152116665Y-58249877D01*
G37*
%TD*%
D14*
%TO.C,J15*%
X159590465Y-52823677D03*
X146390465Y-52823677D03*
%TD*%
D15*
%TO.C,J1*%
X176790000Y-68640000D03*
D16*
X174250000Y-68640000D03*
X176790000Y-71180000D03*
X174250000Y-71180000D03*
X176790000Y-73720000D03*
X174250000Y-73720000D03*
X176790000Y-76260000D03*
X174250000Y-76260000D03*
X176790000Y-78800000D03*
X174250000Y-78800000D03*
X176790000Y-81340000D03*
X174250000Y-81340000D03*
X176790000Y-83880000D03*
X174250000Y-83880000D03*
X176790000Y-86420000D03*
X174250000Y-86420000D03*
X176790000Y-88960000D03*
X174250000Y-88960000D03*
X176790000Y-91500000D03*
X174250000Y-91500000D03*
%TD*%
D17*
%TO.C,J3*%
X129250000Y-72750000D03*
D18*
X138250000Y-72750000D03*
D19*
X132250000Y-72750000D03*
D20*
X131250000Y-77250000D03*
X131250000Y-68250000D03*
%TD*%
M02*
