M48
; DRILL file {KiCad 9.0.6} date 2026-02-27T09:42:06+0000
; FORMAT={-:-/ absolute / metric / decimal}
; #@! TF.CreationDate,2026-02-27T09:42:06+00:00
; #@! TF.GenerationSoftware,Kicad,Pcbnew,9.0.6
; #@! TF.FileFunction,Plated,1,6,PTH
FMAT,2
METRIC
; #@! TA.AperFunction,Plated,PTH,ViaDrill
T1C0.200
; #@! TA.AperFunction,Plated,PTH,ViaDrill
T2C0.300
; #@! TA.AperFunction,Plated,PTH,ComponentDrill
T3C1.000
; #@! TA.AperFunction,Plated,PTH,ComponentDrill
T4C1.016
; #@! TA.AperFunction,Plated,PTH,ComponentDrill
T5C1.800
%
G90
G05
T1
X146.75Y-75.015
X147.224Y-78.791
X147.493Y-74.863
X147.852Y-78.781
X148.47Y-78.781
X148.681Y-74.571
X149.231Y-74.593
X149.886Y-74.606
X150.338Y-77.92
X150.847Y-77.915
X152.4Y-78.63
X152.849Y-78.63
T2
X127.0Y-89.75
X127.0Y-90.5
X127.868Y-89.747
X127.868Y-90.497
X128.986Y-94.546
X129.047Y-60.654
X129.135Y-65.531
X129.135Y-99.531
X129.298Y-89.3
X129.851Y-90.898
X129.851Y-91.898
X130.691Y-60.654
X130.75Y-94.654
X130.797Y-65.57
X130.797Y-99.57
X130.851Y-90.898
X130.851Y-91.898
X130.898Y-105.901
X132.329Y-64.869
X132.329Y-98.869
X132.407Y-61.422
X132.407Y-95.422
X132.739Y-101.647
X132.824Y-105.728
X132.942Y-102.975
X133.047Y-63.154
X133.047Y-97.154
X133.376Y-100.784
X133.5Y-82.5
X133.5Y-84.0
X133.5Y-89.5
X133.705Y-101.734
X133.75Y-102.975
X134.007Y-105.836
X134.239Y-107.647
X134.75Y-66.75
X135.25Y-98.75
X135.5Y-65.75
X135.739Y-107.647
X136.75Y-79.25
X136.789Y-80.998
X137.239Y-107.647
X137.25Y-64.0
X137.389Y-101.147
X137.615Y-90.462
X137.739Y-106.647
X138.0Y-78.0
X138.027Y-85.148
X138.111Y-90.957
X138.277Y-89.898
X138.739Y-107.647
X138.75Y-91.75
X139.21Y-65.297
X139.25Y-67.25
X139.25Y-76.983
X139.527Y-86.014
X139.59Y-90.111
X139.7Y-60.8
X139.931Y-74.273
X139.931Y-75.736
X140.25Y-72.5
X140.25Y-91.75
X140.277Y-86.014
X140.46Y-83.112
X140.467Y-82.295
X141.027Y-86.014
X141.25Y-91.0
X141.277Y-88.153
X142.014Y-106.568
X142.046Y-87.153
X142.5Y-101.25
X142.65Y-80.894
X143.001Y-85.362
X143.014Y-106.568
X143.163Y-90.937
X143.587Y-94.662
X143.71Y-84.112
X143.75Y-100.5
X144.0Y-79.75
X144.25Y-81.25
X144.34Y-78.25
X144.451Y-75.047
X144.451Y-75.797
X144.451Y-76.547
X144.5Y-85.5
X144.529Y-86.879
X144.622Y-89.783
X144.633Y-64.0
X144.75Y-72.515
X144.75Y-88.75
X144.75Y-97.25
X145.0Y-100.25
X145.014Y-106.568
X145.207Y-75.04
X145.207Y-75.79
X145.207Y-76.54
X145.25Y-63.5
X145.25Y-83.75
X145.383Y-64.5
X145.424Y-86.25
X145.75Y-98.0
X145.935Y-61.0
X145.951Y-75.047
X145.951Y-75.797
X145.951Y-76.547
X146.0Y-64.0
X146.014Y-106.568
X147.0Y-100.87
X147.25Y-102.75
X147.252Y-68.05
X147.5Y-63.3
X147.5Y-80.765
X147.622Y-97.206
X147.674Y-91.0
X147.75Y-86.164
X147.924Y-93.5
X148.605Y-68.902
X148.617Y-65.867
X148.674Y-101.0
X148.75Y-83.5
X148.924Y-91.25
X149.213Y-64.683
X149.424Y-90.0
X149.875Y-81.707
X150.0Y-60.8
X150.0Y-107.527
X150.049Y-94.375
X150.21Y-68.54
X150.323Y-65.591
X150.5Y-102.527
X150.742Y-69.696
X150.817Y-100.844
X150.989Y-94.25
X151.174Y-93.099
X151.467Y-80.799
X151.661Y-83.877
X151.75Y-102.027
X152.174Y-91.75
X152.924Y-89.5
X153.0Y-91.0
X153.0Y-93.75
X153.0Y-102.527
X153.061Y-65.393
X153.375Y-81.707
X153.5Y-100.25
X153.867Y-80.175
X154.237Y-87.75
X154.244Y-75.773
X154.244Y-76.523
X154.244Y-77.273
X154.25Y-78.015
X154.25Y-102.527
X154.262Y-79.479
X154.339Y-65.402
X154.5Y-83.75
X154.5Y-95.5
X155.0Y-75.765
X155.0Y-76.515
X155.0Y-77.265
X155.0Y-98.5
X155.006Y-78.008
X155.5Y-102.777
X155.617Y-65.4
X155.658Y-82.75
X156.0Y-93.0
X156.0Y-107.5
X156.25Y-74.273
X156.25Y-75.023
X156.25Y-75.773
X156.25Y-94.75
X156.256Y-76.515
X156.4Y-91.65
X156.895Y-65.409
X157.0Y-105.0
X157.006Y-74.265
X157.006Y-75.015
X157.006Y-75.765
X157.012Y-76.508
X157.125Y-81.707
X157.75Y-74.273
X157.75Y-75.023
X157.75Y-75.773
X157.75Y-90.0
X157.756Y-76.515
X157.924Y-90.75
X157.98Y-92.375
X158.25Y-101.25
X159.0Y-60.5
X159.5Y-75.265
X159.5Y-79.183
X159.506Y-76.008
X159.875Y-90.707
X160.0Y-98.25
X160.15Y-65.5
X160.256Y-75.258
X160.262Y-76.0
X160.75Y-84.0
X161.0Y-61.5
X161.0Y-75.265
X161.006Y-76.008
X161.75Y-75.265
X161.756Y-76.008
X162.0Y-105.25
X162.415Y-108.097
X162.5Y-87.5
X162.506Y-75.258
X162.512Y-76.0
X163.0Y-66.0
X163.25Y-75.265
X163.25Y-89.0
X163.256Y-76.008
X164.0Y-75.265
X164.006Y-76.008
X164.617Y-80.0
X164.75Y-67.5
X164.772Y-90.604
X165.0Y-72.265
X165.5Y-100.5
X165.623Y-66.745
X165.75Y-107.0
X166.404Y-86.6
X166.75Y-68.15
X167.457Y-100.957
X167.75Y-74.0
X168.498Y-67.39
X169.0Y-103.25
X169.0Y-108.25
X169.5Y-78.25
X170.0Y-68.15
X170.25Y-101.25
X170.625Y-87.707
X171.25Y-69.25
X172.25Y-103.25
X172.711Y-106.488
X173.0Y-63.0
X173.0Y-97.0
X173.2Y-67.1
X173.641Y-64.732
X173.641Y-98.732
X173.718Y-61.285
X173.718Y-95.285
X175.25Y-60.584
X175.25Y-94.584
X175.357Y-65.5
X175.357Y-99.5
X176.912Y-60.623
X176.912Y-94.623
X177.0Y-65.5
X177.0Y-99.5
T4
X174.25Y-68.64
X174.25Y-71.18
X174.25Y-73.72
X174.25Y-76.26
X174.25Y-78.8
X174.25Y-81.34
X174.25Y-83.88
X174.25Y-86.42
X174.25Y-88.96
X174.25Y-91.5
X176.79Y-68.64
X176.79Y-71.18
X176.79Y-73.72
X176.79Y-76.26
X176.79Y-78.8
X176.79Y-81.34
X176.79Y-83.88
X176.79Y-86.42
X176.79Y-88.96
X176.79Y-91.5
T5
X150.89Y-57.024
X150.89Y-62.524
X155.09Y-57.024
X155.09Y-62.524
T3
G00X132.0Y-68.25
M15
G01X130.5Y-68.25
M16
G05
G00X132.0Y-77.25
M15
G01X130.5Y-77.25
M16
G05
G00X132.25Y-73.4
M15
G01X132.25Y-72.1
M16
G05
G00X138.25Y-73.75
M15
G01X138.25Y-71.75
M16
G05
M30
